<?xml version="1.0" encoding="utf-8"?>
<!-- Generator: Adobe Illustrator 23.0.5, SVG Export Plug-In . SVG Version: 6.00 Build 0)  -->
<svg version="1.1" id="Capa_1" xmlns="http://www.w3.org/2000/svg" xmlns:xlink="http://www.w3.org/1999/xlink" x="0px" y="0px"
	 viewBox="0 0 239 176" style="enable-background:new 0 0 239 176;" xml:space="preserve">
<style type="text/css">
	.st0{opacity:0.1;fill:#009688;enable-background:new    ;}
	.st1{opacity:0.3;fill:#2D6C70;enable-background:new    ;}
	.st2{fill:url(#SVGID_1_);}
	.st3{fill:#8499F0;}
	.st4{fill:#9F9BAD;}
	.st5{fill:#F9D3C4;}
	.st6{fill:#F6E2D7;}
	.st7{fill:#2A2A31;}
	.st8{fill:#C8B5AC;}
	.st9{opacity:0.1;enable-background:new    ;}
	.st10{fill:#3E3F49;}
	.st11{fill:#151519;}
	.st12{fill:#535461;}
	.st13{opacity:0.1;fill:#FFFFFF;enable-background:new    ;}
	.st14{fill:#D37F3F;}
	.st15{fill:#74555E;}
	.st16{fill:#757681;}
	.st17{fill:#FC6681;}
	.st18{fill:#009688;}
</style>
<path class="st0" d="M89.6,150.5c-6.3,1.5-12.5,3.9-19,4.5c-8.2,0.8-16.7-1.1-24.7,0.8c-3.7,0.9-7.7,3.1-8.4,6.9
	c-0.6,3.4,1.9,6.7,4.8,8.7c5.9,4,13.5,4.3,20.6,4.4c7.9,0.2,16,0.3,23.6-1.9c4.9-1.4,9.6-3.9,14.5-5.1c6.9-1.7,14.2-0.9,21.3-0.7
	c2,0,4.1,0,6-0.6c1.2-0.4,2.4-1.1,3.6-1.5c2.5-0.8,5.1-0.4,7.7-0.1c10.7,1.4,21.4,2,32.2,1.8c5.3-0.1,11-0.6,15.3-3.7
	c1.2-0.9,2.4-2,3-3.4c1-2.1,0.9-4.5,0.2-6.7c-1.8-5.4-7.3-8.9-12.9-10c-5.6-1.1-11.4-0.3-17,0.6l-26.5,4.1c-1.9,0.3-3.8,0.6-5.6,1.2
	c-2,0.7-3.9,1.9-5.9,2.7c-5.8,2.3-9.5,0.7-14.6-1.5C102,148.5,95.8,149,89.6,150.5z"/>
<path class="st1" d="M14.8,55.3c5.1,14.2-1.4,30.5-9,42.9c-2.6,4.1-5.4,8.5-5.7,13.6c-0.4,6.3,3,12.2,7.2,16
	c7.5,6.9,17.8,9.1,26.7,5.6c7.7-3,14.2-9.9,22-12.6c13-4.6,26.8,3,38,12.6c7.9,6.7,16.4,14.9,25.9,13.5c6.7-1,12.4-6.8,16.2-13.7
	c1.9-3.3,3.5-7,6.2-9.2c1.6-1.3,3.5-2,5.4-2.5c17.3-4.6,35.7,6.6,52.7,0.8c11.5-3.9,20.7-15.1,26.4-28.1s8.4-27.6,10.6-42.1
	c1.6-10.3,2.9-21.4-0.7-30.9C232.8,11,223.9,4.9,215,3.8s-17.9,2-26.1,6.5c-10.3,5.6-20.4,13.3-31.6,13.4c-7.6,0-14.9-3.6-22.2-6.4
	c-12.2-4.6-24.9-6.9-37.6-9c-12.1-2-24.4-3.9-36.6-2.7c-8.6,0.8-16.3,4.9-24.6,6.8c-5.5,1.2-10.9,0.3-16.3,2.4
	c-6.6,2.5-13.4,8.5-13.7,17.8C5.8,41.3,12.1,47.7,14.8,55.3z"/>
<linearGradient id="SVGID_1_" gradientUnits="userSpaceOnUse" x1="117.9717" y1="9.2669" x2="117.9717" y2="160.8647" gradientTransform="matrix(1 0 0 -1 0 175.89)">
	<stop  offset="0" style="stop-color:#808080;stop-opacity:0.25"/>
	<stop  offset="0.54" style="stop-color:#808080;stop-opacity:0.12"/>
	<stop  offset="1" style="stop-color:#808080;stop-opacity:0.1"/>
</linearGradient>
<path class="st2" d="M192,40.2c2-3.1-0.6-2.9-0.6-2.9l-49.9,13.7l21.7-34.1c0.4-2.4-2.5-1.8-2.5-1.8l-23.3,37.1l-6.1,1.7l-0.5-1
	l-1.1,0.4c-0.1-0.5-0.4-0.9-0.7-1c-2-1-4.3,1.2-6.4,3.7l-5.8,2.2l1.8,2.9l3.5-1.1c0.7,1.9,2.2,3.7,2.7,4.4l-0.4,0.2l0.6,1.7
	l-0.4,0.2l0.2,0.5l-0.2,0.1c0,0,0.6,1.7,1.2,3.9l-2.6,4.2l-0.4-0.3l-4.5,5.9l-3.9-0.8c0.1-1.5,0.2-2.9,0.3-3.8
	c0.8,0.4,1.4,0.8,1.4,0.8c0.1-0.4,0.1-0.8,0.1-1.2c0.2-5.5-6.5-9.4-7.5-9.9c-0.5-0.7-1-1.5-1.3-2.3c-0.4-1.2,0-2.3,0.8-3.1l0.2,0
	c0.2-0.1,0.3-0.3,0.5-0.4h0.2c2.4,0,4.8-0.9,6.6-2.5s2.9-3.9,3.2-6.3c0.5,0.4,0.8,0.9,0.9,1.5c0.1-0.3,0.2-0.7,0.1-1
	c0-0.5-0.1-1.3-0.7-2.5c0.3-0.9,0.4-1.7,0.4-2.6c0.1-2.1-0.7-5.3-4.5-7.9c0,0-7.8-4.7-12.1,1.6c-4.3,6.3-3.9,4.5-3.9,4.5l-8.3,5.8
	c0,0-0.1,0.1-0.1,0.1c-0.9,0.7,0.2,1.9,1.5,3c-4.8-1-11.4-0.8-16.8,4.8c0,0-5.1,12.2-10.4,16.9c-5.3,4.7-9.4,37.1-9.4,37.1l-0.2,1.2
	l-7.5,37.8l0.3-0.1c-0.7,2.3-1.3,4.2-1.3,4.2l-3.3,8.4l0.1,0l-0.1,0.4c0,0,15.5,3.5,20.4,2.4c2.4-0.5,2.9-1.3,2.8-2
	c0.2-0.9-0.9-1.7-0.9-1.7s-5.7-0.8-8.6-5.5c-0.5-0.9-0.8-1.8-0.8-2.8c0.1-2.6,1.3-5.4,2.4-7.3c6.3-1.9,14.3-3.7,20.9-2.9
	c3.1,0.3,6.2,0.4,9.2,0.3c-0.8,2.8-1.7,5.4-1.7,5.4l-3.3,8.4l0.1,0l-0.1,0.4c0,0,15.5,3.5,20.4,2.4c2.4-0.5,2.9-1.3,2.8-2
	c0.2-0.9-0.9-1.7-0.9-1.7s-5.7-0.8-8.6-5.5c-0.5-0.9-0.8-1.8-0.8-2.8c0-1.9,0.8-4,1.6-5.7c1.3-0.2,2.5-0.5,3.7-0.9
	c0,0,12.3,2.2,14.7,4.5c1,1,0.9-3.9,0.3-9.9c-1-10.6-3.7-20.9-8.1-30.6c-0.6-1.3-1.2-2.6-1.7-3.9l2.2-3.1c0.2,0.2,0.3,0.3,0.3,0.3
	c0.8,0.2,1.6,0.3,2.3,0.3c6.8,0.2,5.4-8.6,5.4-8.6c0-0.1-0.6-0.5-1.6-0.9l0.4-0.6l0.2-0.1c0.1,0.1,0.2,0.1,0.2,0.1s6.7-3.5,6.1-5.9
	c-0.2-0.7-0.5-1.3-1-1.8l4-5.6l-0.5-0.4l1.5-2.4c0.7,2.4,1.3,4.7,1.2,5.2c-0.2,1.2,6.7,3.9,6.7,3.9s2.2,0.3,3.9,0.4
	c0.4,2.7,1.5,6.5,2,8.4c0.2,0.8,0.5,1.5,0.9,2.2c1,1.8,3,5.8,3.2,7.7c0,0.1,0,0.2-0.1,0.3c-0.8,1.6-0.8,2.9-0.8,2.9h0.1
	c0,0.2-0.1,0.4-0.1,0.6l1.7-0.2c0.1,1.6-1,4.7-7.9,7.7c-4.2,1.9-7.1,3.6-8.9,4.9c-1.4,1-2.5,2.4-3,4.1s-0.6,3.4-0.1,5.1
	c0.2,0.8,0.6,1.6,1.1,2.3c1.4,2.2,1.9,3.7,2,4.5c-0.4,0-0.8,0-1-0.1c0,0,0.1,0.2,0.3,0.6c-0.1,0-0.2,0-0.3,0c0,0,6.7,13.4,7,18.2
	c0,0.3-0.1,0.6-0.2,0.8c0,0-0.8,3.7-4.3,3.7c-1.9,0-2.2,0.5-1.9,1.1c-0.4,0.6,0.7,1.4,1.5,1.6c1.2,0.2,12.1,1,14.3-2l-0.1-0.4
	c0-0.1,0.1-0.1,0.1-0.2l-1.4-4.9c0,0-1.2-3.9-1.3-6.2c0-0.2,0-0.4,0.1-0.6c0.2-0.4,0.2-1.4,0.2-2.7c0-3.9-0.6-11.3-0.6-11.3
	l-0.9,0.4c-0.8-1.1-2.1-3-1.5-4.2c0.4,0.1,0.9,0.1,1.3,0.1c1.5,0,4.2-0.2,8.3-1.6l4.7,10.4c0,0,1.4,3.1,4.5,4.1l4.1,3.8
	c-0.2,0-0.4,0.1-0.6,0.1l0.5,0.4c-0.1,0-0.2,0-0.3,0l10.7,7.2c0.1,1,0.1,4.4-2.5,4.4c-3.1,0-2.9,2.2-2.9,2.2h0.2c0,0.1,0,0.3,0,0.4
	h14.9c0,0,1.7-3,0.5-4.9c-0.1-0.2-0.2-0.4-0.3-0.6c-1.4-1.8-4.7-5.7-4.7-5.7s-3.2-4.3-5.1-8c-0.4-0.8-0.8-1.7-1-2.6l-0.1,0.1
	c-0.1-0.2-0.1-0.3-0.1-0.5c0,0-0.2,0.3-0.6,0.8c-1.1-1.2-2.8-2.9-4.5-3.8c-2.1-1.2-3.2-10.3-3.7-14.9c1.3-1.4,2.1-3.2,2.4-5.1
	c0.4-3.2,0.5-7.5-1.4-10.8c-0.1-0.7-1.1-5.7-1.1-9c0-0.5,0-0.9,0.1-1.3c0.2-0.8,0.2-1.6,0.2-2.5c0,0,0-0.1,0-0.1c0-0.2,0-0.3,0-0.5
	c0-3.3-0.8-6.5-2.2-9.4c-0.7-1.4-1.4-3-2.1-4.7c-0.6-1.4-1.7-2.1-2.9-2.5c0.1-0.2,0.1-0.4,0-0.6c0-0.3,0-0.5-0.1-0.8
	c-0.2-0.5-0.6-0.8-0.8-1.2c-0.2-0.3-0.3-0.6-0.4-0.9c0,0,0-0.1,0-0.1c0.1-0.2,0.2-0.3,0.4-0.4c0.6-0.5,1.1-1.2,1.4-2
	c0.2-0.7,0.3-1.4,0.3-2.1c0.1-0.7,0.1-1.4,0.1-2.1c0-1.5-0.1-2.9-0.7-4.2c-0.3-0.6-0.7-1.2-1.2-1.6c-0.4-0.3-0.7-0.5-1.1-0.7
	c-1.6-0.8-3.1-1.5-4.8-2c-1.7-0.5-3.5-0.6-5.2-0.1c-0.5,0.1-1,0.4-1.3,0.7c-0.3,0.3-0.5,0.7-0.9,1c-0.5,0.4-1.1,0.6-1.5,1
	c-0.9,0.7-1.2,2-1.1,3.1c0,0,0,0,0,0c0,0.1,0,0.3,0,0.4c0,0.5,0.2,1.1,0.7,1.2c0.1,0,0.3,0,0.4-0.1c0.1-0.1,0.2-0.1,0.3-0.2
	c-0.5,1.5-0.5,3.2,0,4.7c0.6,1.5,1.6,2.8,3,3.6c0.6,1.3,0.9,2.7,1,4.1c-0.7,0.1-1.3,0.1-1.6,0.1c-0.1,0-0.2,0-0.3,0.1
	c-2.4-0.2-4-1.1-6-1.7c-1.7-0.6-3-3.2-3.8-5.5l8.1-12.8L192,40.2z M105.1,97.8c-0.5-1.3-0.9-2.4-1.2-3.3c-0.4-1.3-0.9-2.6-1.4-3.8
	c-0.3-0.8-0.5-1.6-0.6-2.4c0.8-1,1.6-1.9,2.3-2.8c0.6,0.1,1.2,0.2,1.8,0.4c-0.2,0.5-0.4,0.9-0.6,1.3c-1.2,1.6,1.2,8,1.2,8l0,0
	c0,0.2,0.1,0.4,0.1,0.6L105.1,97.8z M140.1,132L140.1,132c-0.2-0.2-0.4-0.4-0.5-0.6C139.8,131.7,140.1,132,140.1,132L140.1,132z
	 M130.5,63.3L130.5,63.3c-0.2,0.2-0.4,0.4-0.6,0.6l-0.6-2.2l0,0c0.2-0.9,0.5-2.6,0.6-4.3l2.7-0.9l-0.3-0.7l3.5-0.9L130.5,63.3z"/>
<path class="st3" d="M130.3,55.1l59-16.2c0,0,2.6-0.2,0.6,2.8l-59,15.4L130.3,55.1z"/>
<path class="st4" d="M116.8,59.1l1.8,2.8l13.5-4.4l-1.6-3.6L116.8,59.1z"/>
<path class="st5" d="M124.7,65.2c0,0-4.8-5.3-2.6-7.9c2.2-2.6,4.6-5,6.5-4c2,1,0,9.9,0,9.9L124.7,65.2z"/>
<path class="st6" d="M124.9,67.4l-0.8-2.2c0,0,4.4-2.4,4.8-2.8l0.8,3L124.9,67.4z"/>
<path class="st7" d="M114.8,74.9c0,0-1.4,12.1,0,15.3c0,0-6.7,3.4-7.9,4.8c0,0-2.4-6.1-1.2-7.7c1.2-1.6,4.8-14.3,4.8-14.3
	L114.8,74.9z"/>
<path class="st5" d="M140.4,68c0,0,3,4.5,2,8.7c-1,4.2,9.7-2.4,9.7-2.4s-3.2-4.8-2.8-9.1L140.4,68z"/>
<path class="st8" d="M146.4,123l5.6,12.3c0,0,1.4,3,4.4,4l5.8,5.3l7.7-6.7c0,0-2.8-3.6-5.6-5.1c-2.8-1.6-3.8-17-3.8-17L146.4,123z"
	/>
<path class="st9" d="M146.4,123l5.6,12.3c0,0,1.4,3,4.4,4l5.8,5.3l7.7-6.7c0,0-2.8-3.6-5.6-5.1c-2.8-1.6-3.8-17-3.8-17L146.4,123z"
	/>
<path class="st8" d="M144.6,103.8c0,0,2.6,4.4-7.4,8.7c-4.1,1.8-6.9,3.5-8.7,4.7c-1.4,1-2.4,2.4-3,4c-0.5,1.6-0.6,3.3-0.1,4.9
	c0.2,0.8,0.6,1.5,1,2.2c2.4,3.6,2,5.3,2,5.3s8.7,3.2,11.5-2.2c0,0-3-3.2-2.2-5c0,0,3.4,0.8,10.9-2c3.3-1.2,6.6-2.8,9.6-4.6
	c1.2-0.7,2.2-1.7,3-2.8c0.8-1.2,1.3-2.5,1.4-3.8c0.5-3.4,0.5-8.2-1.9-11.4L144.6,103.8z"/>
<path class="st9" d="M161.1,101.9l-0.3,0c1.8,3.2,1.8,7.5,1.4,10.6c-0.2,1.4-0.7,2.7-1.4,3.8c-0.8,1.2-1.8,2.1-3,2.8
	c-3.1,1.8-6.3,3.4-9.6,4.6c-7.5,2.8-10.9,2-10.9,2c-0.8,1.8,2.2,5,2.2,5c-2.3,4.4-8.5,3.1-10.7,2.4c0,0.2,0,0.4,0,0.5
	c0,0,8.7,3.2,11.5-2.2c0,0-3-3.2-2.2-5c0,0,3.4,0.8,10.9-2c3.3-1.2,6.6-2.8,9.6-4.6c1.2-0.7,2.2-1.7,3-2.8c0.8-1.2,1.3-2.5,1.4-3.9
	C163.4,109.9,163.4,105.1,161.1,101.9z"/>
<path class="st10" d="M116.6,145.4c-2.4-2.2-14.3-4.4-14.3-4.4s-9.1,3-21.8,1.6c-12.7-1.4-31,6.7-31,6.7l7.3-36.7l0.2-1.1
	c0,0,4-31.5,9.1-36c5.2-4.6,10.1-16.4,10.1-16.4c9.3-9.7,22.4-2.6,22.4-2.6s0.1,0.2,0.2,0.5c1,2.8,5.7,15.9,4,24
	c-1.2,5.3-0.6,8.1,0,9.6c0.5,1.2,1,2.4,1.4,3.7c0.8,2.9,2.8,7.5,4.8,11.9c4.2,9.4,6.9,19.4,7.8,29.6
	C117.4,141.6,117.6,146.4,116.6,145.4z"/>
<path class="st11" d="M95.8,56.5c0,0-6.4-3.6-4.6-5c1.8-1.4,11.1-2,11.1-2l3.3,7.6L95.8,56.5z"/>
<path class="st12" d="M113.6,58.3c0,0-7.3,1.6-6.2,5.7c0,0,1.2,2.6,2.4,3.4c1.2,0.8-7.5,1.8-7.5,1.8l-5-4l0.7-5.4
	c0,0,0.3-8.6,5.1-8.6C107.9,51.1,113.6,58.3,113.6,58.3z"/>
<path class="st5" d="M145,71.2c3.7,0,6.7-3,6.7-6.7c0-3.7-3-6.7-6.7-6.7s-6.7,3-6.7,6.7C138.2,68.1,141.3,71.2,145,71.2z"/>
<path class="st13" d="M149.2,73.9c0,0,6-1,7.5,2.8c0.7,1.6,1.4,3.2,2,4.5c1.4,2.9,2.1,6,2.1,9.1c0,0.8,0,1.6-0.2,2.4
	c-0.6,2.6,1,10.7,1,10.7l-18.5,1.8c0.1-1,0.3-1.9,0.8-2.8c0.6-1.2-1.9-6.3-3.1-8.4c-0.4-0.7-0.7-1.4-0.9-2.2
	c-0.9-2.9-2.9-10.2-1.8-11.3c0,0,1.2-5.7,2.8-5.7C142.6,74.9,149.2,73.9,149.2,73.9z"/>
<path class="st8" d="M149.2,73.3c0,0,6-1,7.5,2.8c0.7,1.6,1.4,3.2,2,4.5c1.4,2.9,2.1,6,2.1,9.1c0,0.8,0,1.6-0.2,2.4
	c-0.6,2.6,1,10.7,1,10.7l-18.5,1.8c0.1-1,0.3-1.9,0.8-2.8c0.6-1.2-1.9-6.3-3.1-8.4c-0.4-0.7-0.7-1.4-0.9-2.2
	c-0.9-2.9-2.9-10.2-1.8-11.3c0,0,1.2-5.7,2.8-5.7C142.6,74.3,149.2,73.3,149.2,73.3z"/>
<path class="st8" d="M142.8,74.7c0,0-0.4-2.2,0.6-2.6c1-0.4,5-1,5-1s1.2,2.8,2.4,2.8S142.8,74.7,142.8,74.7z"/>
<path class="st9" d="M142.8,74.7c0,0-0.4-2.2,0.6-2.6c1-0.4,5-1,5-1s1.2,2.8,2.4,2.8S142.8,74.7,142.8,74.7z"/>
<path class="st13" d="M147.4,85.6c0,0-6.7-1.8-8.3-1.8c-1.6,0-4.8-0.4-4.8-0.4s-6.7-2.6-6.6-3.8c0.2-1.2-3.4-12.1-3.4-12.1
	s5.4-2,5.8-3c0,0,1.8,7.7,4.8,8.7c3,1,5.2,2.4,10.5,1.4c1-0.2,2.1-0.3,3.2-0.3c3.7-0.1,7,2.7,7.1,6.4
	C155.8,83.6,154.2,86.2,147.4,85.6z"/>
<path class="st8" d="M147.4,85c0,0-6.7-1.8-8.3-1.8c-1.6,0-4.8-0.4-4.8-0.4s-6.7-2.6-6.6-3.8c0.2-1.2-3.4-12.1-3.4-12.1s5.4-2,5.8-3
	c0,0,1.8,7.7,4.8,8.7c3,1,5.2,2.4,10.5,1.4c1-0.2,2.1-0.3,3.2-0.3c3.7-0.1,7,2.7,7.1,6.4C155.8,83,154.2,85.6,147.4,85z"/>
<path class="st9" d="M141.3,62.8c0.4,0.6,1,1.1,1.8,1.2c0.4,0,0.8-0.1,1.1,0.1c0.2,0.1,0.3,0.2,0.4,0.3c0.1,0.1,0.2,0.3,0.3,0.5
	c0.4,1.2,0,2.6,0.7,3.6c0.5,0.7,1.3,1,2.1,1.3c-0.7,0.4-0.8,1.4-0.4,2.1c0.4,0.7,1.1,1.1,1.8,1.4c1.1,0.4,2.2,0.6,3.3,0.8
	c0.4,0.1,0.8,0.1,1.1-0.1c0.4-0.3,0.4-0.9,0.2-1.3s-0.5-0.8-0.8-1.2c-0.2-0.3-0.3-0.5-0.4-0.8c-0.1-0.1-0.1-0.3-0.1-0.4
	c0.1-0.2,0.2-0.4,0.4-0.5c0.6-0.5,1.1-1.2,1.4-2c0.2-0.7,0.3-1.4,0.3-2.1c0.1-1.9,0.2-4-0.6-5.8c-0.3-0.6-0.7-1.1-1.2-1.5
	c-0.3-0.2-0.7-0.5-1.1-0.6c-1.5-0.7-3.1-1.5-4.7-1.9c-1.6-0.4-3.4-0.6-5-0.1c-0.5,0.1-0.9,0.3-1.3,0.7c-0.3,0.3-0.5,0.7-0.8,0.9
	c-0.4,0.4-1,0.6-1.5,1c-0.9,0.7-1.1,1.9-1.1,3c0,0.5,0.2,1.1,0.7,1.1c0.8,0.1,1.1-1.2,1.9-1.4C140.8,60.9,140.9,62.2,141.3,62.8z"/>
<path class="st14" d="M141.3,62.4c0.4,0.6,1,1.1,1.8,1.2c0.4,0,0.8-0.1,1.1,0.1c0.2,0.1,0.3,0.2,0.4,0.3c0.1,0.1,0.2,0.3,0.3,0.5
	c0.4,1.2,0,2.6,0.7,3.6c0.5,0.7,1.3,1,2.1,1.3c-0.7,0.4-0.8,1.4-0.4,2.1c0.4,0.7,1.1,1.1,1.8,1.4c1.1,0.4,2.2,0.6,3.3,0.8
	c0.4,0.1,0.8,0.1,1.1-0.1c0.4-0.3,0.4-0.9,0.2-1.3c-0.2-0.4-0.5-0.8-0.8-1.2c-0.2-0.3-0.3-0.5-0.4-0.8c-0.1-0.1-0.1-0.3-0.1-0.4
	c0.1-0.2,0.2-0.4,0.4-0.5c0.6-0.5,1.1-1.2,1.4-2c0.2-0.7,0.3-1.4,0.3-2.1c0.1-1.9,0.2-4-0.6-5.8c-0.3-0.6-0.7-1.1-1.2-1.5
	c-0.3-0.2-0.7-0.5-1.1-0.6c-1.5-0.7-3.1-1.5-4.7-1.9c-1.6-0.4-3.4-0.6-5-0.1c-0.5,0.1-0.9,0.3-1.3,0.7c-0.3,0.3-0.5,0.7-0.8,0.9
	c-0.4,0.4-1,0.6-1.5,1c-0.9,0.7-1.1,1.9-1.1,3c0,0.5,0.2,1.1,0.7,1.1c0.8,0.1,1.1-1.2,1.9-1.4C140.8,60.5,140.9,61.8,141.3,62.4z"/>
<path class="st13" d="M165,139.9c0,0-2.8,3-5.4,3.2l10.5,7.1c0,0,0.6,4.5-2.4,4.5c-3,0-2.8,2.2-2.8,2.2h14.5c0,0,1.8-3.2,0.4-5
	c-1.4-1.8-4.6-5.5-4.6-5.5s-5.2-6.9-6.2-10.7C169.2,135.7,167.1,138.4,165,139.9z"/>
<path class="st15" d="M165.2,140.3c0,0-2.8,3-5.4,3.2l10.5,7.1c0,0,0.6,4.5-2.4,4.5c-3,0-2.8,2.2-2.8,2.2h14.5c0,0,1.8-3.2,0.4-5
	c-1.4-1.8-4.6-5.5-4.6-5.5s-5.2-6.9-6.2-10.7C169.4,136.1,167.3,138.8,165.2,140.3z"/>
<path class="st7" d="M90.6,98.3l18.5,21.8c0,0,2.4,7.5-3.4,10.1l-2.4,2.8l-9.7-3.8c0,0,3.2-1,0-6.7c-3.2-5.7-9.1-11.5-9.1-11.5
	l-4.2-1l-10.5,17c0,0-1.2,7.5-6,8.5l-4.2,2l-5.8-4.5l13.3-28.3c0,0-2-13.9,3.6-15.6L90.6,98.3z"/>
<path class="st9" d="M105.1,67.5c0.9,0.3,1.6,0.9,3.5-0.7c0,0,5,5.5,3.2,9.1c-1.8,3.6-19.8,24.8-19.8,24.8l-24.2-9.1
	c0,0,7.5-9.9,6.4-14.1C73,73.3,82.9,58.7,90,59.7c7.1,1,8.9,1.6,8.9,1.6s1,5.4,4.7,5.9C104.2,67.2,104.7,67.3,105.1,67.5z"/>
<path class="st7" d="M105.1,66.9c0.9,0.3,1.6,0.9,3.5-0.7c0,0,5,5.5,3.2,9.1c-1.8,3.6-19.8,24.8-19.8,24.8L67.8,91
	c0,0,7.5-9.9,6.4-14.1C73,72.7,82.9,58.1,90,59.1c7.1,1,8.9,1.6,8.9,1.6s1,5.4,4.7,5.9C104.2,66.6,104.7,66.7,105.1,66.9z"/>
<path class="st7" d="M80.1,63c0,0,1.6,18,18.9,20.2l6.4-7.7c0,0-9.9-5-9.9-6.3c0,0-3.8-3-2.6-7.9L80.1,63z"/>
<path class="st9" d="M108.7,66.6c0,0,8.3,4.4,7.3,10.5c0,0-4-2.6-6.2-2L108.7,66.6z"/>
<path class="st16" d="M108.7,66.2c0,0,8.3,4.4,7.3,10.5c0,0-4-2.6-6.2-2L108.7,66.2z"/>
<path class="st9" d="M110.9,124.8c0,0-9.9,11.3-9.9,12.9c0,0-5.8,7.9-3,12.5c2.8,4.6,8.3,5.3,8.3,5.3s3,2.2-1.8,3.2
	c-4.8,1-19.8-2.4-19.8-2.4l3.2-8.1c0,0,3.4-10.3,3.4-12.5s2.8-9.1,2.8-9.1l10.1,3.2l3.2-4.2l2.3-2L110.9,124.8z"/>
<path class="st12" d="M110.9,125.2c0,0-9.9,11.3-9.9,12.9c0,0-5.8,7.9-3,12.5c2.8,4.6,8.3,5.3,8.3,5.3s3,2.2-1.8,3.2
	c-4.8,1-19.8-2.4-19.8-2.4l3.2-8.1c0,0,3.4-10.3,3.4-12.5S94,127,94,127l10.1,3.2l3.2-4.1l2.3-2L110.9,125.2z"/>
<path class="st9" d="M71.6,130c0,0-9.9,11.3-9.9,12.9c0,0-5.8,7.9-3,12.5c2.8,4.6,8.3,5.3,8.3,5.3s3,2.2-1.8,3.2s-19.8-2.4-19.8-2.4
	l3.2-8.1c0,0,3.4-10.3,3.4-12.5c0-2.2,2.8-9.1,2.8-9.1l10.1,3.2l3.2-4.2l2.3-2L71.6,130z"/>
<path class="st12" d="M71.6,130.4c0,0-9.9,11.3-9.9,12.9c0,0-5.8,7.9-3,12.5c2.8,4.6,8.3,5.3,8.3,5.3s3,2.2-1.8,3.2
	c-4.8,1-19.8-2.4-19.8-2.4l3.2-8.1c0,0,3.4-10.3,3.4-12.5c0-2.2,2.8-9.1,2.8-9.1l10.1,3.2l3.2-4.2l2.3-2L71.6,130.4z"/>
<path class="st17" d="M122.6,76.1l36.9-58.8c0,0,2.8-0.6,2.4,1.8l-37.5,59L122.6,76.1z"/>
<path class="st9" d="M95.4,61l-0.6,3.8c0,0-10.3-7.3-14.9,3l-2-8.3C77.9,59.5,91.6,55.1,95.4,61z"/>
<path class="st16" d="M95.4,60.7l-0.6,3.8c0,0-10.3-7.3-14.9,3l-2-8.3C77.9,59.1,91.6,54.7,95.4,60.7z"/>
<path class="st9" d="M98.9,57.4V61l-3.6,1.8C87.6,56.1,79.9,61,79.9,61s-11.3,18-13.3,19.6c-2,1.6-9.7,32.4-9.7,32.4l0.2-1.1
	c0,0,4-31.5,9.1-36c5.2-4.5,10.1-16.4,10.1-16.4c9.3-9.7,22.4-2.6,22.4-2.6S98.8,57.1,98.9,57.4z"/>
<path class="st7" d="M98.9,57v3.6l-3.6,1.8c-7.7-6.7-15.5-1.8-15.5-1.8s-11.3,18-13.3,19.6c-2,1.6-9.7,32.4-9.7,32.4l0.2-1.1
	c0,0,4-31.5,9.1-36.1c5.2-4.6,10.1-16.4,10.1-16.4c9.3-9.7,22.4-2.6,22.4-2.6S98.8,56.7,98.9,57z"/>
<path class="st9" d="M102.9,51.5c-1.3,0-2.5,0.6-3.5,1.4c0.3,2.2,1.4,4.2,3,5.6c1.6,1.5,3.7,2.3,5.9,2.4c1.8-1.7,5-2.4,5-2.4
	S107.7,51.5,102.9,51.5z"/>
<path class="st12" d="M109.1,60.7c5.3,0,9.5-4.3,9.5-9.5s-4.3-9.5-9.5-9.5c-5.3,0-9.5,4.3-9.5,9.5S103.8,60.7,109.1,60.7z"/>
<path class="st9" d="M114.8,40.3c0,0-7.5-4.5-11.7,1.6c-4.2,6.1-3.8,4.4-3.8,4.4l-8.1,5.7c0,0,6.7,0,10.9,1.6c0,0,12.5-7.3,14.7-2.6
	c0,0,2.4,1,2.6,2.6c0,0,0.6-1-0.6-3.2C118.8,50.4,121.2,44.6,114.8,40.3z"/>
<path class="st12" d="M114.8,39.9c0,0-7.5-4.5-11.7,1.6c-4.2,6.1-3.8,4.4-3.8,4.4l-8.1,5.7c0,0,6.7,0,10.9,1.6
	c0,0,12.5-7.3,14.7-2.6c0,0,2.4,1,2.6,2.6c0,0,0.6-1-0.6-3.2C118.8,50,121.2,44.2,114.8,39.9z"/>
<path class="st4" d="M122.6,75.1l-18.9,24.8l3.7,2.5l18.1-25.1L122.6,75.1z"/>
<path class="st9" d="M103.3,73.7c0,0-6.2,5.5-5.8,12.1c0,0,4.6-1.6,10.9,0.8c6.4,2.4,7.7,3.6,7.7,3.6s6.6-3.4,6-5.7
	c-0.6-2.4-3.4-3.4-3.4-3.4l-5.6-1.2C113.2,79.9,104.1,75.3,103.3,73.7z"/>
<path class="st16" d="M103.7,73.7c0,0-6.2,5.5-5.8,12.1c0,0,4.6-1.6,10.9,0.8c6.4,2.4,7.7,3.6,7.7,3.6s6.6-3.4,6-5.7
	c-0.6-2.4-3.4-3.4-3.4-3.4l-5.6-1.2C113.6,79.9,104.5,75.3,103.7,73.7z"/>
<path class="st9" d="M117,91.6c0,0,1.6,10.1-7.1,8.1c0,0-5.2-4.8-2-8.1C111.1,88.2,117,91.2,117,91.6z"/>
<path class="st16" d="M117.4,91.6c0,0,1.6,10.1-7.1,8.1c0,0-5.2-4.8-2-8.1C111.4,88.2,117.4,91.2,117.4,91.6z"/>
<path class="st9" d="M159.8,92.7c0,0-0.2,3.2-1.6,4c-1.4,0.8-5.4,1.4-5.4,1.8c0,0.4-1.6,2.2-2,1.6"/>
<path class="st13" d="M131.1,132.8c-1.2,0-2.4,0-3.6-0.1c0,0,8.3,16.6,6.5,19c0,0-0.8,3.6-4.2,3.6c-3.4,0-1.6,1.8-0.4,2
	c1.2,0.2,11.7,1,13.9-2l-1.4-4.8c0,0-1.8-5.7-1.2-7.1c0.6-1.4-0.4-13.1-0.4-13.1l-2.7,1.1C135.6,132.3,133.4,132.8,131.1,132.8z"/>
<path class="st15" d="M131.1,133.4c-1.2,0-2.4,0-3.6-0.1c0,0,8.3,16.6,6.5,19c0,0-0.8,3.6-4.2,3.6c-3.4,0-1.6,1.8-0.4,2
	c1.2,0.2,11.7,1,13.9-2l-1.4-4.8c0,0-1.8-5.7-1.2-7.1s-0.4-13.1-0.4-13.1l-2.7,1.1C135.6,132.9,133.4,133.4,131.1,133.4z"/>
<path class="st18" d="M114.5,9.9c-0.1-0.1-0.2-0.2-0.3-0.3c-0.1-0.1-0.1-0.3,0-0.4c0,0,0,0,0-0.1c0-0.1,0-0.1-0.1-0.2
	c0-0.1-0.1-0.1-0.1-0.1c-0.1,0-0.1,0-0.2,0c-0.1,0-0.1,0.1-0.2,0.1c0,0,0,0,0,0.1c-0.1,0.1-0.2,0.2-0.3,0.3c-0.1,0.1-0.3,0.1-0.4,0
	c0,0,0,0-0.1,0c-0.1,0-0.1,0-0.2,0c-0.1,0-0.1,0.1-0.1,0.1c0,0.1,0,0.1,0,0.2c0,0.1,0.1,0.1,0.1,0.2c0,0,0,0,0.1,0
	c0.1,0.1,0.2,0.2,0.3,0.3c0.1,0.1,0.1,0.3,0,0.4c0,0,0,0,0,0.1c0,0.1,0,0.1,0,0.2c0,0.1,0.1,0.1,0.2,0.1c0.1,0,0.1,0,0.2,0
	c0.1,0,0.1-0.1,0.2-0.1c0,0,0,0,0-0.1c0.1-0.1,0.2-0.2,0.3-0.3c0.1-0.1,0.3-0.1,0.4,0c0,0,0,0,0.1,0c0.1,0,0.1,0,0.2,0
	c0.1,0,0.1-0.1,0.1-0.1c0-0.1,0-0.1,0-0.2C114.7,10.1,114.6,10,114.5,9.9C114.6,10,114.6,10,114.5,9.9z"/>
<path class="st18" d="M197.6,33.6c0.5,0,1-0.4,1-1c0-0.5-0.4-1-1-1c-0.5,0-1,0.4-1,1C196.6,33.2,197,33.6,197.6,33.6z"/>
<path class="st18" d="M45.6,73.5h-0.5v2.8h0.5V73.5z"/>
<path class="st18" d="M46.7,75.1v-0.5H44v0.5H46.7z"/>
<path class="st18" d="M204.2,4.8h-0.5v2.8h0.5V4.8z"/>
<path class="st18" d="M205.4,6.4V6h-2.8v0.5H205.4z"/>
<path class="st18" d="M76.8,27.5h-0.5v2.8h0.5V27.5z"/>
<path class="st18" d="M77.9,29.2v-0.5h-2.8v0.5H77.9z"/>
<path class="st18" d="M138.1,2.4h-0.5v2.8h0.5V2.4z"/>
<path class="st18" d="M139.2,4V3.6h-2.8V4H139.2z"/>
<path class="st18" d="M209.3,50.3h-0.5V53h0.5V50.3z"/>
<path class="st18" d="M210.4,51.9v-0.5h-2.8v0.5H210.4z"/>
<path class="st18" d="M65.5,0.6c-0.1-0.1-0.2-0.2-0.3-0.3s-0.1-0.3,0-0.4c0,0,0,0,0-0.1c0-0.1,0-0.1,0-0.2c0-0.1-0.1-0.1-0.1-0.1
	c-0.1,0-0.1,0-0.2,0c-0.1,0-0.1,0.1-0.2,0.1c0,0,0,0,0,0.1c-0.1,0.1-0.2,0.2-0.3,0.3C64.2,0,64.1,0,63.9,0c0,0,0,0-0.1,0
	c-0.1,0-0.1,0-0.2,0c-0.1,0-0.1,0.1-0.1,0.1c0,0.1,0,0.1,0,0.2c0,0.1,0.1,0.1,0.1,0.2c0,0,0,0,0.1,0C63.9,0.6,64,0.7,64,0.9
	c0.1,0.1,0.1,0.3,0,0.4c0,0,0,0,0,0.1c0,0.1,0,0.1,0,0.2s0.1,0.1,0.1,0.1c0.1,0,0.1,0,0.2,0c0.1,0,0.1-0.1,0.2-0.1c0,0,0,0,0-0.1
	c0.1-0.1,0.2-0.2,0.3-0.3s0.3-0.1,0.4,0c0,0,0,0,0.1,0c0.1,0,0.1,0,0.2,0c0.1,0,0.1-0.1,0.1-0.1c0-0.1,0-0.1,0-0.2
	C65.7,0.7,65.7,0.7,65.5,0.6C65.6,0.6,65.6,0.6,65.5,0.6z"/>
<path class="st18" d="M43,43.2c-0.1-0.1-0.2-0.2-0.3-0.3c-0.1-0.1-0.1-0.3,0-0.4c0,0,0,0,0-0.1c0-0.1,0-0.1,0-0.2
	c0-0.1-0.1-0.1-0.1-0.1c-0.1,0-0.1,0-0.2,0c-0.1,0-0.1,0.1-0.2,0.1c0,0,0,0,0,0.1c-0.1,0.1-0.2,0.2-0.3,0.3c-0.1,0.1-0.3,0.1-0.4,0
	c0,0,0,0-0.1,0c-0.1,0-0.1,0-0.2,0c-0.1,0-0.1,0.1-0.1,0.1c0,0.1,0,0.1,0,0.2c0,0.1,0.1,0.1,0.1,0.2c0,0,0,0,0.1,0
	c0.1,0.1,0.2,0.2,0.3,0.3c0.1,0.1,0.1,0.3,0,0.4c0,0,0,0,0,0.1c0,0.1,0,0.1,0,0.2c0,0.1,0.1,0.1,0.1,0.1c0.1,0,0.1,0,0.2,0
	c0.1,0,0.1-0.1,0.2-0.1c0,0,0,0,0-0.1c0.1-0.1,0.2-0.2,0.3-0.3c0.1-0.1,0.3-0.1,0.4,0c0,0,0,0,0.1,0c0.1,0,0.1,0,0.2,0
	c0.1,0,0.1-0.1,0.1-0.1c0-0.1,0-0.1,0-0.2C43.1,43.4,43.1,43.3,43,43.2C43,43.3,43,43.2,43,43.2z"/>
<path class="st18" d="M18,39.1c0.5,0,1-0.4,1-1c0-0.5-0.4-1-1-1s-1,0.4-1,1C17,38.7,17.4,39.1,18,39.1z"/>
<path class="st18" d="M33,8.1c0.5,0,1-0.4,1-1s-0.4-1-1-1s-1,0.4-1,1S32.5,8.1,33,8.1z"/>
<path class="st18" d="M201.7,75c0.5,0,1-0.4,1-1c0-0.5-0.4-1-1-1c-0.5,0-1,0.4-1,1C200.8,74.6,201.2,75,201.7,75z"/>
</svg>
