<?xml version="1.0" encoding="utf-8"?>
<!-- Generator: Adobe Illustrator 23.0.5, SVG Export Plug-In . SVG Version: 6.00 Build 0)  -->
<svg version="1.1" id="Capa_1" xmlns="http://www.w3.org/2000/svg" xmlns:xlink="http://www.w3.org/1999/xlink" x="0px" y="0px"
	 viewBox="0 0 130 188.2" style="enable-background:new 0 0 130 188.2;" xml:space="preserve">
<style type="text/css">
	.st0{clip-path:url(#SVGID_2_);}
	.st1{fill:#3F3D56;}
	.st2{opacity:0.1;enable-background:new    ;}
	.st3{fill:#FF6347;}
</style>
<g>
	<defs>
		<rect id="SVGID_1_" x="-158.9" width="331" height="318"/>
	</defs>
	<clipPath id="SVGID_2_">
		<use xlink:href="#SVGID_1_"  style="overflow:visible;"/>
	</clipPath>
	<g class="st0">
		<path class="st1" d="M97.8,89c0,0-2.5,7.7-6.4,18.9c-1.3,3.6-2.7,7.6-4.2,11.8c-2.1,5.8-4.5,12-6.9,18.3
			c-1.5,3.8-3.1,7.7-4.6,11.4c-8.4,20-17.4,37.4-23.2,37.6C39.2,187.5,11,99.6,7.9,89.9C7.7,89.3,7.6,89,7.6,89H97.8z"/>
		<path class="st2" d="M91.4,107.9c-1.3,3.6-2.7,7.6-4.2,11.8L52.2,89h17.6L91.4,107.9z"/>
		<path class="st2" d="M80.3,137.9c-1.5,3.8-3.1,7.7-4.6,11.4L7.9,89.9C7.7,89.3,7.6,89,7.6,89h16.9L80.3,137.9z"/>
		<path class="st3" d="M54.3,11.1c-4.1,3.3-10.7,2-14.6,5.5c-2.7,2.4-3.4,6.4-2.7,9.9c0.7,3.5,2.7,6.6,4.7,9.6
			c1.4,2.1,2.8,4.2,4.7,5.7c2.7,2.2,6.1,3.2,9.5,4.1c7.4,1.8,14.9,2.9,22.5,3.2c3.4,0.2,7.2,0,9.5-2.5c1.3-1.5,1.9-3.4,2.2-5.4
			c0.6-3,0.9-6.2-0.3-9c-1-2.3-3-4-5-5.6C78.4,21.9,70.9,18,67.1,11c-1.5-2.7-2.5-5.9-4.8-8.1c-3-2.8-9.7-3.9-13.3-2.1
			C49.5,2.2,56.7,9.2,54.3,11.1z"/>
		<path class="st3" d="M19.5,43.5c-1.2,4.2-2.4,8.7-1.3,13c1.4,5.7,6.3,9.9,11.8,11.9c5.5,2.1,11.4,2.3,17.2,2.5l30.5,1.1
			c3.8,0.1,7.7,0.3,11.3,1.6c3,1.1,6.5,2.9,9,0.9c1.1-0.9,1.6-2.3,2-3.7c1.3-4.5,2-9.4,0.3-13.7c-2-4.9-6.9-8.2-12-9.7
			c-5.1-1.6-10.5-1.7-15.9-2.3c-5.4-0.6-10.7-1.6-15.9-3.1c-4.4-1.3-8.8-2.9-12-6.1c-1.7-1.7-3.1-3.8-4.7-5.6
			C30.4,20,21.8,35.5,19.5,43.5z"/>
		<path class="st3" d="M12.8,63c-3,1.3-5.5,3.4-7.5,6c-1.9,2.6-3.2,5.7-3.6,8.9c-0.4,3.2,0,6.5,1.3,9.5c1.2,3,3.2,5.6,5.8,7.6
			c4.6,3.6,10.7,4.9,16.6,5.3c5.8,0.4,11.5,0.1,17.3-0.2l51-2.5c3-0.1,6.4-0.5,8.2-2.9c1.4-1.8,1.4-4.2,1.1-6.4
			c-1.2-7.9-7.2-14.9-14.8-17.3c-2.9-0.9-5.9-1.2-8.9-1.5l-21.8-2c-2.9-0.3-5.9-0.6-8.8-1.3C40,63.9,32.3,57,23.4,58.1
			c-6,0.7-11,4.9-15.4,9.1"/>
		<path class="st2" d="M41.3,28.7c0,0,7.1,12.8,43.7,18L41.3,28.7z"/>
		<path class="st2" d="M21.1,62.3c0,0,13.2,13.4,67.9,13.4L21.1,62.3z"/>
		<path class="st1" d="M51.8,22.3c1.9,0,3.5-0.5,3.5-1.2c0-0.6-1.6-1.2-3.5-1.2c-1.9,0-3.5,0.5-3.5,1.2
			C48.3,21.8,49.9,22.3,51.8,22.3z"/>
		<path class="st1" d="M63.5,29.9c1.9,0,3.5-0.5,3.5-1.2s-1.6-1.2-3.5-1.2c-1.9,0-3.5,0.5-3.5,1.2S61.5,29.9,63.5,29.9z"/>
		<path class="st1" d="M76.8,38c1.9,0,3.5-0.5,3.5-1.2c0-0.6-1.6-1.2-3.5-1.2c-1.9,0-3.5,0.5-3.5,1.2C73.3,37.5,74.9,38,76.8,38z"/>
		<path class="st1" d="M30.3,41.5c1.9,0,3.5-0.5,3.5-1.2c0-0.6-1.6-1.2-3.5-1.2s-3.5,0.5-3.5,1.2C26.8,40.9,28.4,41.5,30.3,41.5z"/>
		<path class="st1" d="M60,52.5c1.9,0,3.5-0.5,3.5-1.2c0-0.6-1.6-1.2-3.5-1.2c-1.9,0-3.5,0.5-3.5,1.2C56.5,52,58,52.5,60,52.5z"/>
		<path class="st1" d="M18.1,75.1c1.9,0,3.5-0.5,3.5-1.2c0-0.6-1.6-1.2-3.5-1.2c-1.9,0-3.5,0.5-3.5,1.2
			C14.6,74.6,16.1,75.1,18.1,75.1z"/>
		<path class="st1" d="M40.2,53.6c1.9,0,3.5-0.5,3.5-1.2s-1.6-1.2-3.5-1.2c-1.9,0-3.5,0.5-3.5,1.2S38.3,53.6,40.2,53.6z"/>
		<path class="st1" d="M26.8,83.8c1.9,0,3.5-0.5,3.5-1.2c0-0.6-1.6-1.2-3.5-1.2c-1.9,0-3.5,0.5-3.5,1.2
			C23.3,83.2,24.9,83.8,26.8,83.8z"/>
		<path class="st1" d="M49.5,78.6c1.9,0,3.5-0.5,3.5-1.2c0-0.6-1.6-1.2-3.5-1.2c-1.9,0-3.5,0.5-3.5,1.2C46,78,47.6,78.6,49.5,78.6z"
			/>
		<path class="st3" d="M63.2,106.4c2.1,0,3.8-3.5,3.8-7.8c0-4.3-1.7-7.8-3.8-7.8c-2.1,0-3.8,3.5-3.8,7.8
			C59.4,102.9,61.1,106.4,63.2,106.4z"/>
		<path class="st3" d="M67.8,109.3c2.1,0,3.8-3.5,3.8-7.8c0-4.3-1.7-7.8-3.8-7.8c-2.1,0-3.8,3.5-3.8,7.8
			C64,105.8,65.7,109.3,67.8,109.3z"/>
		<path class="st1" d="M60.1,176.9c0-0.2,0.8-3.9,4.9-9.3c3.8-5,11.2-12.3,25.1-19.3c26.3-13.2,32.2-38.1,32.3-38.3l0.7,0.2
			c0,0.1-1.5,6.4-6.2,14.3c-6.3,10.5-15.5,19-26.4,24.5c-26.3,13.2-29.6,27.9-29.6,28.1L60.1,176.9z"/>
		<path class="st3" d="M123.7,107.3c2.6,0,4.7-2.1,4.7-4.7c0-2.6-2.1-4.7-4.7-4.7c-2.6,0-4.7,2.1-4.7,4.7
			C119,105.3,121.1,107.3,123.7,107.3z"/>
		<path class="st1" d="M122.7,130c2.6,0,4.7-2.1,4.7-4.7c0-2.6-2.1-4.7-4.7-4.7s-4.7,2.1-4.7,4.7C118,127.9,120.1,130,122.7,130z"/>
		<path class="st3" d="M107.5,131.6c2.6,0,4.7-2.1,4.7-4.7c0-2.6-2.1-4.7-4.7-4.7c-2.6,0-4.7,2.1-4.7,4.7
			C102.8,129.5,104.9,131.6,107.5,131.6z"/>
		<path class="st3" d="M109.9,147c2.6,0,4.7-2.1,4.7-4.7c0-2.6-2.1-4.7-4.7-4.7c-2.6,0-4.7,2.1-4.7,4.7
			C105.2,144.9,107.3,147,109.9,147z"/>
		<path class="st1" d="M87.9,147.3c2.6,0,4.7-2.1,4.7-4.7c0-2.6-2.1-4.7-4.7-4.7s-4.7,2.1-4.7,4.7C83.2,145.2,85.3,147.3,87.9,147.3
			z"/>
		<path class="st1" d="M62,178.9c0,0,4.4-11.6,20.6-8.4L62,178.9z"/>
	</g>
</g>
</svg>
