<?xml version="1.0" encoding="utf-8"?>
<!-- Generator: Adobe Illustrator 23.0.5, SVG Export Plug-In . SVG Version: 6.00 Build 0)  -->
<svg version="1.1" id="Capa_1" xmlns="http://www.w3.org/2000/svg" xmlns:xlink="http://www.w3.org/1999/xlink" x="0px" y="0px"
	 viewBox="0 0 286 181" style="enable-background:new 0 0 286 181;" xml:space="preserve">
<style type="text/css">
	.st0{fill:#3F3D56;fill-opacity:0.4;}
	.st1{fill:#FFB8B8;}
	.st2{fill:#5877AB;}
	.st3{fill:#3F3D56;}
	.st4{fill:#FFC1C8;}
	.st5{opacity:0.3;fill:#FFFFFF;enable-background:new    ;}
	.st6{fill:#474463;}
	.st7{fill:#FFC107;}
	.st8{opacity:0.1;enable-background:new    ;}
	.st9{fill:#575988;}
	.st10{fill:#DCE6F2;}
	.st11{fill:#794F6A;}
</style>
<path class="st0" d="M231,167.8H0v0.5h231V167.8z"/>
<path class="st1" d="M175.1,9.9c0.6,0,1-0.6,1-1.3c0-0.7-0.5-1.3-1-1.3c-0.6,0-1,0.6-1,1.3C174.1,9.3,174.5,9.9,175.1,9.9z"/>
<path class="st2" d="M42.8,71.4H10.9v-9h16.7L42.8,71.4z"/>
<path class="st3" d="M10.8,70.2v26.2h103.7V70.2H10.8z M51.2,92H17.5v-3.7h33.7V92z M107.8,85.1H17.5v-3.7h90.2V85.1z M107.8,78.3
	H17.5v-3.7h90.2V78.3z"/>
<path class="st2" d="M42.8,29H10.9v-9h16.7L42.8,29z"/>
<path class="st3" d="M10.8,28.3v26.2h103.7V28.3H10.8z M51.2,50.1H17.5v-3.7h33.7V50.1z M70.7,43.3H17.5v-3.7h53.2V43.3z
	 M107.8,36.4H17.5v-3.7h90.2V36.4z"/>
<path class="st2" d="M42.8,112.9H10.9v-9h16.7L42.8,112.9z"/>
<path class="st3" d="M10.8,111.2v26.2h103.7v-26.2H10.8z M70.7,133H17.5v-3.7h53.2V133z M70.7,126.1H17.5v-3.7h53.2V126.1z
	 M107.8,119.2H17.5v-3.7h90.2V119.2z"/>
<path class="st3" d="M143.9,48.7h-14.7V34h10v0.4h-9.7v14.1h14v-7h0.4V48.7z"/>
<path class="st2" d="M136.5,44.9c-0.3-1-4.6-4.4-2-5l2.1,2.9l9.9-9.9l1,1L136.5,44.9z"/>
<path class="st3" d="M143.9,90.6h-14.7V75.8h10v0.4h-9.7v14.1h14v-7h0.4V90.6z"/>
<path class="st2" d="M136.5,86.7c-0.3-1-4.6-4.4-2-5l2.1,2.9l9.9-9.9l1,1L136.5,86.7z"/>
<path class="st3" d="M143.9,132.3h-14.7v-14.8h10v0.4h-9.7v14.1h14v-7h0.4V132.3z"/>
<path class="st2" d="M136.5,128.4c-0.3-1-4.6-4.4-2-5l2.1,2.9l9.9-9.9l1,1L136.5,128.4z"/>
<path class="st4" d="M193.3,43.2c0,0-11.5,14.1-11,10.2c0.3-2.5-1.3-5.5-2.5-7.4c-0.7-1.1-1.3-1.9-1.3-1.9s7-12.9,7.4-11.1
	c0.1,0.6,0.9,1.8,2,3.3C190.1,39.2,193.3,43.2,193.3,43.2z"/>
<path class="st5" d="M214.5,160.3v1.4c0,0-10.6-3.7-16.4-7.6c-2.4-1.6-3.1-3.1-3-4.3c3.2,1.6,9.2,4.7,11,6.2
	C207.7,157.1,211.6,159,214.5,160.3z"/>
<path class="st6" d="M212,165.5c1.8,0,3.2-1.5,3.2-3.2c0-1.8-1.4-3.2-3.2-3.2c-1.8,0-3.2,1.5-3.2,3.2
	C208.7,164.1,210.2,165.5,212,165.5z"/>
<path class="st6" d="M178.9,161c1.8,0,3.2-1.5,3.2-3.2s-1.5-3.2-3.2-3.2s-3.2,1.5-3.2,3.2S177.1,161,178.9,161z"/>
<path class="st7" d="M226.9,158.9c0,0.2-0.1,0.5-0.2,0.7l-1.9,2.1l-27-0.4l-7.3-0.1c0,0-15.3-2.8-18.3-4.1c-3-1.3-14.7-3.7-14.7-3.7
	s-7.1-1.2-8.1-4.6c-0.4-1.2-0.2-2,0.2-2.6c0.8-1.2,2.3-1.4,2.3-1.4c3.2-0.9,6.6-0.8,9.7,0.4l45.3,11.7l0.7,0.2
	c0,0,16.1-0.3,16.5-0.2C226.6,157.1,227,158.2,226.9,158.9z"/>
<path class="st5" d="M226.9,158.9c-2.7-0.4-7.5-0.9-8.7-0.4c0,0-8.6-1.1-20.5,2.7l-7.3-0.1c0,0-15.3-2.8-18.3-4.1
	c-3-1.3-14.7-3.7-14.7-3.7s-7.1-1.2-8.1-4.6c-0.4-1.2-0.2-2,0.2-2.6c0.5,1.4,1.4,3.5,2.9,4c2.3,0.9,11.9,2.7,11.9,2.7l19,4.7
	c0,0,11,2.4,15.2,0.8c1.7-0.6,5-1.2,8.3-1.6l0.7,0.2c0,0,16.1-0.3,16.5-0.2C226.6,157.1,227,158.2,226.9,158.9z"/>
<path class="st6" d="M200.7,155.4c0,0.4-0.1,0.8-0.2,1.2c0,0-10.7,0.4-16.3-0.4c-1.5-0.2-2.4-0.7-2.9-1.3c-0.2-0.3-0.3-0.6-0.3-0.9
	c0-0.3,0-0.7,0.1-1c0.1-0.2,0.1-0.4,0.2-0.5c0.4-0.7,1.1-1.2,1.4-1.2c1,0.2,2.6-1.8,2.6-1.8c-0.1-1.2,1.8-1.7,2.1-1.5
	c0.1,0,0.1,0.1,0.2,0.1c0.1,0,0.1,0,0.2,0c0.1,0,0.1-0.1,0.2-0.1c0-0.1,0.1-0.1,0.1-0.2c0-0.1,0-0.5,0-1c0-0.9,0-1.9,0-1.9L199,146
	l0.4,2.1c0.4,1.8,0.9,4.4,1.2,5.2C200.7,154,200.8,154.7,200.7,155.4z"/>
<path class="st8" d="M200.7,155.4c0,0.4-0.1,0.8-0.2,1.2c0,0-10.7,0.4-16.3-0.4c-1.5-0.2-2.4-0.7-2.9-1.3c1.4-0.1,3.3-0.1,4.5,0.1
	C187.5,155.4,197.3,155.4,200.7,155.4z"/>
<path class="st6" d="M181.4,152.4c0,0.1,0,0.2,0,0.3c0,0.1-0.1,0.2-0.2,0.2c-1.4,1.1-7.9-0.1-7.9-0.1S160,152,158,150.6
	c-0.2-0.1-0.3-0.3-0.4-0.5c-0.8-1.5,2.2-4,2.4-4c0.3,0,3.8-0.5,4.1-0.5c1.7-0.3,3.3-1.4,3.6-1.1c0.3,0.3,1.7-0.4,2.3-0.5
	c0.2,0,0.4-0.4,0.4-0.8c0-0.6,0-1.2-0.1-1.8l10.6,2.9l0.1,1.7l0.3,5.7L181.4,152.4C181.4,152.3,181.4,152.3,181.4,152.4z"/>
<path class="st8" d="M173.3,152.8c0,0-13.3-0.8-15.3-2.2c-0.2-0.1-0.3-0.3-0.4-0.5c2.7,0.2,7.2,0.6,8,0.8c1.2,0.3,7.7,0.7,7.7,0.7
	h8.1l0,0.7C181.8,154.3,173.3,152.8,173.3,152.8z"/>
<path class="st6" d="M162.7,161c1.8,0,3.2-1.5,3.2-3.2s-1.5-3.2-3.2-3.2s-3.2,1.5-3.2,3.2S160.9,161,162.7,161z"/>
<path class="st6" d="M197.9,167.7c1.8,0,3.2-1.5,3.2-3.2c0-1.8-1.4-3.2-3.2-3.2s-3.2,1.5-3.2,3.2
	C194.6,166.3,196.1,167.7,197.9,167.7z"/>
<path class="st4" d="M176.7,54.7c0,0-8.1,0.7-9.6,1.2c-1.6,0.5-8.3,0.2-8.8,0c-0.6-0.2-12.1,2.4-6.8,5.1c5.2,2.6,8.6,0,8.6,0
	s6.8-0.4,8.6,0.7c1.8,1.1,8.2,0.5,8.2,0.5L176.7,54.7z"/>
<path class="st8" d="M187.9,36.2c-0.1,0.4-0.6,0.5-0.8,0.9c-1.1,3.9-3.5,7.4-7.3,8.9c-0.7-1.1-1.3-1.9-1.3-1.9s7-12.9,7.4-11.1
	C186,33.5,186.8,34.7,187.9,36.2z"/>
<path class="st4" d="M188.1,33.5c0,2.5-0.8,5-2.2,7.1c-1.4,2.1-3.4,3.8-5.8,4.7c-2.3,1-4.9,1.2-7.4,0.7c-2.5-0.5-4.8-1.7-6.6-3.5
	c-1.8-1.8-3-4.1-3.5-6.6c-0.5-2.5-0.2-5.1,0.7-7.4c1-2.4,2.6-4.4,4.7-5.8c2.1-1.4,4.6-2.2,7.1-2.2c1.7,0,3.4,0.3,4.9,1
	c1.6,0.6,3,1.6,4.2,2.8c1.2,1.2,2.1,2.6,2.8,4.2C187.8,30.1,188.1,31.8,188.1,33.5z"/>
<path class="st8" d="M181,144.3l0.1,1.7c-1.1,0.2-3.3,0.6-4.5-0.2c-1.6-1-4-1.2-6.2-2.6c0-0.6,0-1.2-0.1-1.8L181,144.3z"/>
<path class="st8" d="M199.4,148.1c-0.1,0.4-0.1,0.6-0.1,0.6s-8.6-0.9-11-2.1c0-0.9,0-1.9,0-1.9L199,146L199.4,148.1z"/>
<path class="st9" d="M197.5,109.4c-0.6,1.6-0.9,1.9-0.3,2.6c0.6,0.8,0.3,4.9-0.6,5.3c-0.9,0.4-4.4,2.7-4.4,2.7s1.9,2.5,2,3.6
	c0.1,0.7,0.3,1.3,0.8,1.9c0,0,3,6.4,3.6,8.5c0.6,2,1.1,5.3,1.1,5.3s-1,2.9-0.3,4.6c0.7,1.7,0,4.1,0,4.1s-10.4-1.1-11.6-2.4
	c-1.2-1.4-0.4-4.5-0.4-4.5c-0.2-1.4-0.7-2.7-1.5-3.9c-1.2-1.9,0.3-3.8,0-3.9c-0.3-0.1-1.2-1.2-2-2.9c-0.9-1.8-1.4-1.1-1.4-1.1
	s1.1,9.8,0,10.7c-1.1,0.9-1.3,0.5-1,1.7c0.2,1.1,0.4,2.3,0.5,3.4c0,0-3.5,1.1-5.2,0c-1.7-1.1-4.4-1.3-6.7-2.9
	c-2.3-1.7,1-4.5,1.6-4.9c0.6-0.4-0.2-6-0.2-6l-0.8-5.6c0,0,2.6,0.6,1.8-1.6c-0.9-2.1-1.9-9.5-2.3-10.7c-0.5-1.2,1.7-2.7,1.4-3.5
	c-0.3-0.8,1.3-5.3,1.3-5.3s0.1-3.7,1.1-4.4c0.4-0.3,0.6-1.1,0.8-2c0.2-1.1,0.3-2.1,0.3-3.2c0,0,22.3-1.6,25.9,0.6
	c1.6,1,1.5,2.7,0.8,4.5c-0.8,2.2-2.5,4.4-3,5.2C197.7,106.8,198.1,107.9,197.5,109.4z"/>
<path class="st8" d="M201.4,100.1c-2.8,0.8-6.4,1.9-7,2.6c-1,1.1-4.3-6-4.3-6s0.2,5.4-4.2,3.1c-3.8-1.9-9.9-1.7-11.5-1.6
	c0.2-1.1,0.3-2.1,0.3-3.2c0,0,22.3-1.6,25.9,0.6C202.2,96.5,202.1,98.3,201.4,100.1z"/>
<path class="st10" d="M190.1,41.2c0,0,1.9-2.3,2.3-1.5s2.7,2.6,2.7,2.6s0.7,2,1.8,2.3c1.2,0.3,9.8,12,9.8,12l-3.1,6.3l-2.5,15.4
	c0,0,0.1,2.4-0.6,3.3c-0.7,0.9-3.3,0.7-2.1,1.8c1.2,1.1,3,2,3.9,6.9c1,4.9,2.1,7.7,2.1,7.7s-9.1,2.3-10.1,3.4c-1,1.1-4.3-6-4.3-6
	s0.2,5.3-4.2,3.1C181.5,96.4,174,97,174,97v-5.8c0,0,1.5-2.2,0.7-3.8c-0.8-1.6,0.5-4.5,0.5-4.5s-0.4-3-1.2-4.8
	c-0.8-1.8-0.5-10-0.5-10s-0.6-5.4-0.1-8.1c0.5-2.4,1.3-4.7,2.4-6.8c1.1-2.1,1.7-4,1.5-4.8c-0.3-0.8,2.6-2.5,2.6-2.5l1.6,2.6l0.4,1.5
	C181.9,50.1,190.3,44.1,190.1,41.2z"/>
<path class="st4" d="M204.1,54.7c0,0,5.4,5.4,6,6.2c0.6,0.9,2.5,5.4,0,6.8c-2.5,1.4-12.4,3.5-13.4,2.8c-1-0.7-6.9,0.8-6.9,0.8
	s-9.9,2.4-7.8-1.6c2.1-4,7.2-3.3,7.2-3.3s8.2,0,9-0.8c0.9-0.8,7.5-2.6,6-6.2C202.7,55.9,204.1,54.7,204.1,54.7z"/>
<path class="st8" d="M188.1,78.7c0,0-12.7,11-11.4,11S188.1,78.7,188.1,78.7z"/>
<path class="st8" d="M196.5,83.2c0,0-4,1-3.2,1.6C194.1,85.3,196.5,83.2,196.5,83.2z"/>
<path class="st8" d="M182.3,56.5c0,0,5,0.5,4.1,2C185.6,60.1,182.3,56.5,182.3,56.5z"/>
<path class="st8" d="M179.2,103.8c0,0-0.7,2,0,3c0.7,1.1,0,3.6,0,3.6v8.9c0,0-0.1,6.4,2.2,8.7L179.2,103.8z"/>
<path class="st8" d="M172.5,131.4c0,0,1.4,2,1.6,2.7S172.5,131.4,172.5,131.4z"/>
<path class="st8" d="M172.9,127.4c0,0,3.2-0.6,3.6-0.2C177,127.5,172.9,127.4,172.9,127.4z"/>
<path class="st8" d="M172,139.4c0,0-0.9,0.1,0.9,1.1c1.8,1,5.4,2.3,5.5,1.9C178.4,141.9,172,139.4,172,139.4z"/>
<path class="st8" d="M185.5,129.7c0.3,0,4.4-0.2,4.2,0.4C189.4,130.7,185.5,129.7,185.5,129.7z"/>
<path class="st8" d="M191,124c0,0,0.9-1.6,1.3-0.9C192.6,123.7,191,124,191,124z"/>
<path class="st8" d="M188.1,33.5c0,1.2-0.2,2.4-0.5,3.5c-0.5,0.5-1.5,0.5-2.1,0.1c-0.8-0.4-1.3-1.2-1.8-1.9
	c-0.5-0.7-1.1-1.5-1.9-1.8c-1-0.4-2.2,0-3.1,0.7c-0.9,0.7-1.6,1.5-2.5,2.2s-1.9,1.3-3,1.1c-0.7-0.1-1.3-0.5-1.9-0.9
	c-0.8-0.5-1.7-1.3-2.6-1.7c-0.9-0.4-1.7,0.3-2.5,0.3c-0.7,0.2-1.4,0.8-1.3,1.5c0.1,0.3,0.2,0.5,0.4,0.7c0.3,0.5,0.4,1.2,0.3,1.8
	c-0.1,0.6-0.3,1.2-0.7,1.7c-1.1-1.7-1.9-3.6-2.2-5.6c-0.3-2-0.1-4,0.6-5.9c0.7-1.9,1.7-3.6,3.2-5c1.4-1.4,3.2-2.5,5.1-3.1
	c1.9-0.6,4-0.7,5.9-0.4c2,0.3,3.9,1.1,5.5,2.3c1.6,1.2,2.9,2.8,3.8,4.6C187.6,29.5,188.1,31.5,188.1,33.5L188.1,33.5z"/>
<path class="st11" d="M166.1,34.7c-0.7,0.2-1.4,0.8-1.3,1.5c0.1,0.3,0.2,0.5,0.4,0.7c0.8,1.4,0.1,3.5-1.4,4.2
	c-0.2,0.1-0.5,0.2-0.8,0.1c-0.2-0.1-0.4-0.2-0.6-0.3c-0.8-0.7-1.4-1.7-1.6-2.8c-0.2-1.1-0.1-2.3-0.2-3.4c-0.1-1.1-0.5-2.3-0.6-3.4
	c-0.1-0.6,0-1.1,0.2-1.7c0.2-0.4,0.4-0.7,0.7-1c0.8-0.9,1.6-1.8,2-2.9c0.6-1.8,0.2-4,1.5-5.3c0.6-0.6,1.5-0.8,2.3-1.2
	c0.7-0.4,1.4-0.8,2.1-1.3c2.5-1.7,5.5-3,8.5-2.4c1.2,0.3,2.3,0.8,3.4,1.4c1.9,1.1,3.8,2.3,5.5,3.7c0.7,0.6,1.4,1.2,1.9,2
	c0.4,0.7,0.7,1.4,0.8,2.1c0.4,1.6,0.5,3.3,0.2,5c-0.3,1.6-0.9,3.2-0.9,4.8c0,0.6,0,1.2-0.2,1.6c-0.5,0.8-1.6,0.8-2.4,0.4
	c-0.8-0.4-1.3-1.2-1.8-1.9c-0.5-0.7-1.1-1.5-1.9-1.8c-1-0.4-2.2,0-3.1,0.7c-0.9,0.7-1.6,1.5-2.5,2.2c-0.9,0.7-1.9,1.3-3,1.1
	c-0.7-0.1-1.3-0.5-1.9-0.9c-0.8-0.5-1.7-1.3-2.6-1.7S166.9,34.7,166.1,34.7z"/>
</svg>
