<?xml version="1.0" encoding="utf-8"?>
<!-- Generator: Adobe Illustrator 23.0.5, SVG Export Plug-In . SVG Version: 6.00 Build 0)  -->
<svg version="1.1" id="Capa_1" xmlns="http://www.w3.org/2000/svg" xmlns:xlink="http://www.w3.org/1999/xlink" x="0px" y="0px"
	 viewBox="0 0 206 169" style="enable-background:new 0 0 206 169;" xml:space="preserve">
<style type="text/css">
	.st0{clip-path:url(#SVGID_2_);}
	.st1{opacity:0.5;fill:#1F4365;enable-background:new    ;}
	.st2{fill:url(#SVGID_3_);}
	.st3{fill:#444176;}
	.st4{fill:#565387;}
	.st5{opacity:0.1;}
	.st6{opacity:0.1;enable-background:new    ;}
	.st7{fill:#FFBEC7;}
	.st8{fill:#DFE5EE;}
	.st9{opacity:5.000000e-02;enable-background:new    ;}
	.st10{fill:#88455E;}
	.st11{opacity:5.000000e-02;}
	.st12{fill:url(#SVGID_4_);}
	.st13{fill:#FF6347;}
	.st14{fill:#F0F5FA;}
	.st15{fill:#A8A8A8;}
	.st16{opacity:0.1;fill:none;stroke:#000000;stroke-miterlimit:10;enable-background:new    ;}
	.st17{fill:none;stroke:#535461;stroke-width:2;stroke-miterlimit:10;}
	.st18{fill:none;stroke:#535461;stroke-miterlimit:10;}
	.st19{opacity:0.2;enable-background:new    ;}
</style>
<g>
	<defs>
		<rect id="SVGID_1_" y="0" width="206" height="169"/>
	</defs>
	<clipPath id="SVGID_2_">
		<use xlink:href="#SVGID_1_"  style="overflow:visible;"/>
	</clipPath>
	<g class="st0">
		<path class="st1" d="M11.6,86.7c0.6,6.5,4.3,12.4,6.5,18.6c3.2,8.8,3.5,18.4,0.9,27.4c-0.5,1.8-1.2,3.7-1.2,5.6
			c0,6.5,7.4,10.9,14.2,13.7c17.2,7.3,35.1,12.7,53.5,16.1c6,1.1,13.5,1.6,17.3-2.6c1.8-2,2.3-4.7,3.6-7c3.4-5.9,11.7-8.1,19.2-9.4
			c9-1.6,18.1-2.6,27.2-3.1c9.2-0.5,19.6-1,25.7-7c3.9-3.8,5-9.1,5.1-14.1c0.5-16.3-7.3-34,2.7-48.2c4.2-5.9,11.1-10.3,15.3-16.2
			c6-8.6,5.5-19.6,1.4-28.8c-4.1-9.2-11.3-17-18.5-24.7c-2.4-2.5-4.9-5.2-8.4-6.3c-3.7-1.2-7.9-0.7-11.8-0.1
			c-18,2.6-36.7,5.5-51.8,14.5c-7.5,4.5-13.8,10.3-20.5,15.6C77.4,42.4,60.6,53,41.5,57.6C26,61.3,10.2,71.3,11.6,86.7z"/>
		
			<linearGradient id="SVGID_3_" gradientUnits="userSpaceOnUse" x1="107.8424" y1="20.7332" x2="121.7048" y2="150.5958" gradientTransform="matrix(1 0 0 -1 0 169.89)">
			<stop  offset="0" style="stop-color:#808080;stop-opacity:0.25"/>
			<stop  offset="0.54" style="stop-color:#808080;stop-opacity:0.12"/>
			<stop  offset="1" style="stop-color:#808080;stop-opacity:0.1"/>
		</linearGradient>
		<path class="st2" d="M142.4,149.2c0.3-4.3,0.2-7.6-0.2-7.9c-0.2-0.1-0.3-0.7-0.5-1.2c0.4-0.3,0.7-0.7,0.6-1.2
			c-0.5-2.1-8.6-17.9-9.9-18.2c-1.3-0.3-1-23.6-1-23.6l1.9-17.8h0c0.2-1,0.4-1.9,0.8-2.8c0.1-0.2,0.2-0.4,0.2-0.5
			c1.6,0.1,3.1-0.6,4.4-2.5c1.4-2,2.7-3.8,3.9-5.4c2.8-2.2,6.3-5.6,7.3-9.5c1.8-7-6.4-14.1-6.4-14.1l-2.5-1.7c0-0.1-0.1-0.2-0.1-0.3
			c0-0.1-0.1-0.2-0.1-0.3c0.6-0.1,1.2-0.2,1.7-0.4c0.3,0.2,0.5,0.3,0.9,0.3c0.3,0,0.6,0,0.9-0.2l0,0c0.1,0,0.2-0.1,0.3-0.1
			c0.3-0.2,0.5-0.3,0.8-0.5c1-0.7,2.2-1.1,3.3-1.7c1.8-1,3.5-2.6,3.9-4.7c0.1-0.7,0.2-1.3,0.2-2c0.1-0.5,0-1-0.1-1.5
			c-0.1-0.4-0.4-0.7-0.5-1.1c-0.3-0.8-0.2-1.7-0.2-2.5c0-1.6-0.6-3.2-1.7-4.4c-1.1-1.1-2.8-1.8-4.4-1.4c-0.4,0.1-0.8,0.2-1.2,0.4
			c-0.2,0.1-0.4,0.1-0.5,0.2c-0.7,0.3-1.4,0.5-2.1,0.3c-0.9-0.2-1.6-0.9-2.5-0.8c-0.2,0-0.4,0.1-0.5,0.2c-0.3,0.1-0.6,0.3-0.9,0.5
			c-0.4,0.3-0.8,0.6-1.1,0.9c-0.5,0.4-0.9,1-0.9,1.6c0,0.3,0,0.5,0.1,0.8c0.1,0.2,0.2,0.5,0.4,0.7c-1,0.5-2,1.2-2.7,2
			c-0.8,0.9-1.3,1.9-1.7,2.9c-0.3,1.1-0.4,2.2-0.3,3.4c0.1,1.1,0.5,2.2,1.1,3.2c0,0.1,0,0.2,0,0.3c-0.1,0.7-0.3,1.4-0.5,2
			c0-0.1,0-0.2,0.1-0.4c-0.1,0-0.3-0.1-0.4-0.1h-0.1c-0.1,0-0.2,0-0.4-0.1h0c-1.9-0.2-4.1,0-5.4,0.7c-2.1,1.2-3.8,3.1-4.7,5.3
			c-1.4,1.4-2.4,3-3,4.8c-1-0.4-2-0.7-3-0.6c-1.6-3.1-4.5-6.9-8.4-2.8c-4.1,4.3,0.9,5.6,4.4,6c0.1,0.4,0.3,0.8,0.5,1.1
			c0.2,0.4,0.5,0.7,0.8,1.1c-0.1,0-0.2,0-0.3,0c-0.8-0.2-0.7,7.8,2.8,10.2c-0.6,1.5-1.3,2.9-2.3,4.2c-1.3,1.9-2.3,3.9-3,6
			c-0.4,1.1-0.6,2.2-0.6,2.8c0,0.1,0,0.1,0,0.2c0,0,0,0.1,0,0.1c0,0,0,0,0,0.1c0,0,0,0,0,0.1c0,0,0,0,0.1,0c0,0,0,0,0.1,0
			c0,0,0,0,0.1,0h0c0,0,0.1,0,0.1,0h0c0,0,0.1,0,0.1,0h0l0.1,0h0l0.1,0l0,0l0.1,0l0,0l0.1-0.1l0,0l0.1-0.1l0,0l0.2-0.1
			c-0.2,0.3-0.4,0.7-0.6,1.1c-1.1,1.8-3,3.9-5.7,4.5c-5,1.1-17.9,17.6-17.9,17.6s-4-0.3-2.4,12.4S86,134,86,134l0.1,0
			c-1.5,1.7-4.6,4.8-7.3,4.8c-3.7,0.1-5.9,2.5-4.1,4c1.8,1.5,21.1-0.9,21.1-0.9s0.1-5-0.8-7.3c0.2-0.1,0.3-0.3,0.4-0.4l-1-25.4
			c0,0,12-10.3,17.9-11.3c0,0-0.1,0-0.1-0.1c0.4-0.1,0.7-0.1,1.1,0c5.1,0.7,9,24.1,9,24.1s0.9,3.7,3.8,6.5
			c2.8,2.8,9.1,13.8,9.1,13.8l0.3,0l0,0.1c0,1.7-0.3,4.1-1.5,6.1c-2.1,3.2,3.8,4.4,3.8,4.4S142.1,153.5,142.4,149.2z"/>
		<path class="st3" d="M87.9,133c0,0-4.5,5.9-8.2,5.9c-3.7,0.1-5.9,2.5-4.1,4c1.8,1.5,21-0.9,21-0.9s0.2-7.2-1.5-8.3
			C93.4,132.7,87.9,133,87.9,133z"/>
		<path class="st3" d="M136.1,140c0,0,0.7,4.7-1.4,7.8c-2.1,3.2,3.8,4.4,3.8,4.4s4.3,1.2,4.6-3.1c0.3-4.3,0.2-7.5-0.2-7.9
			c-0.4-0.3-0.7-2.7-0.7-2.7L136.1,140z"/>
		<path class="st4" d="M135.9,141.8c0,0-6.2-10.9-9.1-13.7c-2.8-2.8-3.8-6.5-3.8-6.5s-3.9-23.2-9-23.9C109,97,94.9,109,94.9,109
			l1,25.3c-3,3.5-9-0.2-9-0.2s-0.3-6.9-1.9-19.5c-1.6-12.6,2.4-12.3,2.4-12.3s12.9-16.4,17.9-17.5c2.7-0.6,4.5-2.7,5.6-4.5
			c0.6-0.9,1-1.9,1.4-2.9l21.4,2.3l-1.9,17.7c0,0-0.3,23.2,1,23.5c1.3,0.3,9.4,16,9.9,18.1C143.2,141.1,135.9,141.8,135.9,141.8z"/>
		<g class="st5">
			<path class="st6" d="M113.1,97.8c-0.2-0.1-0.5-0.2-0.8-0.3c-5.1-0.7-19.2,11.3-19.2,11.3l1,25.3c-0.9,1.1-2.1,1.5-3.3,1.5
				c1.8,0.4,3.9,0.4,5.3-1.3l-1-25.3C95.2,109,107.2,98.8,113.1,97.8z"/>
			<path class="st6" d="M143,139c-0.5-2.1-8.6-17.8-9.9-18.1c-1.3-0.3-1-23.5-1-23.5l1.9-17.7l-2.1-0.2L130,97.2
				c0,0-0.3,23.2,1,23.5c1.3,0.3,9.4,16,9.9,18.1c0.3,1.4-2.9,2.2-5,2.6l0.3,0.5C136.2,141.8,143.5,141.1,143,139z"/>
		</g>
		<path class="st7" d="M146.3,49.7c0,0-20.2-0.7-16.5-3.4c2.3-1.7,3.3-5,3.7-7.2c0.2-0.8,0.3-1.6,0.3-2.4c0,0,10.8-1.1,8.1,2.9
			c-0.7,1.1-0.7,2.2-0.4,3.4C142.5,46.4,146.3,49.7,146.3,49.7z"/>
		<path class="st8" d="M124.3,44.9c0,0-4.9,2.7-5.9,9c-1,6.3-1.8-0.2-1.8-0.2s-2.8,2.7-3.7,2.4c-0.9-0.2-0.7,9.4,3.9,10.6
			c4.6,1.2,8.3-19,8.3-19L124.3,44.9z"/>
		<path class="st9" d="M124.3,44.9c0,0-4.9,2.7-5.9,9c-1,6.3-1.8-0.2-1.8-0.2s-2.8,2.7-3.7,2.4c-0.9-0.2-0.7,9.4,3.9,10.6
			c4.6,1.2,8.3-19,8.3-19L124.3,44.9z"/>
		<path class="st7" d="M117.3,53.7c0,0-3.8-12-9.6-5.8c-5.9,6.2,7.1,6.1,7.1,6.1L117.3,53.7z"/>
		<path class="st6" d="M141.9,39.6c-0.7,1.1-0.7,2.2-0.4,3.4c-1.6,0.2-3.2-0.1-4.6-0.8c-1.4-0.7-2.6-1.8-3.4-3.2
			c0.2-0.8,0.3-1.6,0.3-2.4C133.8,36.7,144.6,35.6,141.9,39.6z"/>
		<path class="st7" d="M148.6,35.9c0.6-4.4-2.4-8.5-6.9-9.2c-4.4-0.6-8.5,2.4-9.2,6.9c-0.6,4.4,2.4,8.5,6.9,9.2
			C143.8,43.4,147.9,40.3,148.6,35.9z"/>
		<path class="st6" d="M133.7,79.6l-0.3,2.6c-2.4-0.6-18.6-4.8-22-2.3c-0.2,0.1-0.3,0.2-0.5,0.3c0.6-0.9,1-1.9,1.4-2.9L133.7,79.6z"
			/>
		<path class="st8" d="M150.5,59.1c-1.1,4.2-5,7.8-7.9,9.9c-1.1,0.8-2.2,1.5-3.3,2.2c0,0-3,1.7-4.6,5.7c-0.6,1.5-0.9,3.1-1,4.7
			c0,0-18.6-5.1-22.3-2.4c-1.9,1.4-1.6-0.6-0.9-2.8c0.7-2.1,1.7-4.2,3-6c1-1.5,2.3-3.6,2.7-5.6c0.5-2.7,4-12.8,5.6-17.4
			c0.9-2.5,2.6-4.7,4.9-6c1.5-0.8,4.3-1,6.3-0.6c0,0-0.6,2.1,2.3,2.5c0.3,0,0.6,0.1,0.9,0.2c1.2,0.3,4,0.8,5.3-0.1l2.6,1.8
			C144.2,45.1,152.3,52.2,150.5,59.1z"/>
		<path class="st6" d="M142,31.1c0.2-0.3,0.1-0.8-0.2-1.1c-0.3-0.3-0.6-0.5-1-0.6l-1.8-0.8c-0.6-0.2-1.1-0.6-1.6-1
			c-0.5-0.4-0.8-1-0.7-1.7c0.1-0.6,0.5-1.1,0.9-1.6c0.4-0.3,0.7-0.7,1.1-0.9c0.3-0.3,0.7-0.4,1.1-0.5c0.9-0.1,1.6,0.6,2.5,0.8
			c1.3,0.3,2.6-0.6,3.9-0.9c1.6-0.3,3.2,0.3,4.4,1.4c1.1,1.1,1.7,2.8,1.7,4.3c0,0.8-0.1,1.7,0.2,2.5c0.1,0.4,0.4,0.7,0.5,1
			c0.1,0.5,0.2,1,0.1,1.4c0,0.7-0.1,1.3-0.2,2c-0.5,2-2.1,3.6-3.9,4.6c-1.1,0.6-2.3,1-3.3,1.7c-0.2,0.2-0.5,0.4-0.8,0.5
			c-0.3,0.1-0.6,0.2-0.9,0.2c-0.3,0-0.6-0.1-0.8-0.3c-0.2-0.1-0.3-0.3-0.4-0.4c-0.1-0.2-0.2-0.4-0.2-0.6c0-0.4,0.3-0.8,0.5-1.1
			c0.6-0.9,0.7-2.2-0.1-3c-0.3-0.3-0.8-0.5-1.1-0.9c-0.5-0.6-0.6-1.4-0.6-2.2c-0.1-1.4-0.1-2.9,0.5-4.2"/>
		<path class="st10" d="M142.1,29.9c-0.3-0.3-0.6-0.5-1-0.6l-1.8-0.8c-0.6-0.2-1.1-0.6-1.6-1c-0.5-0.4-0.8-1-0.7-1.7
			c0.1-0.6,0.5-1.1,0.9-1.6c0.4-0.3,0.7-0.7,1.1-0.9c0.3-0.3,0.7-0.4,1.1-0.5c0.9-0.1,1.6,0.6,2.5,0.8c1.3,0.3,2.6-0.6,3.9-0.9
			c1.6-0.3,3.2,0.3,4.4,1.4c1.1,1.1,1.7,2.8,1.7,4.3c0,0.8-0.1,1.7,0.2,2.5c0.1,0.4,0.4,0.7,0.5,1c0.1,0.5,0.2,1,0.1,1.4
			c0,0.7-0.1,1.3-0.2,2c-0.5,2-2.1,3.6-3.9,4.6c-1.1,0.6-2.3,1-3.3,1.7c-0.2,0.2-0.5,0.4-0.8,0.5c-0.3,0.1-0.6,0.2-0.9,0.2
			c-0.3,0-0.6-0.1-0.8-0.3c-0.2-0.1-0.3-0.3-0.4-0.4s-0.2-0.4-0.2-0.6c0-0.4,0.3-0.8,0.5-1.1c0.6-0.9,0.7-2.2-0.1-3
			c-0.3-0.3-0.8-0.5-1.1-0.9c-0.5-0.6-0.6-1.4-0.6-2.2C141.7,32.6,141.4,31.2,142.1,29.9"/>
		<path class="st6" d="M147.6,62.9c-1.2,1.4-2.9,3.4-5,6.1c-1.1,0.8-2.2,1.5-3.3,2.2c0,0-3,1.7-4.6,5.7c-6.3,0.3-14-12.2-14-12.2
			l5-5.2l8.5,6.1l2.8-6c0.7-1.6,1.9-2.9,3.3-3.9c1.4-1,3.1-1.6,4.8-1.8l0.1,0c1.8-0.2,2.8,0.9,3.4,2.2c0.5,1.1,0.6,2.4,0.4,3.6
			C149,60.8,148.4,61.9,147.6,62.9z"/>
		<g class="st11">
			<path class="st9" d="M131.7,40.6c0,0-0.6,2.1,2.3,2.5c0.3,0,0.6,0.1,0.9,0.2c0.9,0.2,1.7,0.3,2.6,0.4c-0.5-0.1-1-0.2-1.3-0.3
				c-0.3-0.1-0.6-0.1-0.9-0.2c-2.9-0.4-2.3-2.5-2.3-2.5c-0.6-0.1-1.1-0.2-1.7-0.2C131.5,40.6,131.6,40.6,131.7,40.6z"/>
			<path class="st9" d="M144.2,45.1l-2.6-1.8c-0.2,0.1-0.4,0.2-0.6,0.3l2,1.3c0,0,8.1,7.1,6.4,14c-1.1,4.2-5,7.8-7.9,9.9
				c-1.1,0.8-2.2,1.5-3.3,2.2c0,0-3,1.7-4.6,5.7c-0.6,1.4-0.9,3-0.9,4.5c0.8,0.2,1.3,0.3,1.3,0.3c0-1.6,0.4-3.2,1-4.7
				c1.6-3.9,4.6-5.7,4.6-5.7c1.2-0.7,2.3-1.4,3.3-2.2c2.9-2.2,6.8-5.7,7.9-9.9C152.3,52.2,144.2,45.1,144.2,45.1z"/>
			<path class="st9" d="M110.1,79.1l-0.1,0.1c0.1,0.6,0.5,0.8,1.5,0c1.2-0.8,3.7-0.9,6.8-0.7C114.7,78.1,111.5,78.1,110.1,79.1z"/>
		</g>
		<path class="st9" d="M115.3,67.4c0,0,1.5,3.9,3.6,5.3c2.1,1.4,4.8,3.8,4.8,3.8"/>
		
			<linearGradient id="SVGID_4_" gradientUnits="userSpaceOnUse" x1="-4863.7847" y1="-96558.2422" x2="-1246.0848" y2="-26295.2461" gradientTransform="matrix(1 0 0 -1 0 169.89)">
			<stop  offset="0" style="stop-color:#808080;stop-opacity:0.25"/>
			<stop  offset="0.54" style="stop-color:#808080;stop-opacity:0.12"/>
			<stop  offset="1" style="stop-color:#808080;stop-opacity:0.1"/>
		</linearGradient>
		<path class="st12" d="M143.6,136.9l-3.1-13.4c-1.3-2.2-2.7-3.4-3.8-4c-1.5-0.9-2.6-0.9-3-0.9l-0.4-0.4c-1.6-2.2-2.4-8.1-2.4-8.1
			c-0.1-2.7-1.8-4.6-4.1-5.9c-3.8-2.3-9.2-2.7-10.4-2.8l-0.9-1.8l-0.2-0.1l-0.1-0.1c-0.2-0.1-0.4-0.1-0.6-0.1l1.6-33.3l0-0.3
			l6.4,0.3c0.5,0,1-0.2,1.4-0.5c0.4-0.3,0.6-0.8,0.6-1.3c0-0.5-0.1-1-0.5-1.4s-0.8-0.6-1.3-0.7l-7.5-0.4v-0.2l0.7-14.4V47
			c0.3-0.3,0.6-0.6,0.8-1c0.2-0.4,0.3-0.8,0.3-1.2c0-0.4,0-0.7-0.1-1.1c-0.1-0.4-0.3-0.7-0.6-1c-0.2-0.3-0.6-0.5-0.9-0.7
			c-0.3-0.2-0.7-0.3-1.1-0.3s-0.8,0-1.1,0.2c-0.4,0.1-0.7,0.3-1,0.6c-0.3,0.3-0.5,0.6-0.7,0.9c-0.2,0.3-0.2,0.7-0.3,1.1
			c0,0.4,0,0.8,0.2,1.2c0.2,0.4,0.4,0.8,0.7,1v0.2l-0.7,14.4v0.2l-7.5-0.4c-0.5,0-1,0.2-1.4,0.5s-0.6,0.8-0.6,1.3
			c0,0.5,0.1,1,0.5,1.4c0.3,0.4,0.8,0.6,1.3,0.7l6.1,0.3l0,0.3l-1.6,33.8c-2.4,0.3-4.7,0.8-7,1.4l-2.7,9.4l-7.8,1.4l-4,8.9l-3.8,6.6
			c-0.4,0.1-0.8,0.3-1.2,0.5c-14.1,5.9-14.6,20.6-14.6,20.6C71.3,154.9,91,152,91,152c11.3,10.1,33.7,4.2,33.7,4.2
			c5.4,1.3,9.7,1.9,13.1,2c9.4,0.4,11.8-2.8,11.8-2.8C153,146.9,143.6,136.9,143.6,136.9z"/>
		<path class="st13" d="M112.4,46.7l-1.8,16.9l3.6,0.4l1.8-16.9L112.4,46.7z"/>
		<path class="st14" d="M109.1,64.4l-4,37.8l6.1,0.7l4-37.8L109.1,64.4z"/>
		<path class="st9" d="M115.2,65l-3-0.3l-4,37.8l3,0.3L115.2,65z"/>
		<path class="st6" d="M109.1,64.4l-0.2,1.6l6.1,0.7l0.2-1.6L109.1,64.4z"/>
		<path class="st6" d="M110.8,61.9l-0.2,1.7l3.6,0.4l0.2-1.7L110.8,61.9z"/>
		<path class="st13" d="M121.9,63.2l-18.6-2c-1-0.1-2,0.6-2.1,1.7c-0.1,1,0.6,2,1.7,2.1l18.6,2c1,0.1,2-0.6,2.1-1.7
			C123.7,64.2,122.9,63.3,121.9,63.2z"/>
		<path class="st15" d="M68.3,148.8c0,0-0.2-15.1,14.8-21.2l3.5-6.6l3.6-8.8l7.7-1.7l2.2-9.3c0,0,8.5-3,14-1.9l1.1,1.9
			c0,0,14.2-0.2,14.8,7.5c0,0,1.4,7.1,3.5,8.3c0,0,3.5-0.8,6.9,4.2l3.8,12.9c0,0,9.9,9.3,6.9,17.8c0,0-4.1,5.8-24.9,1.9
			c0,0-22.2,6.8-34-2.5C92.2,151.4,72.5,155.1,68.3,148.8z"/>
		<path class="st16" d="M78.2,146.5c0,0,3.1-4.4,3-7.5c-0.2-3.1,0.7-10.8,0.7-10.8"/>
		<path class="st16" d="M89.7,134.7c0,0,3.1-5.8,2.8-9c0,0,3.3-6,5.8-5.5"/>
		<path class="st16" d="M107,118.2c0,0,8.7-3.1,9.1-5.7"/>
		<path class="st16" d="M110.1,125.4c0,0,9.1-4.1,9.1-5.2h4.6c0,0,6.6,8.6,5.8,12.4"/>
		<path class="st16" d="M120.8,131.7c0,0-8.8-0.6-12,1.9c-3.1,2.5-8.8,3.8-8.8,3.8s-3.3,7.1-4.6,8.3c-1.3,1.3-3.3,5.7-3.3,5.7"/>
		<path class="st16" d="M120.8,140c0,0,0.9,3.3,2.2,5.2c1.3,1.9,3.1,8.6,3.1,8.6"/>
		<path class="st16" d="M135.6,149.6c0,0,2,5.6,3.8,5.6"/>
		<path class="st16" d="M122.5,125.8c0,0,5.2,1.4,7.4,4.8c2.2,3.4,8.8,6.5,8.8,6.5"/>
		<path class="st16" d="M124.7,109.1c0,0,0,7.2,2,7.2c2,0,6.6,0.8,6.6,0.8"/>
		<path class="st16" d="M114.7,100.5c0,0-0.5,12.5-3.2,15.7"/>
		<g class="st11">
			<path class="st9" d="M143.8,134.1l-3.8-12.9c-3.5-5-6.9-4.2-6.9-4.2c-2-1.3-3.5-8.3-3.5-8.3c-0.6-7.7-14.8-7.5-14.8-7.5l-1.1-1.9
				c-1.4-0.3-3-0.3-4.6-0.2c0.4,0,0.8,0.1,1.1,0.2l1.1,1.9c0,0,14.2-0.2,14.8,7.5c0,0,1.4,7.1,3.5,8.3c0,0,3.5-0.8,6.9,4.2l3.8,12.9
				c0,0,9.9,9.3,6.9,17.8c0,0-2,2.9-10.4,3.2c11.3,0.4,13.9-3.2,13.9-3.2C153.7,143.3,143.8,134.1,143.8,134.1z"/>
			<path class="st9" d="M88.4,151.2c-3.3,0.6-6.7,1-10.1,1.1c3.9,0.2,8-0.3,10.7-0.6C88.8,151.5,88.6,151.4,88.4,151.2z"/>
			<path class="st9" d="M122.4,153.7c-4.8,1.4-9.8,2.1-14.9,2.3c7.3,0.3,14.1-1.2,17-2C123.8,154,123.1,153.8,122.4,153.7z"/>
		</g>
		<path class="st9" d="M116,47l-1.9-0.2l-1.6,15.3l1.9,0.2L116,47z"/>
		<path class="st6" d="M116,47.1l-0.1,1.2c-0.6,0.4-1.2,0.5-1.9,0.5c-0.7-0.1-1.3-0.4-1.7-0.8l0.1-1.2L116,47.1z"/>
		<path class="st13" d="M117.2,46.1c0.2-1.6-1-2.9-2.5-3.1s-2.9,1-3.1,2.5s1,2.9,2.5,3.1C115.6,48.8,117,47.7,117.2,46.1z"/>
		<path class="st9" d="M117.2,46.1c-0.1,0.7-0.5,1.4-1,1.9c-0.6,0.5-1.3,0.7-2.1,0.6l0.6-5.6c0.4,0,0.7,0.2,1.1,0.3
			c0.3,0.2,0.6,0.4,0.8,0.7c0.2,0.3,0.4,0.6,0.5,1C117.2,45.4,117.2,45.7,117.2,46.1z"/>
		<path class="st7" d="M126.9,60l-2,3.2l-1.9-1.6l-2.6-2.2c0,0-4.8,0.4-7.8-4.2c-1.3-2-0.3-3.1,1.3-3.8c1.3-0.5,2.8-0.6,4.1-0.2
			c1.4,0.4,2.6,1.2,3.5,2.3L126.9,60z"/>
		<path class="st6" d="M126.9,60l-2,3.2l-1.9-1.6l2.8-2.9L126.9,60z"/>
		<path class="st8" d="M137.7,59l-2.8,5.9l-8.5-6.1l-5,5.2c0,0,11.5,18.9,17.9,9.8c3.9-5.5,7.1-9.4,9-11.5c0.8-0.9,1.3-2.1,1.5-3.3
			c0.2-1.2,0-2.5-0.4-3.6c-0.6-1.4-1.6-2.4-3.4-2.2l-0.1,0c-1.7,0.2-3.4,0.8-4.8,1.8C139.6,56.1,138.4,57.4,137.7,59z"/>
		<path class="st17" d="M177.5,127.4c0,0-2.6-8.7,0.5-15.1c1.3-2.7,1.7-5.7,1.1-8.6c-0.3-1.4-0.7-2.7-1.2-4"/>
		<path class="st13" d="M179.8,95.6c0,1.1-1.9,4.1-1.9,4.1s-1.9-3.1-1.9-4.1c0-0.5,0.2-1,0.6-1.4s0.9-0.6,1.4-0.6
			c0.5,0,1,0.2,1.4,0.6S179.8,95.1,179.8,95.6z"/>
		<path class="st13" d="M183,101.5c-0.6,0.9-3.9,2.4-3.9,2.4s0.1-3.6,0.6-4.5c0.3-0.4,0.7-0.7,1.2-0.8c0.5-0.1,1,0,1.4,0.3
			c0.4,0.3,0.7,0.7,0.8,1.2C183.3,100.6,183.2,101.1,183,101.5z"/>
		<path class="st13" d="M182.8,111.6c-1,0.5-4.6,0.1-4.6,0.1s1.9-3.1,2.8-3.6c0.2-0.1,0.5-0.2,0.7-0.2c0.3,0,0.5,0,0.8,0.1
			c0.2,0.1,0.5,0.2,0.7,0.4c0.2,0.2,0.4,0.4,0.5,0.6c0.1,0.2,0.2,0.5,0.2,0.7c0,0.3,0,0.5-0.1,0.8c-0.1,0.2-0.2,0.5-0.4,0.7
			C183.3,111.3,183.1,111.5,182.8,111.6L182.8,111.6z"/>
		<path class="st13" d="M181,119.2c-0.9,0.6-4.5,0.9-4.5,0.9s1.3-3.4,2.2-4c0.2-0.2,0.4-0.3,0.7-0.4c0.3-0.1,0.5-0.1,0.8-0.1
			c0.3,0,0.5,0.1,0.7,0.2c0.2,0.1,0.4,0.3,0.6,0.5c0.2,0.2,0.3,0.4,0.3,0.7c0.1,0.3,0.1,0.5,0,0.8c0,0.3-0.1,0.5-0.3,0.7
			C181.4,118.9,181.2,119.1,181,119.2z"/>
		<path class="st13" d="M175.1,104.2c0.8,0.7,4.3,1.5,4.3,1.5s-0.9-3.5-1.6-4.3c-0.2-0.2-0.4-0.3-0.6-0.5c-0.2-0.1-0.5-0.2-0.8-0.2
			c-0.3,0-0.5,0-0.8,0.1c-0.2,0.1-0.5,0.2-0.6,0.4c-0.2,0.2-0.3,0.4-0.4,0.7c-0.1,0.2-0.1,0.5-0.1,0.8s0.1,0.5,0.2,0.8
			C174.7,103.8,174.9,104,175.1,104.2z"/>
		<path class="st13" d="M173,113.1c1,0.5,4.6,0.1,4.6,0.1s-1.9-3.1-2.8-3.6c-0.2-0.1-0.5-0.2-0.7-0.2s-0.5,0-0.8,0.1
			c-0.2,0.1-0.5,0.2-0.7,0.4c-0.2,0.2-0.4,0.4-0.5,0.6c-0.1,0.2-0.2,0.5-0.2,0.7c0,0.3,0,0.5,0.1,0.8c0.1,0.2,0.2,0.5,0.4,0.7
			S172.8,113,173,113.1L173,113.1z"/>
		<path class="st13" d="M172.3,122c0.9,0.6,4.5,0.9,4.5,0.9s-1.3-3.4-2.2-4c-0.4-0.3-0.9-0.4-1.4-0.3c-0.5,0.1-0.9,0.4-1.2,0.8
			c-0.3,0.4-0.4,0.9-0.4,1.4C171.6,121.3,171.9,121.7,172.3,122z"/>
		<path class="st13" d="M14.4,97.6c0,0,8.1,8.1,3.5,20c-4.6,12,7.8,31.9,7.8,31.9s-0.1,0-0.4-0.1c-16.6-2.9-24.8-21.9-15.6-36
			C13.2,108.3,16,102.1,14.4,97.6z"/>
		<path class="st6" d="M14.4,97.7c0,0,8.1,8.1,3.5,20c-4.6,12,7.8,31.9,7.8,31.9s-0.1,0-0.4-0.1c-16.6-2.9-24.8-21.9-15.6-36
			C13.2,108.4,16,102.2,14.4,97.7z"/>
		<path class="st18" d="M14.4,97.6c0,0,4.6,9.9,0,18c-4.6,8.1-0.8,30.7,11.3,34"/>
		<path class="st13" d="M0,130.2c0,0,9.2-1.5,10.1,6.8c0.8,8.3,17.7,9.4,17.7,9.4l-0.3,0.2c-13.9,9.1-27.3,5.8-25.3-6.3
			C3,135.8,2.9,131.3,0,130.2z"/>
		<path class="st18" d="M0,130.2c0,0,7.2,1.6,6.6,8.1c-0.6,6.5,10.6,14.3,21.2,8.1"/>
		<path class="st15" d="M169.7,125.6c0,0,4.3-0.1,5.6-1.1c1.3-0.9,6.7-2,7-0.5c0.3,1.5,6.5,7.4,1.6,7.4c-4.9,0-11.4-0.8-12.7-1.5
			C169.9,129.1,169.7,125.6,169.7,125.6z"/>
		<path class="st19" d="M184,130.9c-4.9,0-11.4-0.8-12.7-1.5c-1-0.6-1.4-2.8-1.5-3.8h-0.1c0,0,0.3,3.5,1.6,4.3
			c1.3,0.8,7.8,1.6,12.7,1.5c1.4,0,1.9-0.5,1.9-1.3C185.6,130.6,185,130.9,184,130.9z"/>
		<path class="st15" d="M35,147.1c0,0-7.3-1.5-9.2-3.4s-10.7-5.3-11.6-2.9s-13.1,10.6-4.8,12.1c8.2,1.5,19.4,1.9,21.8,1
			C33.5,152.9,35,147.1,35,147.1z"/>
		<path class="st19" d="M9.3,152c8.2,1.5,19.4,1.9,21.8,1c1.8-0.7,3.1-4.3,3.6-5.9l0.2,0.1c0,0-1.5,5.8-3.9,6.8
			c-2.4,1-13.6,0.5-21.8-1c-2.4-0.4-3.1-1.4-2.8-2.6C6.7,151.1,7.5,151.7,9.3,152z"/>
	</g>
</g>
</svg>
