<?xml version="1.0" encoding="utf-8"?>
<!-- Generator: Adobe Illustrator 23.0.5, SVG Export Plug-In . SVG Version: 6.00 Build 0)  -->
<svg version="1.1" id="Capa_1" xmlns="http://www.w3.org/2000/svg" xmlns:xlink="http://www.w3.org/1999/xlink" x="0px" y="0px"
	 viewBox="0 0 112.2 164.3" style="enable-background:new 0 0 112.2 164.3;" xml:space="preserve">
<style type="text/css">
	.st0{fill:#3F3D56;}
	.st1{opacity:0.1;enable-background:new    ;}
	.st2{fill:#FF6347;}
</style>
<path class="st0" d="M83.2,80c0,0-2.1,6.7-5.5,16.3c-1.1,3.1-2.3,6.5-3.6,10.1c-1.8,5-3.8,10.4-5.9,15.7c-1.3,3.3-2.6,6.6-3.9,9.8
	c-7.2,17.3-14.8,32.2-19.8,32.4C33.2,164.8,9,89.1,6.4,80.7C6.3,80.2,6.2,80,6.2,80L83.2,80z"/>
<path class="st1" d="M77.7,96.2c-1.1,3.1-2.3,6.5-3.6,10.1L44.3,80h15L77.7,96.2z"/>
<path class="st1" d="M68.2,122.1c-1.3,3.3-2.6,6.6-3.9,9.8L6.4,80.7C6.3,80.2,6.2,80,6.2,80h14.4L68.2,122.1z"/>
<path class="st2" d="M46,12.9c-3.5,2.8-9.1,1.7-12.5,4.7c-2.3,2-2.9,5.5-2.3,8.5c0.6,3,2.3,5.7,4,8.3c1.2,1.8,2.4,3.6,4,4.9
	c2.3,1.9,5.2,2.8,8.1,3.5c6.3,1.5,12.7,2.5,19.2,2.8c2.9,0.1,6.1,0,8.1-2.1c1.1-1.2,1.6-3,1.9-4.6c0.5-2.6,0.8-5.4-0.3-7.8
	c-0.9-2-2.6-3.5-4.3-4.8c-5.4-4.1-11.7-7.6-15-13.5c-1.3-2.4-2.1-5.1-4.1-6.9c-2.6-2.4-8.3-3.4-11.4-1.8C42,5.2,48.1,11.2,46,12.9z"
	/>
<path class="st2" d="M16.4,40.8c-1,3.6-2,7.5-1.1,11.2c1.2,4.9,5.4,8.5,10.1,10.3c4.7,1.8,9.7,2,14.7,2.2l26.1,1
	c3.3,0.1,6.6,0.3,9.7,1.4c2.5,0.9,5.6,2.5,7.7,0.8c1-0.8,1.4-2,1.7-3.2c1.1-3.8,1.7-8.1,0.2-11.8c-1.7-4.3-5.9-7.1-10.3-8.4
	c-4.4-1.3-9-1.5-13.5-2c-4.6-0.5-9.2-1.4-13.6-2.7c-3.7-1.1-7.5-2.5-10.2-5.2c-1.5-1.5-2.6-3.3-4-4.9C25.6,20.5,18.3,33.9,16.4,40.8
	z"/>
<path class="st2" d="M10.6,57.6C2.5,61.2-1.1,70.8,2.5,79c1.1,2.4,2.7,4.5,4.8,6.1c4,3.1,9.2,4.2,14.2,4.6c4.9,0.4,9.8,0.1,14.8-0.1
	l43.5-2.2c2.6-0.1,5.4-0.4,7-2.5c1.2-1.5,1.2-3.6,1-5.5c-1-6.8-6.1-12.9-12.7-14.9c-2.5-0.8-5.1-1-7.6-1.3l-18.7-1.8
	c-2.5-0.2-5-0.5-7.5-1.1c-7.4-2-14-7.9-21.6-7c-5.2,0.6-9.4,4.2-13.1,7.8"/>
<path class="st1" d="M35,28.1c0,0,6.1,11,37.3,15.5"/>
<path class="st1" d="M17.7,57c0,0,11.3,11.5,58,11.5"/>
<ellipse class="st0" cx="43.9" cy="21.6" rx="3" ry="1"/>
<ellipse class="st0" cx="53.9" cy="28.1" rx="3" ry="1"/>
<ellipse class="st0" cx="65.3" cy="35" rx="3" ry="1"/>
<ellipse class="st0" cx="25.6" cy="38" rx="3" ry="1"/>
<ellipse class="st0" cx="50.9" cy="47.5" rx="3" ry="1"/>
<ellipse class="st0" cx="15.1" cy="67" rx="3" ry="1"/>
<ellipse class="st0" cx="34" cy="48.5" rx="3" ry="1"/>
<ellipse class="st0" cx="22.6" cy="74.5" rx="3" ry="1"/>
<ellipse class="st0" cx="41.9" cy="70" rx="3" ry="1"/>
<ellipse class="st2" cx="53.6" cy="88.2" rx="3.2" ry="6.7"/>
<ellipse class="st2" cx="57.6" cy="90.7" rx="3.2" ry="6.7"/>
<path class="st0" d="M51,155.7c0-0.1,0.7-3.3,4.2-8c3.2-4.3,9.5-10.6,21.4-16.6c22.5-11.4,27.5-32.8,27.6-33l0.6,0.1
	c0,0.1-1.3,5.5-5.3,12.4c-5.4,9-13.2,16.3-22.6,21.1c-22.4,11.4-25.2,24-25.3,24.2L51,155.7z"/>
<ellipse class="st2" cx="105.3" cy="91.8" rx="4" ry="4"/>
<ellipse class="st0" cx="104.5" cy="111.3" rx="4" ry="4"/>
<ellipse class="st2" cx="91.5" cy="112.6" rx="4" ry="4"/>
<ellipse class="st2" cx="93.5" cy="125.9" rx="4" ry="4"/>
<ellipse class="st0" cx="74.8" cy="126.2" rx="4" ry="4"/>
</svg>
