<?xml version="1.0" encoding="utf-8"?>
<!-- Generator: Adobe Illustrator 23.0.5, SVG Export Plug-In . SVG Version: 6.00 Build 0)  -->
<svg version="1.1" id="Capa_1" xmlns="http://www.w3.org/2000/svg" xmlns:xlink="http://www.w3.org/1999/xlink" x="0px" y="0px"
	 viewBox="0 0 273 156" style="enable-background:new 0 0 273 156;" xml:space="preserve">
<style type="text/css">
	.st0{clip-path:url(#SVGID_2_);}
	.st1{opacity:0.8;fill:#D1806C;enable-background:new    ;}
	.st2{opacity:0.5;fill:#FF7245;enable-background:new    ;}
	.st3{fill:url(#SVGID_3_);}
	.st4{fill:#BE6F72;}
	.st5{fill:#3F3D56;}
	.st6{fill:#65617D;}
	.st7{opacity:0.1;enable-background:new    ;}
	.st8{fill:#E3E8F4;}
	.st9{opacity:0.1;}
	.st10{fill:#FFC107;}
	.st11{opacity:0.1;fill:#FFFFFF;enable-background:new    ;}
	.st12{fill:url(#SVGID_4_);}
	.st13{fill:#F86D70;}
	.st14{fill:#FBBEBE;}
	.st15{fill:#444053;}
	.st16{fill:#E8E8F0;}
	.st17{opacity:0.1;fill:#FFC107;enable-background:new    ;}
</style>
<g>
	<defs>
		<rect id="SVGID_1_" y="0" width="273" height="156"/>
	</defs>
	<clipPath id="SVGID_2_">
		<use xlink:href="#SVGID_1_"  style="overflow:visible;"/>
	</clipPath>
	<g class="st0">
		<path class="st1" d="M164.1,112.4c5.3-0.3,11.8-3.9,16.9-5.5c6-1.9,12.1-3.7,18.1-5.4c21.1-6,42.5-11.2,64.1-15.4
			c2-0.4,4-0.8,6.1-1.2c-3.1-6.8-8-12.7-14.1-17c0.2-1.5,0.2-3,0.2-4.5c0-23.7-18.9-42.9-42.2-42.9c-7.2,0-14.2,1.8-20.5,5.4
			C176.1,15.1,154.6,8.5,131,8.5c-33.5,0-62.9,13.3-79.6,33.3l78.3,13.3l48,8.1C123,64.9,68.1,66.5,13.4,62.6
			c-7.2,7-11.8,16.3-12.9,26.3c-1.1,10,1.2,20.1,6.7,28.5c0,0.9,0,1.7,0.1,2.6c1.4,0.4,2.7,0.8,3.9,1c19.3,4.1,38.8,7.5,58.4,10.3
			c-14.4,8.9-32,10.2-48.7,14C29,151.9,40,156,52.1,156h179.7c19.5,0,35.2-13.6,35.2-30.3c2.9-4.8,4.9-10.2,5.7-15.8
			C236.7,113.4,200.3,110.4,164.1,112.4z"/>
		<path class="st2" d="M273,102.8c0-6.9-1.6-13.7-4.8-19.8c-3.2-6.1-7.7-11.4-13.4-15.4c0.2-1.5,0.2-3,0.2-4.5
			c0-23.7-18.9-42.9-42.2-42.9c-7.2,0-14.2,1.8-20.5,5.4c-16.5-10.9-38.1-17.5-61.7-17.5c-38.4,0-71.4,17.4-86,42.4
			c-0.8,0-1.6-0.1-2.5-0.1C18.9,50.4,0,69.6,0,93.3c0,8.4,2.4,16.6,6.9,23.6c0,21.3,20.1,38.6,44.9,38.6h179.7
			c19.5,0,35.2-13.6,35.2-30.3C270.9,118.5,273,110.7,273,102.8z"/>
		
			<linearGradient id="SVGID_3_" gradientUnits="userSpaceOnUse" x1="192.9416" y1="35.187" x2="192.9416" y2="131.3809" gradientTransform="matrix(1 0 0 -1 0 155.89)">
			<stop  offset="0" style="stop-color:#808080;stop-opacity:0.25"/>
			<stop  offset="0.54" style="stop-color:#808080;stop-opacity:0.12"/>
			<stop  offset="1" style="stop-color:#808080;stop-opacity:0.1"/>
		</linearGradient>
		<path class="st3" d="M223,76.5c-0.3-0.3-0.7-0.4-1.2-0.5c-0.4-0.1-0.9-0.2-1.4-0.2l-5.9-0.8c-0.6-0.1-1.2-0.1-1.8-0.1
			c-0.3,0-0.6,0.1-0.9,0.2c-0.3,0.1-0.5,0.3-0.7,0.6c-0.2,0.2-0.3,0.5-0.3,0.8c0,0.3,0.1,0.6,0.3,0.8c0.1,0.1,0.1,0.2,0.1,0.4
			c0.1,0.3,0.1,0.5,0.2,0.8c0,0.1,0.1,0.1,0.1,0.2c0,0,0,0,0,0c-0.1,0.3,0.1,0.7,0.1,1c-0.1,0.3-0.3,0.4-0.5,0.7
			c-0.1,0.2-0.2,0.4-0.2,0.5c0,0.2,0,0.4,0.2,0.6c0.2,0.3,0.5,0.5,0.6,0.8c0.1,0.4-0.2,0.8-0.5,1.1c-0.5,0.6-1,1.2-1.5,1.9
			c-0.1,0.2-0.2,0.4-0.2,0.6c0,0.4,0.4,0.8,0.3,1.2c-0.1,0.3-0.4,0.5-0.6,0.7c-1,0.7-1.8,1.7-1.9,3c-0.3-1.9-1.1-3.8-2.3-5.3
			c-0.3-0.4-0.7-0.8-0.9-1.3c-0.1-0.2-0.1-0.4-0.1-0.6c-0.2-0.6-1-0.9-1.3-1.5c-0.2-0.4-0.2-0.9-0.5-1.3c-0.3-0.4-0.8-0.4-1-0.8
			c-0.1-0.2-0.2-0.5-0.3-0.7c-0.1-0.2-0.3-0.4-0.4-0.5c0,0-0.1-0.1-0.1-0.1c0,0,0.1-0.1,0.1-0.1c0,0,0-0.1,0-0.2
			c0-0.3-0.3-0.5-0.5-0.6c-0.3-0.2-0.6-0.4-0.9-0.6c0.3-0.2,0.6-0.4,0.8-0.7c0.3-0.4,0.4-0.9,0.3-1.4c0-0.4-0.2-0.8-0.4-1.1
			c-0.1-0.2-0.3-0.3-0.5-0.4c-0.4-0.4-0.5-1-0.7-1.5c-0.2-0.7-0.6-1.5-1.2-1.9c-0.3-0.2-0.7-0.3-1-0.5c-0.3-0.2-0.6-0.6-0.5-0.9
			c0.1-0.2,0.3-0.4,0.4-0.6c0.2-0.3,0.2-0.6,0.2-0.9c-0.1-0.3-0.2-0.6-0.5-0.8c-0.2-0.1-0.4-0.2-0.4-0.4c-0.1,0-0.3-0.1-0.4-0.2
			c-0.1-0.1-0.2-0.2-0.2-0.4c-0.1-0.3-0.1-0.6,0-0.9c0.1-0.4,0.1-0.9,0.2-1.3c0.1,0,0.2,0.1,0.3,0.1c0.1,0,0.2,0,0.3-0.1
			c0.2,0.3,0.4,0.6,0.7,0.9c0.7,0.9,1.3,1.8,1.7,2.9c0.1,0.4,0.3,0.8,0.6,1c0.1,0.1,0.3,0.1,0.4,0.2c0.1,0.1,0.3,0.2,0.4,0.4
			c0.3,0.4,0.6,0.8,0.9,1.1l0,0.1c0,0,0,0.1,0,0.1c0.1,0.1,0.1,0.1,0.2,0.1c0.9,0.2,1.9,0.4,2.6-0.1c0.7-0.4,1-1.3,1.6-1.9
			c0.4-0.4,1-0.7,1.1-1.3c-0.1,0-0.3-0.1-0.4-0.2c0.1-0.1,0.2-0.3,0.4-0.4c0.2-0.2,0.4-0.5,0.6-0.8c0.2-0.3,0.4-0.7,0.5-1.1
			c0.5-1.3,0.9-2.6,1.4-3.9c0.2-0.6,0.4-1.2,0.7-1.9c0.3-0.7,0.6-1.3,0.9-1.9c0.8-1.7,1.4-3.4,1.9-5.2c0.1-0.2,0.1-0.5,0.1-0.8
			c-0.1-0.4-0.4-0.7-0.7-1c-0.3-0.3-0.6-0.6-1-0.8c-0.2-0.1-0.4-0.2-0.6-0.2c-0.2,0-0.4,0-0.7,0c-0.6,0.2-1,0.8-1.1,1.4
			c-0.1,0.6-0.1,1.3-0.1,1.9c-0.1,0.9-0.4,1.8-0.5,2.7c0,0.5,0,1.1-0.1,1.6c-0.1,0.7-0.4,1.4-0.7,2c-0.8,1.5-1.8,2.8-3.1,3.8
			c-0.1,0.1-0.3,0.2-0.4,0.4c0-0.1,0-0.2,0-0.3c-0.1,0-0.2,0.1-0.3,0.1c0-0.1,0-0.2,0-0.4c-0.2-0.6-1-0.7-1.2-1.3c0-0.1,0-0.3,0-0.4
			c-0.1-0.5-0.4-0.9-0.5-1.4c-0.1-0.5,0-1-0.2-1.4c-0.2-0.3-0.4-0.5-0.6-0.7c-0.3-0.3-0.5-0.7-0.6-1.1c0-0.1-0.1-0.2-0.1-0.4
			c0-0.3,0-0.5-0.1-0.8c-0.2-0.5-0.8-0.9-1-1.4c-0.2-0.4-0.1-1-0.4-1.3c-0.2-0.2-0.4-0.3-0.6-0.3c-1.1-0.4-2.2-0.7-3.4-0.8
			c-0.7-0.1-1.4-0.1-1.8-0.6c-0.5-0.5-0.6-1.5-1.2-1.9c-0.6-0.4-1.4-0.1-1.8,0.4c-0.1,0.1-0.1,0.2-0.2,0.2c-0.1-0.3-0.1-0.7-0.1-1
			c0-0.1,0-0.2,0-0.2c1.1-0.4,2-1.1,2.6-2c0,0,0,0,0,0l0,0.1c0.1,0.2,0.2,0.3,0.3,0.4c0.1,0,0.2,0,0.3-0.1c0.1-0.1,0.3-0.2,0.4-0.3
			c0.1-0.1,0.1-0.1,0.2-0.2c0.1-0.1,0.2-0.3,0.3-0.5c0.1-0.3,0.2-0.5,0.2-0.8c0-0.3,0-0.6,0.1-0.8c0-0.2,0.1-0.4,0.2-0.6
			c0-0.1,0-0.1,0.1-0.2c0-0.1,0.1-0.2,0.1-0.2c0.1-0.5,0.2-1,0.2-1.5c0-0.1,0-0.2,0-0.3c0-0.3-0.1-0.7-0.2-1
			c-0.1-0.3-0.3-0.6-0.6-0.8c-0.4-0.3-1-0.5-1.3-0.9c-0.2-0.3-0.2-0.7-0.4-1.1c-0.1-0.4-0.4-0.8-0.7-1.1c-0.3-0.3-0.7-0.5-1.2-0.6
			c-0.5-0.1-1.1,0.1-1.5,0.4l0,0c-0.2,0.2-0.4,0.4-0.6,0.7c-0.3-0.1-0.6-0.3-0.8-0.5c-0.2-0.2-0.4-0.5-0.7-0.7
			c-0.2-0.2-0.5-0.3-0.8-0.4c-0.3-0.1-0.6,0-0.9,0.1c-0.3,0.1-0.6,0.3-0.8,0.6c-0.2,0.2-0.4,0.5-0.4,0.8c-0.1,0.5-0.1,1.1-0.4,1.5
			c-0.2,0.3-0.6,0.5-0.8,0.8c-0.2,0.2-0.3,0.4-0.3,0.6c0,0.1,0,0.3,0,0.4c0,0.1,0,0.1,0,0.2c0,0,0,0,0,0c0,0.1,0,0.1,0,0.2
			c0.1,0.2,0.2,0.5,0.4,0.7c0.2,0.2,0.4,0.3,0.6,0.4c0.1,0,0.2,0.1,0.3,0.1l0.3,0.1l0.1,0c-0.3,0.6-0.5,1.4-0.6,2.1
			c0,0.7,0.1,1.5,0.4,2.1c0,0.1,0,0.1,0,0.2c0,0.9,0,1.9,0.1,2.8c0,0.4,0.1,0.8-0.2,1.1c-0.1,0.1-0.2,0.2-0.3,0.3
			c0.1-0.2,0.3-0.3,0.4-0.5c-0.3-0.3-0.9-0.4-1.3-0.3c-0.9,0.1-1.8,0.3-2.6,0.8c-0.5,0.3-1.1,0.7-1.7,0.6c-0.4,0-0.7-0.2-1.1-0.1
			c-0.2,0.1-0.4,0.2-0.5,0.3c-0.1,0.1-0.3,0.1-0.4,0.1c-0.4-0.5-1-0.8-1.4-1.1c-0.5-0.5-1-1-1.4-1.5c-0.8-0.9-1.5-1.9-2.3-2.8
			c-0.6-0.8-1.3-1.7-1.4-2.7c0-0.1,0-0.2,0-0.3c0-0.5,0.1-1,0.2-1.4c0-0.1,0-0.2,0-0.3c-0.1-0.2-0.3-0.3-0.6-0.4
			c0-0.2,0.1-0.4,0.1-0.6c0.1-2.1,0-4.1,0.4-6.2c0.2-0.8,0.4-1.6,1-2.1c0.9-0.9,2.3-1.1,3-2.1c0.6-0.9,0.3-2.1-0.4-2.9
			c-0.7-0.8-1.8-1.1-2.8-1c-0.3,0-0.6,0.1-0.8,0.2c-0.2,0.2-0.4,0.5-0.5,0.8l-1,2.5c-0.3,0.6-0.5,1.3-0.7,2c-0.3,1-0.4,2.2-0.6,3.2
			c0,0.8-0.5,1.8-0.8,2.6c-0.3,0.8-0.7,1.7-1,2.5c-0.1,0.2-0.3,0.9-0.5,1.4c-0.1,0-0.1,0.1-0.2,0.1c-0.1,0.2-0.2,0.3-0.3,0.5
			c-0.2,0.3-0.6,0.4-0.8,0.7c-0.2,0.3-0.3,0.8,0,0.9c0.1,0,0.1,0,0.2,0c0,0,0.1,0,0.1,0c0.4,0.1,0.5,0.6,0.4,0.9
			c-0.1,0.4-0.2,0.7-0.3,1.1c-0.1,0.7,0.3,1.3,0.7,1.8c0.4,0.6,0.8,1.2,1.3,1.7c0.3,0.4,0.7,0.7,1.1,1.1c1.3,1.3,2.3,2.9,3.5,4.3
			c0.4,0.5,0.9,1,1.4,1.5c0.3,0.3,0.7,0.5,1.1,0.7l2,1.3c0.2,0.2,0.5,0.3,0.8,0.4c0.1,0,0.2,0,0.3,0c0,0.1,0,0.1,0,0.2
			c0.2,0.6,0.5,1.2,0.5,1.8c0,0.6,0,1.3,0,1.9c0,0.6,0.2,1.2,0.2,1.8c0.1,1.1-0.2,2.2-0.5,3.3c-0.4,1.6-0.6,3.3-1.4,4.7
			c-0.2,0.4-0.5,0.8-0.5,1.3c0,0.1,0,0.1,0,0.2l-0.4,0.2c-0.1,0.1-0.2,0.1-0.3,0.2c-0.5,0.3-0.9,0.6-1.1,1.1
			c-0.2,0.4-0.1,0.9-0.3,1.3c0,0,0,0,0,0.1c-0.2,0.4-0.6,0.7-0.7,1.1c-0.1,0.3,0.1,0.6,0,1c0,0,0,0,0,0c-0.1,0.2-0.1,0.3-0.1,0.5
			c0,0.1,0,0.1,0,0.2c0,0.2,0.1,0.3,0.3,0.5c0.1,0.1,0.2,0.2,0.3,0.2c0.1,0.1,0.2,0.1,0.3,0.2l0.1,0c0.1,0,0.2,0.1,0.3,0.1l0.1,0
			c0.1,0,0.2,0.1,0.3,0.1l0.1,0c0.1,0,0.2,0.1,0.3,0.1l0.1,0l0.1,0l0.2,0.1l0.1,0c0.1,0,0.2,0,0.3,0h0.1c0.1,0,0.2,0,0.2,0h0.1
			c0.1,0,0.2,0,0.2,0h0.1c0.1,0,0.2,0,0.3,0h0c0.1,0,0.2,0,0.3-0.1l0.1,0c0.1,0,0.2,0,0.3-0.1l0,0c0.1,0,0.2-0.1,0.3-0.1
			c0.4-0.2,0.7-0.3,1.1-0.5c0.2-0.1,0.5-0.3,0.7-0.4c0.2-0.1,0.4-0.2,0.5-0.2c0.5-0.2,0.9-0.3,1.4-0.2c0.2,0,0.5,0.1,0.7,0.1
			c0,0,0,0.1,0,0.1c0.2,1.1,0.4,2.3,0.6,3.4c0.3-0.2,0.6-0.4,1-0.6c-0.1,0.2-0.1,0.4-0.1,0.5c0,0.1,0,0.3,0,0.4
			c0,0.2,0.1,0.5-0.1,0.7c-0.1,0.1-0.2,0.2-0.3,0.3c0,0.1,0,0.3,0,0.4c0,0.1-0.1,0.3-0.2,0.4c-0.1,0.1-0.2,0.2-0.4,0.2
			c0.1,0.2,0.1,0.4,0,0.6c-0.1,0.2-0.2,0.4-0.4,0.5c-0.1,0-0.2,0.1-0.3,0.2c-0.1,0.1-0.1,0.2-0.2,0.4c-0.3,1.2-1,2.3-1.9,3.1
			c-0.3,0.3-0.6,0.6-0.9,0.9c-0.2,0.3-0.3,0.5-0.4,0.8c-0.6,1.6-1.3,3.1-1.9,4.7c-0.4,0.9-0.7,1.8-0.8,2.7c-0.3,2.6-2.6,4.8-2.1,7.3
			c0.1,0.6,0.3,1.2,0.7,1.7c0.5,0.6,1.2,0.9,1.9,1.2c1.8,0.7,3.8,1.1,5.7,1.5l3,0.6c0.6,0.1,1.2,0.2,1.8,0.3c0.7,0,1.5,0,2.2,0.2
			c0.4,0.1,0.9,0.3,1.3,0.4c0.4,0,0.9-0.1,1.1,0.3c0.2,0.3,0.1,0.7,0.3,1c0.4,0.5,1.2,0,1.6,0.4c0.1,0.2,0.2,0.3,0.2,0.5
			c0.1,0.1,0.1,0.2,0.2,0.3c0,0.1,0,0.3,0,0.4c0,0.6-0.2,1.1-0.3,1.6c-0.3,1-0.6,1.9-0.9,2.9c-0.1,0.3-0.2,0.7-0.2,1.1
			c0,0.2,0,0.3,0,0.5c0.1,0.5,0.4,1.1,0.9,1.2c0.4,0.1,0.8,0.1,1.2-0.1c0.3-0.2,0.7-0.4,1-0.6c0.5-0.4,1-0.9,1.4-1.4
			c1.2-1.8,0.8-4.2,1.6-6.2c0.6-1.3,1.6-2.4,2-3.8c0.1-0.3,0.1-0.5,0-0.8c-0.1-0.5-0.7-0.8-1.1-0.9h0c-0.4-0.1-0.8-0.3-1.2-0.3
			c-0.1,0-0.2,0-0.3-0.1c-0.2-0.2-0.4-0.4-0.5-0.7c0-0.1-0.1-0.3-0.1-0.4c0-0.1-0.1-0.1-0.1-0.1c-0.1,0-0.1-0.1-0.2-0.1
			c-0.2,0-0.6,0.1-0.8,0c-0.5,0-0.9-0.6-1.4-0.8c-0.5-0.2-1-0.2-1.5-0.1c-0.2,0-0.4,0-0.5,0c-0.2-0.1-0.4-0.2-0.6-0.4
			c-0.3-0.2-0.6-0.4-1-0.5c-0.4-0.1-0.7-0.1-1.1,0c-0.2,0.1-0.5,0.1-0.7,0.2c-0.5,0-0.8-0.4-1.1-0.8c-0.9-0.9-2.3-1.1-3.4-1.7
			c-0.2-0.1-0.3-0.2-0.4-0.4c-0.1-0.3,0.2-0.7,0.4-0.9l2-1.6c2.1-1.8,4.8-3.1,5.8-5.8c0.1-0.4,0.3-0.7,0.5-1
			c0.1-0.1,0.2-0.2,0.3-0.2c0.4-0.3,1-0.4,1.5-0.3c0.6,0.1,1.2,0.4,1.7,0.8c0.9,0.5,1.7,1.1,2.5,1.7c0.8,0.6,1.6,1.2,2.3,1.9
			c1.3,1.2,2.3,2.6,3.5,3.9c1.2,1.3,2.5,2.5,4.1,3.1c1.6,0.6,3.6,0.6,5-0.4c1.6-1.2,2.1-3.3,2.5-5.3c0.9-0.9,1.2-2.2,1.6-3.3
			c0.3-0.7,0.6-1.4,0.9-2.2c0.4-0.9,0.6-1.8,0.9-2.7c0.3-0.9,0.5-1.8,0.6-2.8c0.1-1.5-0.3-3.1,0.1-4.5c0.6-0.1,1.1-0.4,1.6-0.6
			c0.8-0.3,1.7-0.2,2.5-0.2h0.1c0.3,0,0.6,0,0.8-0.2c0.3-0.2,0.3-0.6,0.3-1C223.7,78.1,223.6,77.1,223,76.5z M188.4,35.7
			c-0.2,0-0.4,0.1-0.6,0L188.4,35.7z"/>
		<path class="st4" d="M189.3,50.8c-0.3,0.2-0.6,0.4-1,0.5l-1.7,0.6c-0.9,0.3-1.9,0.7-2.8,0.5c-0.5-0.1-2.9-0.4-3.2-0.8
			c-0.5-0.7,1.3-1.6,2-2.2c0.1-0.1,0.3-0.2,0.4-0.4c0.2-0.3,0.2-0.7,0.2-1.1c-0.1-0.9-0.2-1.9-0.1-2.8c0-0.2,0-0.4,0.1-0.7
			c0.2-1.1,1.3-0.7,2.1-0.4c1,0.3,1.9,0.7,2.8,1.2c0.3,0.1,0.5,0.3,0.7,0.6c0.4,0.5,0.2,1.2,0.2,1.9c0,0.5,0,1,0.3,1.4
			c0.2,0.1,0.3,0.3,0.5,0.5c0.1,0.2,0.1,0.4,0.1,0.6C189.6,50.5,189.5,50.7,189.3,50.8z"/>
		<path class="st4" d="M165.9,33.6c0.2-1.1,0.3-2.2,0.6-3.2c0.2-0.7,0.5-1.3,0.7-2l1.1-2.5c0.1-0.3,0.3-0.6,0.5-0.8
			c0.2-0.2,0.5-0.2,0.8-0.2c1,0,2.1,0.3,2.8,1c0.7,0.8,0.9,2,0.4,2.9c-0.7,1-2.1,1.3-3,2.1c-0.6,0.6-0.8,1.3-1,2.1
			c-0.4,2-0.3,4.1-0.4,6.1c0,0.6-0.2,1.4-0.7,1.7c-0.3,0.2-0.7,0.2-1.1,0.2l-1.6,0c-0.3,0-1.2,0.2-1.4,0c-0.3-0.3,0.4-2.1,0.5-2.5
			c0.3-0.9,0.6-1.7,1-2.5C165.4,35.4,165.9,34.4,165.9,33.6z"/>
		<path class="st5" d="M198.3,108.7c-0.4,1.4-1.4,2.5-2,3.8c-0.8,2-0.5,4.4-1.6,6.2c-0.4,0.5-0.8,1-1.4,1.4c-0.3,0.2-0.6,0.5-1,0.6
			c-0.4,0.2-0.8,0.2-1.2,0.1c-0.5-0.2-0.8-0.7-0.9-1.2c0-0.2,0-0.3,0-0.5c0.1-0.4,0.1-0.7,0.2-1c0.3-1,0.6-1.9,0.9-2.9
			c0.2-0.5,0.3-1.1,0.3-1.6c0-0.6-0.4-1.4-0.2-1.9c0.1-0.3,0.4-0.5,0.5-0.7c0.2-0.3,0.3-0.6,0.4-1c0.2-0.7,0.3-1.4,0.7-1.9
			c0.3-0.3,0.6-0.6,0.9-0.9c0.3-0.2,0.6-0.4,0.9-0.5c0.3-0.1,0.6,0,1,0c0.4,0.1,0.8,0.2,1.2,0.3h0c0.5,0.2,1,0.4,1.1,0.9
			C198.3,108.2,198.3,108.4,198.3,108.7z"/>
		<path class="st5" d="M223.7,79.3c0,0.4-0.1,0.8-0.3,1c-0.2,0.2-0.5,0.2-0.8,0.2h-0.1c-0.9,0-1.7,0-2.5,0.2
			c-0.6,0.2-1.2,0.6-1.8,0.7c-0.9,0.1-1.7-0.4-2.5-0.8c-0.7-0.4-1.5-0.8-2.3-1.1c-0.5-0.2-1.5-0.3-1.8-0.9c-0.1-0.3-0.2-0.5-0.2-0.8
			c0-0.1-0.1-0.2-0.1-0.4c-0.1-0.2-0.2-0.5-0.3-0.8c0-0.3,0.1-0.5,0.3-0.8c0.2-0.2,0.4-0.4,0.7-0.6c0.3-0.1,0.6-0.2,0.9-0.2
			c0.6,0,1.2,0,1.8,0.1l5.9,0.8c0.5,0.1,0.9,0.1,1.4,0.2c0.4,0.1,0.8,0.2,1.2,0.5C223.6,77.4,223.7,78.4,223.7,79.3z"/>
		<path class="st6" d="M218.5,80.8c-0.7,1.5-0.2,3.3-0.3,5c-0.1,0.9-0.3,1.9-0.6,2.8c-0.3,0.9-0.6,1.8-0.9,2.6
			c-0.3,0.7-0.6,1.4-0.9,2.2c-0.4,1.2-0.7,2.5-1.6,3.3c-0.4,2-0.9,4.1-2.5,5.3c-1.4,1-3.3,1.1-5,0.4c-1.6-0.6-3-1.8-4.1-3.1
			c-1.2-1.3-2.2-2.7-3.5-3.9c-0.7-0.7-1.5-1.3-2.3-1.9c-0.8-0.6-1.6-1.1-2.5-1.7c-0.5-0.4-1.1-0.6-1.7-0.8c-0.5-0.1-1,0-1.5,0.3
			c-0.1,0.1-0.2,0.1-0.3,0.2c-0.2,0.3-0.4,0.6-0.5,1c-1,2.6-3.7,4-5.8,5.7l-2,1.6c-0.3,0.2-0.6,0.5-0.4,0.9c0.1,0.2,0.2,0.3,0.4,0.4
			c1.1,0.6,2.5,0.8,3.4,1.7c0.3,0.3,0.7,0.7,1.1,0.8c0.2,0,0.5-0.1,0.7-0.2c0.4-0.1,0.7-0.1,1.1,0c0.4,0.1,0.7,0.2,1,0.5
			c0.2,0.2,0.4,0.3,0.6,0.4c0.2,0,0.4,0.1,0.5,0c0.5,0,1-0.1,1.5,0.1c0.5,0.2,0.8,0.8,1.4,0.8c0.3,0,0.6-0.1,0.8,0
			c0.1,0,0.1,0,0.2,0.1c0.1,0,0.1,0.1,0.1,0.1c0.1,0.1,0.1,0.3,0.1,0.4c0.1,0.3,0.4,0.5,0.6,0.8c0.3,0.4,0.4,1,0.3,1.5
			c-0.1,1.7-0.9,3.3-2.1,4.4c-0.4,0.4-0.8,0.6-1.3,0.7c-0.2,0.1-0.5,0-0.7-0.1c-0.2-0.1-0.4-0.3-0.5-0.5c-0.1-0.2-0.1-0.4-0.2-0.5
			c-0.4-0.4-1.2,0-1.6-0.4c-0.2-0.3-0.1-0.7-0.3-1c-0.2-0.3-0.7-0.2-1.1-0.3c-0.5,0-0.9-0.2-1.3-0.4c-0.7-0.2-1.5-0.1-2.2-0.2
			c-0.6-0.1-1.2-0.1-1.8-0.3l-3-0.6c-1.9-0.4-3.9-0.8-5.7-1.5c-0.7-0.3-1.4-0.6-1.9-1.2c-0.4-0.5-0.7-1.1-0.7-1.7
			c-0.4-2.6,1.9-4.7,2.1-7.3c0.1-0.9,0.5-1.8,0.8-2.7c0.6-1.6,1.3-3.1,1.9-4.7c0.1-0.3,0.2-0.6,0.4-0.8c0.3-0.3,0.6-0.6,0.9-0.9
			c0.9-0.8,1.6-1.9,1.9-3.1c0-0.1,0.1-0.3,0.2-0.4c0.1-0.1,0.2-0.1,0.3-0.2c0.2-0.1,0.3-0.3,0.4-0.5c0.1-0.2,0.1-0.4,0-0.6
			c0.1,0,0.3-0.1,0.4-0.2s0.2-0.2,0.2-0.4c0-0.1,0-0.3,0-0.4c0.1-0.1,0.2-0.2,0.3-0.3c0.1-0.2,0.1-0.4,0.1-0.7c0-0.1,0-0.3,0-0.4
			c0.1-0.5,0.3-1,0.6-1.3c0.6-0.6,1.4-0.4,2.2-0.5c0.8-0.2,1.6-0.4,2.3-0.7c2.1-0.8,4.3-1.3,6.5-1.5c2.2-0.2,4.5,0.2,6.5,1
			c0.3,0.1,0.6,0.3,0.8,0.5c0.2,0.1,0.3,0.3,0.4,0.5c0.1,0.3,0.2,0.5,0.3,0.7c0.3,0.3,0.7,0.5,1,0.8c0.3,0.3,0.3,0.9,0.5,1.3
			c0.3,0.6,1.1,0.9,1.3,1.5c0.1,0.2,0.1,0.4,0.1,0.6c0.1,0.5,0.5,0.9,0.9,1.3c1.3,1.5,2.1,3.3,2.3,5.3c0.1-1.2,0.9-2.3,1.9-3
			c0.3-0.2,0.6-0.4,0.6-0.7c0.1-0.4-0.3-0.8-0.3-1.2c0-0.2,0.1-0.4,0.2-0.6c0.5-0.7,1-1.3,1.5-1.9c0.3-0.3,0.6-0.7,0.5-1.1
			c-0.1-0.3-0.4-0.5-0.6-0.8c-0.1-0.2-0.2-0.4-0.2-0.6c0-0.2,0.1-0.4,0.2-0.5c0.2-0.2,0.4-0.4,0.5-0.7c0.1-0.3-0.1-0.7,0-1
			c0.1-0.3,0.3-0.5,0.5-0.6c0.3-0.3,0.7-0.5,1.1-0.7c0.6-0.2,1.3-0.2,2-0.1c1.1,0.2,2.4,0.4,3,1.3C218.6,79.3,218.8,80.2,218.5,80.8
			z"/>
		<path class="st7" d="M223.7,79.3c0,0.4-0.1,0.8-0.3,1c-0.2,0.2-0.5,0.2-0.8,0.2h-0.1c0.1-0.5,0.7-0.8,0.8-1.3c0-0.2,0-0.3,0-0.5
			c0-0.1-0.1-0.3-0.2-0.4c-0.5-0.7-1.3-1.1-2.1-1.4c-2.3-0.8-4.8-1-7.2-0.5c-0.7,0.1-1.3,0.3-1.9,0.6c-0.2,0.1-0.4,0.3-0.6,0.4
			c-0.1-0.2-0.2-0.5-0.3-0.8c0-0.3,0.1-0.5,0.3-0.8c0.2-0.2,0.4-0.4,0.7-0.6c0.3-0.1,0.6-0.2,0.9-0.2c0.6,0,1.2,0,1.8,0.1l5.9,0.8
			c0.5,0.1,0.9,0.1,1.4,0.2c0.4,0.1,0.8,0.2,1.2,0.5C223.6,77.4,223.7,78.4,223.7,79.3z"/>
		<path class="st7" d="M198.3,108.7c-0.4,1.4-1.4,2.5-2,3.8c-0.8,2-0.5,4.4-1.6,6.2c-0.4,0.5-0.8,1-1.4,1.4c-0.3,0.2-0.6,0.5-1,0.6
			c-0.4,0.2-0.8,0.2-1.2,0.1c-0.5-0.2-0.8-0.7-0.9-1.2c0-0.2,0-0.3,0-0.5l0,0c0.2,0.5,0.5,1,1.1,1.1c0.2,0,0.4,0,0.6-0.1
			c0.2-0.1,0.4-0.2,0.5-0.3c0.8-0.6,1.2-1.6,1.7-2.5c0.3-0.7,0.6-1.3,0.8-2.1c0.1-0.4,0.1-0.8,0.2-1.2c0.5-2,2-3.6,2.3-5.6
			c0-0.1,0-0.3,0-0.4c0-0.2-0.1-0.4-0.2-0.5c-0.1-0.2-0.1-0.4-0.2-0.6c0.5,0.2,1,0.4,1.1,0.9C198.4,108.2,198.4,108.4,198.3,108.7z"
			/>
		<path class="st7" d="M194.7,105.3c-0.2,0.6-0.6,1.1-1.1,1.5c-0.7,0.5-1.5,0.9-2.3,1c-0.4,0.1-0.8,0.1-1.2,0
			c-0.5-0.2-0.9-0.7-1.5-0.8c-0.4-0.1-0.8,0-1.2-0.1c-0.7-0.1-1.2-0.6-1.8-1.1c-1.7-1.3-4-1.7-5.8-3c-0.1,0-0.1-0.1-0.2-0.2
			c0-0.1,0-0.2,0-0.3c0-0.8,0.2-1.6,0.5-2.3c0.3-0.5,0.6-1,1-1.4c1.6-1.9,3.1-3.8,5-5.5c0.8-0.7,1.6-1.3,2.6-1.6
			c0.5-0.2,1.6-0.3,2.3,0c-0.1,0.1-0.2,0.1-0.3,0.2c-0.2,0.3-0.4,0.6-0.5,1c-1,2.6-3.7,4-5.8,5.7l-2,1.6c-0.3,0.2-0.6,0.5-0.4,0.9
			c0.1,0.2,0.2,0.3,0.4,0.4c1.1,0.6,2.5,0.8,3.4,1.7c0.3,0.3,0.7,0.7,1.1,0.8c0.2,0,0.5-0.1,0.7-0.2c0.4-0.1,0.7-0.1,1.1,0
			c0.4,0.1,0.7,0.2,1,0.5c0.2,0.2,0.4,0.3,0.6,0.4c0.2,0,0.4,0.1,0.5,0c0.5,0,1-0.1,1.5,0.1c0.5,0.2,0.8,0.8,1.4,0.8
			C194.1,105.3,194.4,105.3,194.7,105.3z"/>
		<path class="st5" d="M172.7,72.8c-0.5,0.3-0.9,0.6-1.1,1.1c-0.2,0.4-0.1,0.9-0.3,1.3c-0.2,0.4-0.6,0.7-0.7,1.1
			c-0.1,0.3,0.1,0.6,0,1c-0.1,0.2-0.1,0.3-0.1,0.5c0,0.4,0.3,0.6,0.6,0.8c0.6,0.4,1.4,0.7,2.1,0.8c0.8,0.1,1.5,0,2.2-0.3
			c0.6-0.2,1.2-0.6,1.8-0.9c0.6-0.3,1.3-0.5,2-0.5c0.4,0,0.8,0.2,1.2,0.2c0.2,0,0.4,0,0.6,0c0.2-0.1,0.4-0.2,0.5-0.3
			c0.1-0.2,0.2-0.4,0.2-0.6c0.3-1.3,0.2-2.7-0.1-4s-0.8-2.6-1.1-3.9c-0.2-1-0.4-2-0.8-2.9c-0.4-0.9-1.1-1.8-2-2.1
			c-0.1,0-0.2,0-0.2,0c-0.1,0-0.1,0.1-0.2,0.1c-0.7,0.8-1.3,1.7-1.6,2.8c-0.4,1.1-0.5,2.4-0.8,3.5c-0.1,0.5-0.3,1.1-0.7,1.5
			S173.1,72.6,172.7,72.8z"/>
		<path class="st7" d="M181.7,77.1c0,0.2-0.1,0.4-0.3,0.6c-0.1,0.1-0.3,0.2-0.5,0.3c-0.2,0.1-0.4,0.1-0.6,0c-0.4,0-0.8-0.2-1.2-0.2
			c-0.7,0-1.4,0.1-2,0.5c-0.6,0.3-1.2,0.7-1.8,0.9c-0.9,0.4-1.9,0.4-2.9,0.2c-0.5-0.1-1-0.3-1.4-0.6c-0.3-0.2-0.6-0.5-0.6-0.8
			c0-0.2,0.1-0.3,0.1-0.5c0.1-0.3-0.1-0.6,0-1c0.1-0.4,0.5-0.7,0.7-1.1c0.2-0.4,0.1-0.9,0.3-1.3c0.2-0.5,0.7-0.8,1.1-1.1
			c0.5-0.3,1-0.5,1.4-0.9c0-0.1,0.1-0.1,0.1-0.2c0.3-0.4,0.5-0.8,0.6-1.3c0.4-1.2,0.4-2.4,0.8-3.5c0.3-1,0.9-2,1.6-2.8
			c0-0.1,0.1-0.1,0.2-0.1c0.1,0,0.2,0,0.2,0c0.9,0.4,1.6,1.2,2,2.1c0.4,0.9,0.6,1.9,0.8,2.9c0.3,1.3,0.8,2.6,1.1,3.9
			C181.9,74.4,182,75.8,181.7,77.1z"/>
		<path class="st7" d="M188.8,47.9c-1.1,0.4-2.3,0.3-3.4-0.2c-1.1-0.5-1.9-1.4-2.4-2.4c0-0.2,0-0.4,0.1-0.7c0.2-1.1,1.3-0.7,2.1-0.4
			c1,0.3,1.9,0.7,2.8,1.2c0.3,0.1,0.5,0.3,0.7,0.6C189,46.5,188.9,47.2,188.8,47.9z"/>
		<path class="st4" d="M187.4,47.9c2.6,0,4.8-2.1,4.8-4.8c0-2.6-2.1-4.8-4.8-4.8c-2.6,0-4.8,2.1-4.8,4.8
			C182.6,45.8,184.7,47.9,187.4,47.9z"/>
		<path class="st7" d="M200.3,78.8c0,0.4-0.5,0.5-0.9,0.5c-1.4-0.1-2.8-0.5-4.2-0.4c-1.8,0.2-3.4,1.2-5.2,1.2
			c-0.7,0-1.4-0.1-2.1,0.1c-0.9,0.2-1.7,0.7-2.6,0.8c-0.8,0.1-1.6-0.2-2.3-0.2c-0.5,0-1.1,0.2-1.6,0.4c0.1-0.5,0.3-1,0.6-1.3
			c0.6-0.6,1.4-0.4,2.2-0.5c0.8-0.2,1.6-0.4,2.3-0.7c2.1-0.8,4.3-1.3,6.5-1.5c2.2-0.2,4.5,0.2,6.5,1c0.3,0.1,0.6,0.3,0.8,0.5
			C200.3,78.8,200.3,78.8,200.3,78.8z"/>
		<path class="st8" d="M185.2,51.8l-1.9-0.7l-0.8-0.3c-0.3-0.1-0.7-0.2-1-0.3c-0.9-0.1-1.8,0.6-2.3,1.3c-0.5,0.8-0.7,1.7-0.8,2.7
			c-0.2,1.3-0.4,2.5-0.6,3.8c-0.2,1.2-0.2,2.3-0.2,3.5c0.1,3,0.7,5.9,1.4,8.8c0.3,1.3,0.6,2.6,0.8,3.9c0.1,0.5,0.1,1.1,0.1,1.6
			c0.1,0.6,0.2,1.2,0.3,1.8l0.6,3.4c0.7-0.5,1.5-1,2.4-1c0.8,0,1.6,0.3,2.3,0.2c0.9-0.1,1.7-0.6,2.6-0.8c0.7-0.1,1.4,0,2.1-0.1
			c1.8-0.1,3.4-1.1,5.2-1.2c1.4-0.1,2.8,0.3,4.3,0.4c0.4,0,0.9-0.1,0.9-0.5c0-0.3-0.3-0.5-0.5-0.6c-1.1-0.7-2.2-1.5-3.2-2.3
			c-0.9-0.7-1.9-1.5-2.5-2.5c-1.6-2.4-1-5.7-2.4-8.3c-1.1-2.1,0-4.8,0-7.2c0-1.2,0-2.4-0.3-3.5c-0.2-0.6-0.4-1.3-0.6-1.9l-0.9-2.4
			c0-0.1-0.1-0.1-0.1-0.2c-0.1,0-0.1-0.1-0.2-0.1c-0.6,0-1.1,0.1-1.5,0.5c-0.4,0.4-0.7,0.9-1.1,1.2
			C186.4,51.7,185.8,52.1,185.2,51.8z"/>
		<path class="st5" d="M188.3,50.5c0.2-0.7,0.3-1.3,0.8-1.8c0.4-0.5,1.2-0.8,1.8-0.4c0.6,0.4,0.7,1.4,1.2,1.9
			c0.5,0.5,1.2,0.5,1.8,0.6c1.2,0.1,2.3,0.4,3.4,0.8c0.2,0.1,0.4,0.2,0.6,0.3c0.3,0.3,0.2,0.9,0.4,1.3c0.2,0.5,0.8,0.9,1,1.4
			c0.2,0.6,0,1.3-0.2,1.9c-0.4,1.1-0.6,2.3-0.9,3.4c-0.4,1.1-0.8,2.2-1.7,3.1c-0.4,0.4-0.9,0.7-1.4,0.5l-0.2,1.3
			c-0.1,0.3-0.1,0.6,0,0.8c0,0.1,0.1,0.3,0.2,0.4c0.1,0.1,0.2,0.2,0.4,0.2c0,0.2,0.3,0.3,0.4,0.4c0.1,0.1,0.2,0.2,0.3,0.3
			c0.1,0.1,0.1,0.3,0.2,0.4c0,0.2,0,0.3,0,0.5c0,0.2-0.1,0.3-0.2,0.4c-0.1,0.2-0.4,0.4-0.4,0.6c-0.1,0.3,0.1,0.7,0.5,0.9
			c0.3,0.2,0.7,0.3,1,0.5c0.7,0.4,1,1.1,1.2,1.8c0.2,0.5,0.3,1.1,0.7,1.5c0.2,0.2,0.3,0.3,0.5,0.4c0.3,0.3,0.4,0.7,0.4,1.1
			c0.1,0.5,0,1-0.3,1.4c-0.5,0.7-1.4,0.9-2.1,1.2c-1.3,0.5-2.3,1.5-3.4,2.2c-0.5,0.4-1,0.6-1.6,0.7c-0.8,0.1-1.5-0.2-2.3-0.3
			c-0.5,0-0.9,0.1-1.4,0.2l-1.4,0.3c0.1-1.1-0.5-2.2-0.9-3.3c-0.6-2-0.8-4.1-0.6-6.2c0.2-2.1,0.6-4.2,1-6.2c0.3-1.4,0.3-2.9,0.7-4.3
			c0.4-1.3,1-2.6,1.2-4C189.3,54.6,187.8,52.7,188.3,50.5z"/>
		<path class="st5" d="M199.1,54.9c0.1,0.2,0.2,0.5,0.3,0.8c0.1,0.4,0.3,0.8,0.6,1.1c0.2,0.2,0.5,0.5,0.6,0.7
			c0.2,0.4,0.1,0.9,0.2,1.4c0.1,0.5,0.5,0.9,0.5,1.4c0,0.1,0,0.3,0,0.4c0.2,0.6,1,0.7,1.2,1.3c0.1,0.4-0.1,0.8-0.1,1.2
			c0,0.1,0,0.2,0,0.4c-0.1,0.1-0.1,0.3-0.3,0.3c-0.8,0.8-1.3,1.7-1.6,2.8c-0.2,1.1-0.4,2.1-0.4,3.2l-0.9-1.2
			c-0.1-0.1-0.2-0.3-0.4-0.4c-0.1-0.1-0.3-0.1-0.4-0.2c-0.4-0.2-0.5-0.6-0.6-1c-0.4-1.1-0.9-2-1.7-2.9c-0.4-0.4-0.8-0.9-0.9-1.5
			c0-0.3,0-0.5,0-0.8c0.2-1.6,0.5-3.2,1.3-4.6c0.4-0.7,0.8-1.2,1.2-1.9C198.2,55.1,198.5,54,199.1,54.9z"/>
		<path class="st5" d="M175.6,56.4c0,0.2,0,0.4-0.1,0.6c-0.1,0.1-0.2,0.2-0.3,0.2c-0.1,0-0.3,0-0.4,0c-0.3-0.1-0.5-0.2-0.8-0.4
			c-0.7-0.4-1.3-0.8-2-1.3c-0.4-0.2-0.7-0.5-1.1-0.7c-0.5-0.4-1-0.9-1.4-1.5c-1.2-1.4-2.2-3-3.5-4.3c-0.4-0.4-0.7-0.7-1.1-1.1
			c-0.5-0.5-0.9-1.1-1.3-1.7c-0.4-0.6-0.8-1.2-0.7-1.8c0-0.4,0.2-0.7,0.3-1.1c0.1-0.4-0.1-0.8-0.4-0.9c0,0-0.1,0-0.1,0
			c-0.1,0-0.1,0-0.2,0c-0.3-0.1-0.3-0.7,0-0.9c0.2-0.3,0.6-0.4,0.8-0.7c0.1-0.2,0.2-0.3,0.3-0.5c0.2-0.1,0.3-0.2,0.6-0.3
			c1.4-0.4,2.8-0.5,4.2-0.2c0.2,0.1,0.5,0.1,0.6,0.4c0,0.1,0,0.2,0,0.3c-0.1,0.5-0.2,1-0.2,1.4c0,0.1,0,0.2,0,0.3
			c0.1,1,0.8,1.9,1.4,2.7c0.8,0.9,1.5,1.9,2.3,2.8c0.4,0.5,0.9,1,1.4,1.5c0.5,0.4,1.1,0.7,1.5,1.2c0.3,0.4,0.2,1,0.2,1.5
			C175.7,53.4,175.7,54.9,175.6,56.4z"/>
		<path class="st4" d="M205.9,66.4c0.2-0.2,0.4-0.5,0.6-0.8c0.2-0.3,0.4-0.7,0.5-1.1l1.4-3.9c0.2-0.6,0.4-1.2,0.7-1.9
			c0.3-0.7,0.6-1.3,0.9-1.9c0.8-1.7,1.4-3.4,1.9-5.2c0.1-0.2,0.1-0.5,0.1-0.8c-0.1-0.4-0.4-0.7-0.7-1c-0.3-0.3-0.6-0.6-1-0.8
			c-0.2-0.1-0.4-0.2-0.6-0.2c-0.2,0-0.4,0-0.7,0c-0.6,0.2-1,0.8-1.1,1.4c-0.1,0.6-0.1,1.3-0.1,1.9c-0.1,0.9-0.4,1.8-0.5,2.7
			c0,0.5,0,1.1-0.1,1.6c-0.1,0.7-0.4,1.4-0.7,2c-0.8,1.5-1.8,2.7-3.1,3.8c-0.3,0.3-0.7,0.6-0.9,0.9c-0.2,0.3-0.4,0.7-0.4,1.1
			c-0.2,0.6-0.1,1.3,0.2,1.8c0.4,0.7,1.1,1,1.8,1.1C205,67.4,205.2,67.1,205.9,66.4z"/>
		<path class="st5" d="M187.4,36.2c0.2-0.4,0.5-0.7,0.9-0.9c0.4-0.2,0.8-0.3,1.3-0.3c0.4,0.1,0.8,0.3,1.2,0.6
			c0.3,0.3,0.6,0.7,0.7,1.1c0.1,0.4,0.2,0.8,0.4,1.1c0.3,0.5,0.8,0.6,1.3,0.9c0.2,0.2,0.4,0.5,0.6,0.8c0.1,0.3,0.2,0.6,0.2,1
			c0,0.7-0.1,1.4-0.3,2c-0.1,0.3-0.2,0.6-0.2,0.8c0,0.3-0.1,0.6-0.1,0.8c-0.1,0.4-0.2,0.7-0.4,1c-0.2,0.3-0.4,0.6-0.7,0.8
			c-0.1,0.1-0.2,0.1-0.3,0.1c-0.2,0-0.3-0.2-0.4-0.4c-0.4-1.1-0.3-2.4-1-3.3c-0.3-0.4-0.7-0.6-1.1-0.8c-0.2-0.1-0.4-0.2-0.6-0.2
			c-0.3,0-0.6,0.1-0.8,0.3c-0.5,0.3-1.1,0.6-1.7,0.7c-0.3,0.1-0.6,0.1-0.9,0c-0.3-0.1-0.6-0.2-0.8-0.4c-0.3-0.3-0.6-0.7-0.9-0.9
			c-0.4-0.2-0.7-0.2-1.1-0.3c-0.2-0.1-0.4-0.2-0.6-0.4c-0.2-0.2-0.3-0.4-0.3-0.7c-0.1-0.2-0.1-0.5,0-0.7c0-0.2,0.2-0.5,0.3-0.7
			c0.2-0.3,0.6-0.4,0.8-0.8c0.3-0.4,0.3-1,0.4-1.5c0.1-0.3,0.2-0.6,0.4-0.8c0.2-0.2,0.5-0.4,0.8-0.5c0.3-0.1,0.6-0.1,0.9-0.1
			c0.3,0.1,0.6,0.2,0.8,0.4c0.2,0.2,0.4,0.5,0.7,0.7C186.8,35.9,187.1,36,187.4,36.2c0.3,0,0.7,0,1-0.1"/>
		<path class="st7" d="M191.3,71.4c-0.1,0.1-0.2,0.3-0.3,0.5c0,0.2,0,0.4,0,0.5c0.1,0.1,2.5-0.4,2.8-0.4c0.6-0.1,1.8,0,2.2-0.6
			c0.8-1.1-1.6-0.8-2.1-0.8C193.2,70.6,192,70.8,191.3,71.4z"/>
		<path class="st5" d="M168.9,40.5c-0.1,0.5-0.2,1-0.2,1.4c-0.7,0.1-1.5-0.1-2.1-0.3l-2-0.7c-0.1-0.1-0.3-0.1-0.4-0.1
			s-0.3,0.1-0.4,0.2c-0.3,0.3-0.8,1-1.2,1.3c-0.1,0-0.1,0-0.2,0c-0.3-0.1-0.3-0.7,0-0.9c0.2-0.3,0.6-0.4,0.8-0.7
			c0.1-0.2,0.2-0.3,0.3-0.5c0.2-0.1,0.4-0.2,0.6-0.3c1.4-0.4,2.8-0.5,4.2-0.2c0.2,0.1,0.5,0.1,0.6,0.4C169,40.3,169,40.4,168.9,40.5
			z"/>
		<path class="st7" d="M168.9,40.5c-0.1,0.5-0.2,1-0.2,1.4c-0.7,0.1-1.5-0.1-2.1-0.3l-2-0.7c-0.1-0.1-0.3-0.1-0.4-0.1
			s-0.3,0.1-0.4,0.2c-0.3,0.3-0.8,1-1.2,1.3c-0.1,0-0.1,0-0.2,0c-0.3-0.1-0.3-0.7,0-0.9c0.2-0.3,0.6-0.4,0.8-0.7
			c0.1-0.2,0.2-0.3,0.3-0.5c0.2-0.1,0.4-0.2,0.6-0.3c1.4-0.4,2.8-0.5,4.2-0.2c0.2,0.1,0.5,0.1,0.6,0.4C169,40.3,169,40.4,168.9,40.5
			z"/>
		<path class="st7" d="M187,85.9c0.3,0.1,0.7,0.3,0.8,0.6l-2.8-0.7l-1.4-0.4c-0.3-0.1-1.2-0.1-1.3-0.3c-0.2-0.3,0.6-0.1,0.8-0.1
			c0.5,0.1,0.9,0.1,1.4,0.2C185.3,85.5,186.1,85.7,187,85.9z"/>
		<path class="st7" d="M188,88.4c-0.2-0.2-0.9-0.1-1.2-0.2c-0.4-0.1-0.9-0.2-1.3-0.4c-0.9-0.3-1.7-0.6-2.6-0.8c-0.2,0-0.7,0-0.7-0.3
			c0-0.2,0.6-0.3,0.7-0.3c0.8-0.1,1.8,0.3,2.5,0.6C186.4,87.4,187.2,87.8,188,88.4z"/>
		<path class="st7" d="M186.3,83.7c-0.9-0.2-1.7-0.8-2.6-0.9c-0.2,0-0.5-0.1-0.7-0.2c-0.1-0.1-0.2-0.2-0.2-0.4
			c0.6,0,1.3,0.2,1.9,0.5c0.3,0.1,0.6,0.3,0.9,0.5C185.8,83.3,186.1,83.7,186.3,83.7z"/>
		<path class="st5" d="M203,62.3c-0.1,1,0.1,2,0.6,2.9c0.5,0.8,1.4,1.5,2.3,1.8c-0.1,0.6-0.7,0.9-1.1,1.3c-0.6,0.6-0.9,1.4-1.6,1.8
			c-0.8,0.5-1.8,0.3-2.6,0.1c-0.1,0-0.2,0-0.2-0.1c0,0,0-0.1,0-0.1c-0.3-1.1-0.5-2.2-0.2-3.3c0.2-0.9,0.8-1.7,1.3-2.5
			C201.9,63.4,202,62.6,203,62.3z"/>
		<path class="st5" d="M181.7,48.6c-0.9,0.1-1.8,0.3-2.6,0.8c-0.5,0.3-1.1,0.7-1.7,0.6c-0.4,0-0.7-0.2-1.1-0.1
			c-0.2,0.1-0.4,0.2-0.5,0.3c-0.1,0.1-0.2,0.1-0.3,0.1c-0.1,0-0.2,0-0.3,0l-0.2,3.3c-0.1,1.3-0.2,2.5,0.1,3.8
			c0.2,0.6,0.5,1.2,0.5,1.8c0,0.6,0,1.3,0,1.9c0,0.6,0.2,1.2,0.2,1.8c0.1,1.1-0.2,2.2-0.5,3.3c-0.4,1.6-0.6,3.3-1.4,4.7
			c-0.2,0.4-0.5,0.8-0.5,1.3c0,0.1,0,0.1,0,0.2c-0.2,0.1-0.5,0.3-0.7,0.4c-0.5,0.3-0.9,0.6-1.1,1.1c-0.2,0.4-0.1,0.9-0.3,1.3
			c-0.2,0.4-0.6,0.7-0.7,1.1c-0.1,0.3,0.1,0.6,0,1c-0.1,0.2-0.1,0.3-0.1,0.5c0,0.4,0.3,0.6,0.6,0.8c0.4,0.3,0.9,0.5,1.4,0.6l1.4-5.7
			c1.3-2.4,2.4-4.9,3.2-7.5c0.2-0.8,0.6-1.7,0.9-2.5c0.3-0.5,0.5-0.9,0.7-1.4c0.2-0.6,0.2-1.3,0.3-1.9c0.1-0.7,0.3-1.5,0.6-2.2
			c0.3-0.8,0.6-1.5,0.6-2.3c0.1-1.2-0.3-2.4,0.1-3.4c0.2-0.4,0.4-0.8,0.7-1.1c0.6-0.8,1.2-1.5,1.8-2.3
			C182.7,48.6,182.1,48.6,181.7,48.6z"/>
		<g class="st9">
			<path class="st7" d="M188.4,35.4l-0.3,0l0,0C188.2,35.4,188.3,35.4,188.4,35.4z"/>
			<path class="st7" d="M193.8,40.4c-0.1,0.5-0.2,0.9-0.3,1.4c-0.1,0.3-0.2,0.6-0.2,0.8c0,0.3-0.1,0.6-0.1,0.8
				c-0.1,0.4-0.2,0.7-0.4,1c-0.2,0.3-0.4,0.6-0.7,0.8c-0.1,0.1-0.2,0.1-0.3,0.1c-0.2,0-0.3-0.2-0.4-0.4c-0.4-1.1-0.3-2.4-1-3.3
				c-0.3-0.4-0.7-0.6-1.1-0.8c-0.2-0.1-0.4-0.2-0.6-0.2c-0.3,0-0.6,0.1-0.8,0.3c-0.5,0.3-1.1,0.6-1.7,0.7c-0.3,0.1-0.6,0.1-0.9,0
				c-0.3-0.1-0.6-0.2-0.8-0.4c-0.3-0.3-0.6-0.7-0.9-0.9c-0.4-0.2-0.7-0.2-1.1-0.3c-0.2-0.1-0.4-0.2-0.6-0.4
				c-0.2-0.2-0.3-0.4-0.3-0.6c0,0,0-0.1,0-0.1c-0.1,0.3-0.1,0.5,0,0.8c0.1,0.2,0.2,0.5,0.3,0.6c0.2,0.2,0.4,0.3,0.6,0.4
				c0.4,0.1,0.8,0.1,1.1,0.3c0.3,0.2,0.6,0.6,0.9,0.9c0.2,0.2,0.5,0.3,0.8,0.4c0.3,0.1,0.6,0.1,0.9,0c0.6-0.1,1.1-0.4,1.7-0.7
				c0.2-0.2,0.5-0.3,0.8-0.3c0.2,0,0.4,0.1,0.6,0.2c0.4,0.2,0.8,0.5,1.1,0.9c0.7,0.9,0.6,2.2,1,3.3c0.1,0.2,0.2,0.4,0.4,0.4
				c0.1,0,0.2,0,0.3-0.1c0.3-0.2,0.5-0.5,0.7-0.8c0.2-0.3,0.3-0.7,0.4-1c0-0.3,0-0.6,0.1-0.8c0.1-0.3,0.1-0.6,0.2-0.8
				C193.8,41.8,193.9,41.1,193.8,40.4C193.8,40.4,193.8,40.4,193.8,40.4z"/>
		</g>
		<path class="st10" d="M178.7,59.5l-0.2,2.2c0,0.3-0.6,7.4-4.8,15.6c-3.6,7.1-10.5,16.3-23.7,21.5c-1,0.4-2.1,0.8-3.2,1.1l-1.2-3.9
			c3.1-1,6.1-2.3,8.9-3.9c6.7-3.9,11.9-9.4,15.5-16.5c1.9-3.8,3.3-7.8,4.1-12h-15v-4.1H178.7z"/>
		<path class="st11" d="M148.5,98.8c13.1-5.2,20.1-14.4,23.7-21.5c4.2-8.2,4.7-15.3,4.8-15.6l0.2-2.2h1.7l-0.2,2.2
			c0,0.3-0.6,7.4-4.8,15.6c-3.6,7.1-10.5,16.3-23.7,21.5c-1,0.4-2.1,0.8-3.2,1.1l-0.2-0.5C147.4,99.2,148,99,148.5,98.8z"/>
		<path class="st10" d="M122.2,96.1l-1.2,3.9c-1.1-0.4-2.2-0.7-3.2-1.1c-13.1-5.2-20.1-14.4-23.7-21.5c-4.2-8.2-4.7-15.3-4.8-15.6
			l-0.2-2.2h19.5v4.1h-15c0.8,4.2,2.2,8.2,4.1,12c3.6,7.1,8.8,12.7,15.5,16.5C116.1,93.8,119.1,95.1,122.2,96.1z"/>
		<path class="st11" d="M119.4,98.8c-13.1-5.2-20.1-14.4-23.7-21.5c-4.2-8.2-4.7-15.3-4.8-15.6l-0.2-2.2h-1.7l0.2,2.2
			c0,0.3,0.6,7.4,4.8,15.6c3.6,7.1,10.5,16.3,23.7,21.5c1,0.4,2.1,0.8,3.2,1.1l0.2-0.5C120.5,99.2,119.9,99,119.4,98.8z"/>
		<path class="st10" d="M156.4,133.5v21.9h-45v-21.9l1.4-1.9c14.6-5.2,17.5-18.7,18.1-24.1c0.1-0.7,0.1-1.5,0.2-2.2h5.6
			c0,0.7,0.1,1.5,0.1,2.2c0.6,5.4,3.6,18.9,18.1,24.1L156.4,133.5z"/>
		<path class="st7" d="M156.4,133.5h-45v2.7h45V133.5z"/>
		<path class="st11" d="M115.2,131.6c14.6-5.2,17.5-18.7,18.1-24.1c0.1-0.7,0.1-1.5,0.2-2.2h-2.4c0,0.7-0.1,1.5-0.2,2.2
			c-0.6,5.4-3.6,18.9-18.1,24.1l-1.4,1.9v21.9h2.4v-21.9L115.2,131.6z"/>
		<path class="st7" d="M104.6,59.5h4v4.1h-3.7C104.8,62.3,104.7,60.9,104.6,59.5z"/>
		<path class="st7" d="M122.2,96.1l-1.2,3.9c-1.1-0.4-2.2-0.7-3.2-1.1c-1.7-2.1-3.2-4.3-4.5-6.6C116.1,93.8,119.1,95.1,122.2,96.1z"
			/>
		<path class="st7" d="M145.7,96.1c3.1-1,6.1-2.3,8.9-3.9c-1.3,2.3-2.8,4.6-4.5,6.6c-1,0.4-2.1,0.8-3.2,1.1L145.7,96.1z"/>
		<path class="st7" d="M163.3,59.5c-0.1,1.4-0.2,2.7-0.4,4.1h-3.7v-4.1H163.3z"/>
		<path class="st7" d="M136.9,107.5c-1.9,0.4-3.9,0.4-5.9,0c0.1-0.7,0.1-1.5,0.1-2.2h5.6C136.7,106,136.8,106.8,136.9,107.5z"/>
		<path class="st10" d="M105.1,52.8c0.1,30.1,13,54.5,28.9,54.5s28.8-24.4,28.9-54.5H105.1z"/>
		<path class="st11" d="M110.2,52.8h-5.1c0.1,30.1,13,54.5,28.9,54.5c0.9,0,1.7-0.1,2.6-0.2C121.8,104.6,110.3,81.3,110.2,52.8z"/>
		<path class="st5" d="M149.2,141.9h-30.6v7.9h30.6V141.9z"/>
		<path class="st11" d="M120.1,143h29.2v-1.1h-30.6v7.9h1.4V143z"/>
		
			<linearGradient id="SVGID_4_" gradientUnits="userSpaceOnUse" x1="9509.9902" y1="57.4863" x2="21296.5996" y2="57.4863" gradientTransform="matrix(1 0 0 -1 0 155.89)">
			<stop  offset="0" style="stop-color:#808080;stop-opacity:0.25"/>
			<stop  offset="0.54" style="stop-color:#808080;stop-opacity:0.12"/>
			<stop  offset="1" style="stop-color:#808080;stop-opacity:0.1"/>
		</linearGradient>
		<path class="st12" d="M88.7,81.9c-0.6-0.2-3.8-2.8-4-3.9c-0.2-1.2,1.7-12,1.7-12s-0.2,0-0.5,0v-0.2l0.4-14.2c0,0,1.7-9.6-1.5-9
			c-3.1,0.6-1.2,9-1.2,9s-0.4,4.3-0.6,5.6c-0.2,1.2-1.3,6.3-0.6,7.9c0,0.1,0.1,0.1,0.1,0.2c0,0,0.1,5.4-1.2,6.1
			c-1.3,0.7-1.8,4.2-1.9,4.5l-0.1,0c-0.4-0.2-0.7-0.5-1-0.9c0,0-0.1-0.1-0.1-0.1c0.9-1,1.4-2.3,1.3-3.6c0-1.3-0.5-2.6-1.5-3.5
			c-0.4-0.4-0.9-0.8-1.5-1.1c0-0.5-0.1-0.9-0.3-1.3c-0.6-1.3-4.1-3.1-6.5-3.1c-1.1,0-2,0.3-2.4,1.2c-0.2,0.4-0.1,1-0.2,1.4
			c-0.1,1-0.8,1.7-1.5,2.3c-0.3-0.4-0.7-0.7-1-1c-0.8-0.6-2.4-2.6-2.4-2.6s-5-5.1-5.3-6.6c-0.4-1.4-5.3-9.9-6.4-8.4
			c-1.1,1.5,3.8,7.9,3.8,7.9s0.9,2.3,1.6,3.1c0.7,0.8,6.2,8.8,6.2,8.8l0.3,0.5c-1.2,0.6-2.2,1.4-2.6,2.6c-0.5,1.8,0.7,3.6,1.5,5.3
			c1.6,3.3,1.8,7.4-0.2,10.4c-1.9,2.6-5.1,3.9-8.2,5c1.5,1.2,3.3,1.8,5.2,1.7c-0.7,2-3.2,2.7-5.3,3.1c1.1,1.1,2.7,1.5,4.2,1.7
			c0.7,0.1,1.5,0.2,2.3,0.2h0.2l0.2,0c0.3,0,0.5,0,0.8-0.1c1.1-0.2,2.2-0.8,2.7-1.8c0.5-0.8,0.6-2,1.5-2.4c0.2-0.1,0.5-0.2,0.7-0.2
			h0c0.2,0,0.3,0,0.5,0l3.6,0c0.2,0,0.3,0,0.5,0c1,0,2.1-0.2,2.6-1c0.2-0.4,0.3-0.9,0.3-1.3c0.1-1.1,0-2.3,0-3.5
			c0.3,2.1,0.6,5.4-0.1,6.6c-0.6,0.9-1.4,1.7-2.2,2.4c-0.2,0.2-0.4,0.4-0.6,0.6c-0.1,0.1-0.2,0.1-0.2,0.1l-0.1,0.2
			c-0.3,0.4-0.5,0.9-0.6,1.4c0,0.1-0.1,0.3,0,0.4c0.1,0.2-0.6,0.9-0.4,1.2c-1.7,2-2,5-2,5l-3.1,4.7c-1.6,4.2-4,4.6-4,4.6
			s-5.6-3.8-5.8-4c-0.2-0.2-2.3-1.1-2.3-1.1c-0.3-0.4-0.6-0.8-1.1-1c-0.7-0.3-0.8-1.4-0.8-1.4c-0.1-2.7-1.7-2.9-1.7-2.9
			c-1.3-0.1-2.2,0.1-3,0.5l-0.2,0c-1.1,0.1-2.4,0.2-3.8,0.3c-4,0.3-4.9,2.8-4.9,2.8s-0.5,0.6,0.2,1.2c0.6,0.6,4.8,0,4.9,0
			c-0.3,0-0.6,0-0.9-0.1c0.6,0,1.5,0,2.3,0h0.2c0,0.4-0.1,0.8-0.1,1.2c0,0.8,2.1,1.3,2.1,1.3l6.4,5.7c0,0,4,1.8,6.6,4.4
			c2.6,2.6,4.8,0.4,4.8,0.4c2.7-0.7,10.6-10.2,10.6-10.2c0,0.3,0.2,9.5,0.5,11.4c0,0.1,0,0.2,0.1,0.3c0.4,0.8-0.1,3-0.3,3.9
			c-0.1,0.8-0.2,1.5-0.2,2.3c0,0-2.9,11.2-2.7,12.2c0.2,1-1.6,5.6-1.6,5.6v3.8l0.3,0c0,0.1-0.1,0.1-0.1,0.2l0,0c0,0,2,0.4,3.3,0.3
			c1.3-0.1,3.6,1,3.6,1s0.8,0.4,3.1,0.5c2.4,0.2,2.4-1,2.4-1c-0.3-1.6-4-2.2-4.1-2.2c-0.3-0.2-0.6-0.4-0.8-0.6l0,0c0,0,0-0.1,0-0.1
			c0.4-1.6-1.8-2.3-1.8-2.3v-0.4c1.4-0.7,1.7-5.8,1.7-5.8s2.1-6.2,2.4-7.3c0.3-1,0-2.6,0-2.6l0.2-1.3c0,0,0.5-0.9,0.5-1.1
			c0.1-0.5,0.2-0.9,0.5-1.3c0.3-0.4-0.4-1.3-0.4-1.3l0.6-1.6v-1.7l1.4-6.3c0,0,1.5-7.4,1-9.8s0.6-3.6,0.6-3.6
			c-0.1,0.1-0.2,0.1-0.3,0.1c0.1-0.3,0.3-0.7,0.4-1l3.2,0.4v0h1.2c0,0-0.4-4.5-0.4-6.4s1.2-8.4,1.2-8.4S89.3,82.1,88.7,81.9z
			 M74.4,76.6c0,0.2,0,0.4,0,0.6l-0.1,0.1l-0.1-0.1l-0.1,0.2l0,0c-0.3-0.2-0.5-1.1-0.7-0.9l0,0c-0.1-0.1-0.1-0.1-0.2,0l0,0
			c0-0.1,0-0.1,0-0.2C73.5,76.5,74,76.5,74.4,76.6C74.4,76.5,74.4,76.6,74.4,76.6z M85.1,97.8L85.1,97.8l0,0.3
			C85.1,98,85.1,97.9,85.1,97.8z M73.4,152l-0.4-0.1l0.2,0L73.4,152L73.4,152L73.4,152z M77.9,151.3c-0.1-0.1-0.3-0.2-0.4-0.3
			C77.5,151.1,77.7,151.2,77.9,151.3z"/>
		<path class="st13" d="M86.7,93.2l-2.9,7.5h0.7l-2.7,2.2l4.9,0.6V93.2z"/>
		<path class="st7" d="M86.7,93.2l-2.9,7.5l-0.7-0.2l-1.3,2.4l4.9,0.6V93.2z"/>
		<path class="st13" d="M82.2,98.1h4.5l1.7-13.7h-6.2V98.1z"/>
		<path class="st7" d="M82.2,98.1h4.5l1.7-13.7h-6.2V98.1z"/>
		<path class="st14" d="M73.3,87.6l1-0.2l2.2-0.4c0,0,6.8-1.5,8.1-1.6c0.8-0.1,1.7-0.3,2.4-0.7c0.4-0.2,0.6-0.3,0.6-0.3L85.3,80
			l-3.8-2.8c0,0-2.4-0.5-3.4-1.9c-0.2-0.3-0.4-0.7-0.4-1c-0.1-0.4,0-0.7,0.1-1.1c0.6-1.9-3.7,1.8-3.7,1.8s0,0.9,0,2
			c0,0.2,0,0.5,0,0.7c0,0.2,0,0.3,0,0.5c-0.1,1.1-0.3,2.3-0.7,3C72.3,82.9,73.3,87.6,73.3,87.6z"/>
		<path class="st7" d="M74.2,77.1L74.2,77.1c0.3,0,0.4-0.4,0.6-0.4c1.3-0.1,2.6-0.4,3.4-1.4c-0.2-0.3-0.4-0.7-0.4-1
			c-0.1-0.4,0-0.7,0.1-1.1c0.6-1.9-3.7,1.8-3.7,1.8S74.2,76,74.2,77.1z"/>
		<path class="st14" d="M68.9,71.7c0,0.7,0.1,1.4,0.4,2c0.3,0.6,0.6,1.2,1.1,1.7c0.5,0.5,1.1,0.9,1.7,1.1c0.6,0.3,1.3,0.4,2,0.4
			c0.2,0,0.3,0,0.5,0c1-0.1,2-0.5,2.8-1.1s1.4-1.5,1.7-2.4c0.3-1,0.4-2,0.1-3c-0.3-1-0.8-1.9-1.5-2.5c-0.8-0.7-1.7-1.1-2.7-1.3
			c-1-0.2-2,0-3,0.4c-0.9,0.4-1.7,1.1-2.3,1.9C69.2,69.7,68.9,70.7,68.9,71.7z"/>
		<path class="st5" d="M67.3,63.7c-0.2,0.4-0.1,0.9-0.2,1.4c-0.3,1.7-2,2.7-3.5,3.4c-1.6,0.7-3.3,1.6-3.8,3.2
			c-0.5,1.8,0.6,3.6,1.5,5.2c1.6,3.2,1.8,7.4-0.2,10.4c-1.8,2.6-5.1,3.9-8.1,5c1.5,1.1,3.3,1.8,5.1,1.7c-0.7,2-3.2,2.7-5.3,3.1
			c1.1,1.1,2.7,1.5,4.2,1.7c1.1,0.2,2.2,0.3,3.3,0.1c1.1-0.2,2.1-0.8,2.7-1.8c0.5-0.8,0.6-2,1.5-2.4c0.4-0.2,0.8-0.2,1.2-0.2l3.6,0
			c1.1,0,2.4-0.1,3-1c0.2-0.4,0.3-0.9,0.3-1.3c0.2-2.4-0.3-4.8,0.7-7c0.3-0.6-1.6-1.7-1.4-2.4c0.7-2.4,0.8-4.2,0.8-6.7
			c0-1.9,1.2-3.5,2.3-5.1s1.9-3.6,1.1-5.4C75.2,63.8,68.4,61,67.3,63.7z"/>
		<path class="st14" d="M72.1,151.3l0.9,0.6l0.1,0.1l0,0l1.1,0.7l2.5,0.4L79,153c0,0,0.6-1.3-0.4-1.3c-0.3,0-0.6-0.1-0.9-0.3
			l-0.1-0.1c-0.1-0.1-0.3-0.2-0.4-0.3c-0.3-0.2-0.6-0.4-0.8-0.6c-0.3-0.3-0.6-0.5-0.6-0.5L72.1,151.3z"/>
		<path class="st7" d="M73,151.9l0.1,0.1l0,0l1.1,0.7l2.5,0.4L79,153c0,0,0.6-1.3-0.4-1.3c-0.3,0-0.6-0.1-0.9-0.3
			c0.2,0.1,0.3,0.3,0.3,0.4c0,0.3-1.6,1-1.6,1l-2.4-0.6C74.1,152.2,73.7,152,73,151.9L73,151.9L73,151.9z"/>
		<path class="st5" d="M69,152.5c0,0,1.9,0.4,3.3,0.3c1.3-0.1,3.6,1,3.6,1s0.8,0.4,3.1,0.5c2.3,0.2,2.3-1,2.3-1
			c-0.3-1.6-4-2.2-4.1-2.2c0,0,0.2,0.1,0.4,0.3c0.3,0.2,0.5,0.4,0.6,0.6c0,0.3-1.6,1-1.6,1l-2.4-0.6c0,0-0.4-0.1-1-0.3h-0.1
			c-0.8-0.2-1.6-0.4-2.5-0.5C69.6,151.4,69.1,152.2,69,152.5C69,152.4,69,152.5,69,152.5z"/>
		<path class="st14" d="M38.3,109.5l1,0.8c0,0,0.3,0,0.7,0h0.1c0.6,0,1.5,0,2.3,0c0.5,0,1,0,1.5,0.1c0.5,0.2,1.4-3,1.4-3l-1-0.2
			L44,107l-0.2-0.1l-0.8-0.2l-2.6,0.3l-1.8,1.2L38.3,109.5z"/>
		<path class="st7" d="M38.3,109.5l1,0.8c0,0,0.3,0,0.7,0c-0.2-0.1-0.4-0.2-0.5-0.4c-0.7-1.9,2.6-2.7,2.6-2.7l1.5-0.1l0.3,0h0.2
			L44,107l-0.2-0.1l-0.8-0.2l-2.6,0.3l-1.8,1.2L38.3,109.5z"/>
		<path class="st5" d="M36.3,110.3c0.6,0.6,4.7,0,4.9,0c-0.3,0-0.6,0-0.9-0.1c-0.2,0-0.3-0.1-0.4-0.2c-0.1-0.1-0.2-0.2-0.3-0.3
			c-0.7-1.9,2.6-2.7,2.6-2.7l1.5-0.1l0.3,0l3.8-0.2l0.2-1c0,0-1.2,0.1-3.1,0.3c-1.1,0.1-2.4,0.2-3.8,0.3c-4,0.3-4.9,2.8-4.9,2.8
			S35.6,109.7,36.3,110.3z"/>
		<path class="st14" d="M82.2,65.4c0,0.1,0.1,0.1,0.1,0.2l0.9,1.3l2.4,0.2l0-0.9L86,52.1c0,0,1.6-9.5-1.5-9c-3.1,0.5-1.2,9-1.2,9
			s-0.4,4.3-0.6,5.5C82.5,58.9,81.5,63.9,82.2,65.4z"/>
		<path class="st14" d="M76.9,100.6l0.7,1.2l1.5,2.6c0,0,2.7,1,3.4,0.2c0.4-0.4,0.8-1.9,1.1-3.1c0.2-1,0.4-1.8,0.4-1.8L76.9,100.6z"
			/>
		<path class="st7" d="M76.9,100.6l0.7,1.2c0,0,0.1-0.1,0.1-0.1c0.8-1,4.1-0.2,5.9-0.1c0.2-1,0.4-1.8,0.4-1.8L76.9,100.6z"/>
		<path class="st7" d="M42.5,110.2c0.5,0,1,0,1.5,0.1c0.5,0.2,1.4-3,1.4-3L44,107l3.8-0.2l0.2-1c0,0-1.2,0.1-3.1,0.3
			c-0.4,0.2-0.7,0.5-1,0.9l-0.1,0.1C42.9,108,42.6,109.3,42.5,110.2z"/>
		<path class="st7" d="M72.1,151.3l1.1,0.7c1.6-0.3,3-0.7,3.2-1.4c0,0,0,0,0,0c-0.3-0.3-0.6-0.5-0.6-0.5L72.1,151.3z"/>
		<path class="st7" d="M69,152.4c1.4-0.1,2.8-0.2,4.1-0.4c-0.8-0.2-1.6-0.4-2.5-0.5C69.6,151.4,69.1,152.2,69,152.4z"/>
		<path class="st5" d="M42.6,111.4c0,0.8,2.1,1.3,2.1,1.3l6.4,5.7c0,0,4,1.8,6.6,4.4c2.6,2.6,4.8,0.4,4.8,0.4
			C65.2,122.4,73,113,73,113s0.2,10.8,0.5,11.6c0.4,0.8-0.1,3-0.3,3.9c-0.1,0.8-0.2,1.5-0.2,2.3c0,0-2.9,11.2-2.7,12.2
			c0.2,1-1.6,5.5-1.6,5.5v3.8c0,0,7.1-0.3,7.5-1.9c0.4-1.6-1.8-2.3-1.8-2.3v-0.4c1.4-0.7,1.7-5.8,1.7-5.8s2.1-6.2,2.4-7.3
			c0.3-1,0-2.6,0-2.6l0.2-1.3c0,0,0.5-0.9,0.5-1.1c0.1-0.5,0.2-0.9,0.5-1.3c0.3-0.4-0.4-1.3-0.4-1.3l0.6-1.6v-1.7l1.4-6.3
			c0,0,1.5-7.3,1-9.8c-0.5-2.4,0.6-3.6,0.6-3.6c-2.4,1.3-3.7-1.6-4.1-2.8c-0.1-0.3-0.2-0.5-0.2-0.5s-3.4-1.2-6.5-0.9
			c-0.6,0.1-1.3,0.2-1.9,0.4c-3.5,1.2-4,6.4-4,6.4l-3.1,4.7c-1.6,4.2-4,4.6-4,4.6s-5.6-3.7-5.7-3.9c-0.2-0.2-2.3-1.1-2.3-1.1
			c-0.3-0.4-0.6-0.8-1.1-1c-0.7-0.3-0.8-1.4-0.8-1.4c-0.1-2.7-1.6-2.9-1.6-2.9C42.6,105.1,42.6,110.6,42.6,111.4z"/>
		<path class="st13" d="M73.6,96.5h3.3V86.3h-3.3V96.5z"/>
		<path class="st7" d="M73.6,96.5h3.3V86.3h-3.3V96.5z"/>
		<path class="st7" d="M82.2,65.4C82.2,65.4,82.2,65.4,82.2,65.4c0,0.1,0.1,0.1,0.1,0.2l0.9,1.3l2.4,0.2l0-0.9
			C84.9,66.2,83.2,66,82.2,65.4z"/>
		<path class="st13" d="M82.3,65.6c0,0,0.1,5.4-1.2,6.1c-1.3,0.7-1.9,4.5-1.9,4.5s4.1,2.7,5,3.8c0.9,1.2,3,4,2.6,4.6
			c-0.4,0.7,1,3.7,1,3.7s-2.7,5.5-2.1,7.6c0.6,2.1,0.7,7.6,0.7,7.6h1.2c0,0-0.4-4.5-0.4-6.3c0-1.8,1.2-8.3,1.2-8.3s0.5-6.4,0-6.6
			c-0.5-0.2-3.8-2.7-4-3.9s1.7-12,1.7-12S83.6,66.3,82.3,65.6z"/>
		<path class="st7" d="M73.5,85.4c0.1,0.7,0.4,1.5,0.8,2.1l2.2-0.4c0,0,6.8-1.5,8.1-1.6c0.8-0.1,1.7-0.3,2.4-0.7
			c-0.5-1.9-1.6-3.6-3-5L83.3,79c-1.3-1.2-2.7-2.1-4.3-2.8c0.1,0.1,7.2,6.1,5.6,7.3c-1.6,1.2-5.7-1.7-5.7-1.7l-4.7-4.1l-0.2-0.1
			L73.7,78c0.1,0.1,0.3,0.1,0.4,0.2c1.6,0.9,2.8,2.4,3.3,4.2C78.4,85.7,73.5,85.4,73.5,85.4z"/>
		<path class="st15" d="M72.1,100.6c0,0,4.5,2.5,5.6,1.1c0.2-0.3,0.7-0.4,1.4-0.5c-0.1-0.3-0.2-0.5-0.2-0.5s-3.4-1.2-6.5-0.9
			C72.2,100.3,72.1,100.6,72.1,100.6z"/>
		<path class="st16" d="M74.1,77.6l4.9,4.2c0,0,4.2,2.9,5.7,1.7c1.6-1.2-5.6-7.3-5.6-7.3c1.6,0.7,3.1,1.6,4.3,2.8l0.9,0.8
			c2.3,2.1,2.8,2.1,2.8,5.2c0,0.8-0.2,1.8-0.4,2c-0.7,0.7-1.2,5.9-1.1,6.5c0.1,0.6-1.4,5.9-0.9,7.3c0.5,1.5-6-0.7-7.1,0.7
			c-1.1,1.4-5.6-1.1-5.6-1.1s2.5-6.4,3.1-6.8c0.6-0.4,1.3-3.7,0-5.2c-1.3-1.5-1.5-3-1.5-3s4.9,0.3,3.9-3c-0.3-1-0.8-1.8-1.4-2.6
			c-0.6-0.8-1.4-1.4-2.3-1.8L74.1,77.6z"/>
		<path class="st7" d="M80.7,88.4c0,0-1.9,3.6-4.3,4.5c-0.1,0-0.2,0.1-0.2,0.1C73.6,93.7,80.9,89.5,80.7,88.4z"/>
		<path class="st14" d="M54.3,56.8c0,0,0.9,2.3,1.6,3.1c0.7,0.8,6.1,8.7,6.1,8.7l0.5,1l0.4,0.8l3.5-0.4l0.2-1.4l-0.1-0.2
			c-0.3-0.4-1.3-1.5-1.9-2c-0.8-0.6-2.4-2.6-2.4-2.6s-4.9-5.1-5.3-6.5c-0.4-1.4-5.3-9.8-6.4-8.3C49.4,50.4,54.3,56.8,54.3,56.8z"/>
		<g class="st9">
			<path class="st7" d="M64.4,94.5c-0.4,0-0.8,0-1.2,0.2c-0.9,0.4-1,1.5-1.5,2.4c-0.6,1-1.6,1.6-2.7,1.8c-0.2,0-0.4,0.1-0.7,0.1
				c0.7,0.1,1.4,0,2.1-0.1c1.1-0.2,2.2-0.8,2.7-1.8c0.5-0.8,0.6-2,1.5-2.4c0.2-0.1,0.5-0.2,0.7-0.2L64.4,94.5z"/>
			<path class="st7" d="M72.8,76.2c0-1.9,1.2-3.5,2.3-5.1c1-1.6,1.9-3.6,1.1-5.4c-0.7-1.5-4.8-3.4-7.2-3.1c2.3,0.3,5.2,1.8,5.8,3.1
				c0.8,1.7-0.1,3.7-1.1,5.4c-1,1.6-2.3,3.2-2.3,5.1c0,2.5-0.2,4.3-0.8,6.7c-0.2,0.7,1.7,1.7,1.4,2.4c-1,2.2-0.5,4.6-0.7,7
				c0,0.5-0.1,0.9-0.3,1.3c-0.5,0.8-1.5,1-2.4,1h0.8c1.1,0,2.4-0.1,3-1c0.2-0.4,0.3-0.9,0.3-1.3c0.2-2.4-0.3-4.8,0.7-7
				c0.3-0.6-1.6-1.7-1.4-2.4C72.7,80.5,72.9,78.6,72.8,76.2z"/>
		</g>
		<path class="st7" d="M62.6,69.6l0.4,0.8l3.5-0.4l0.2-1.4l-0.1-0.2C66.1,68.7,63.4,70,62.6,69.6z"/>
		<path class="st7" d="M75.4,78.8c0,0-0.9-1.3-1.3-1c-0.5,0.4-0.7-1.1-1-0.9c-0.3,0.2-1.1,0.9-1.4,0c-0.3-0.8-3.1-5.5-4.3-7.5
			c-0.3-0.5-0.5-0.8-0.5-0.8s-3.3,1.6-4.1,1.1v1.2l0.7,0.1l3.6,6.7c0,0,1.1,1.8,1,2.4c-0.1,0.6,1.4,3.4,1.7,3.6s2.9,3.2,2.9,3.2
			s1.3,6.6,0.2,8.4c-1.2,1.8-3.2,3.2-3.2,3.2s-0.6,1.8-0.5,2c0.1,0.2-0.7,1-0.3,1.2c0.4,0.2,0.9,1.9,0.9,1.9s1.7-2.7,2.6-3.2
			c0.9-0.4,2.1-6,2.1-6s0.3-3.3,0.4-5.4C74.7,86.8,74.6,78.8,75.4,78.8z"/>
		<path class="st13" d="M75.2,78.8c0,0-0.8-1.3-1.3-1c-0.5,0.4-0.7-1.1-1-0.9c-0.3,0.2-1.1,0.9-1.4,0c-0.3-0.8-3.2-5.5-4.3-7.5
			l-0.5-0.8c0,0-3.3,1.6-4.1,1.1v1.2l0.7,0.1l3.6,6.7c0,0,1.1,1.8,1,2.4c-0.1,0.6,1.4,3.4,1.7,3.6c0.3,0.2,2.9,3.2,2.9,3.2
			s1.3,6.6,0.2,8.4c-0.6,0.9-1.4,1.7-2.2,2.4c-0.7,0.6-1.2,1.4-1.4,2.3c0,0.1-0.1,0.3,0,0.4c0.1,0.2-0.7,1-0.3,1.2
			c0.4,0.2,0.9,2,0.9,2s1.7-2.7,2.6-3.2c0.9-0.4,2.1-6,2.1-6s0.3-3.3,0.4-5.4C74.6,86.8,74.5,78.8,75.2,78.8z"/>
		<path class="st7" d="M66.8,106.5c0,0,2.6,0.5,3.6,1.2c1,0.7-3.9-1.2-3.9-1.2L66.8,106.5z"/>
		<path class="st7" d="M73,113c0,0,2.7,2.2,2.2,4.2c-0.5,2-1.7,7.1-1.7,7.1L73,113z"/>
		<path class="st7" d="M49.7,108.7c0,0-3.8,0.4-3.5,0.9s3.5-0.5,3.5-0.5V108.7z"/>
		<path class="st7" d="M78.5,127.2c0,0,0.2,0.3-1.2,0C76,126.9,77,126,77,126L78.5,127.2z"/>
		<path class="st7" d="M78,131.4c0,0-1.9,0.3-2.9,0C74.1,131.1,78,131.4,78,131.4z"/>
		<path class="st7" d="M74.1,147.9c0,0-0.3-0.4-2,0.3c-1.7,0.7-2.3,0.7-2.8,0.5C68.8,148.4,74.1,147.9,74.1,147.9z"/>
		<path class="st7" d="M76,108.2l-2.4,3.3C73.6,111.5,74.9,108.6,76,108.2z"/>
		<path class="st7" d="M71.4,77.8c0,0-0.1,1.1-1.6,1.5c-1.5,0.4-1.8,0.8-1.8,0.8"/>
		<path class="st7" d="M67.4,69.8c0,0-2,1.4-4.1,1.1L67.4,69.8z"/>
		<path class="st7" d="M68.9,100.6c0,0,0.6,0.4,2-1.3L68.9,100.6z"/>
		<path class="st7" d="M83.6,83.4c0.1-0.3-0.1-0.6-0.3-0.8l-0.4-0.5c-0.1-0.1-0.2-0.2-0.3-0.3c-0.2-0.2-0.5-0.2-0.8-0.4"/>
		<path class="st17" d="M211.7,0c0,0-20.1-1.2-17.7,12.9c0,0-0.5,2.5,1.8,3.6c0,0,0-1,2.1-0.7c0.7,0.1,1.5,0.2,2.2,0.1
			c1-0.1,1.9-0.5,2.7-1.1c0,0,5.6-2.3,7.8-11.6c0,0,1.6-2,1.6-2.5l-3.4,1.5c0,0,1.2,2.5,0.2,4.5c0,0-0.1-4.4-0.8-4.3
			c-0.1,0-1.8,0.8-1.8,0.8s2,4.3,0.5,7.4c0,0,0.6-5.3-1.1-7.1l-2.4,1.4c0,0,2.3,4.4,0.8,8c0,0,0.4-5.5-1.3-7.7l-2.2,1.7
			c0,0,2.2,4.3,0.9,7.3c0,0-0.2-6.4-1.3-6.9c0,0-1.9,1.7-2.2,2.4c0,0,1.5,3.2,0.6,4.8c0,0-0.6-4.3-1-4.3c0,0-1.9,2.8-2.1,4.8
			c0,0,0.1-2.9,1.6-5c0,0-1.8,0.3-2.9,1.5c0,0,0.3-2,3.4-2.2c0,0,1.6-2.2,2-2.3c0,0-3-0.3-4.9,0.6c0,0,1.6-1.9,5.4-1l2.1-1.7
			c0,0-4-0.5-5.7,0.1c0,0,2-1.7,6.3-0.5l2.3-1.4c0,0-3.4-0.7-5.4-0.5c0,0,2.1-1.2,6.1,0.1l1.7-0.7c0,0-2.5-0.5-3.2-0.6
			c-0.7-0.1-0.8-0.3-0.8-0.3c1.6-0.3,3.2-0.1,4.7,0.5C208.3,1.6,211.8,0.2,211.7,0z"/>
		<path class="st17" d="M187,3.6c0,0-9.1-0.5-8,5.8c0,0-0.2,1.1,0.8,1.6c0,0,0-0.5,0.9-0.3c0.3,0.1,0.7,0.1,1,0
			c0.4,0,0.9-0.2,1.2-0.5c0,0,2.6-1.1,3.5-5.2c0,0,0.7-0.9,0.7-1.1l-1.5,0.7c0,0,0.5,1.1,0.1,2c0,0-0.1-2-0.3-1.9
			c-0.1,0-0.8,0.4-0.8,0.4s0.9,1.9,0.2,3.3c0,0,0.3-2.4-0.5-3.2l-1.1,0.6c0,0,1.1,2,0.3,3.6c0,0,0.2-2.5-0.6-3.5l-1,0.8
			c0,0,1,2,0.4,3.3c0,0-0.1-2.9-0.6-3.1c0,0-0.9,0.8-1,1.1c0,0,0.7,1.4,0.3,2.2c0,0-0.3-1.9-0.5-1.9c0,0-0.8,1.3-0.9,2.2
			c0-0.8,0.3-1.6,0.7-2.3c-0.5,0.1-0.9,0.3-1.3,0.7c0,0,0.1-0.9,1.5-1c0,0,0.7-1,0.9-1c0,0-1.4-0.1-2.2,0.3c0,0,0.7-0.9,2.5-0.5
			l1-0.8c0,0-1.8-0.2-2.6,0c0,0,0.9-0.8,2.8-0.2L184,5c0,0-1.5-0.3-2.5-0.2c0,0,1-0.5,2.8,0l0.8-0.3c0,0-1.1-0.2-1.5-0.3
			c-0.3,0-0.3-0.1-0.3-0.1c0.7-0.1,1.5,0,2.1,0.2C185.4,4.3,187,3.7,187,3.6z"/>
		<path class="st10" d="M218.6,155.6c5.3,0,9.6-0.7,9.6-1.6c0-0.9-4.3-1.6-9.6-1.6c-5.3,0-9.6,0.7-9.6,1.6
			C209,154.9,213.3,155.6,218.6,155.6z"/>
		<path class="st10" d="M222.6,151.3c0.4-0.4,0.8-0.8,0.9-1.4c0.1-0.5-0.1-1.2-0.6-1.4c-0.6-0.2-1.2,0.2-1.7,0.6
			c-0.5,0.4-1,0.9-1.6,0.8c0.3-0.3,0.6-0.7,0.7-1.1c0.1-0.4,0.2-0.9,0.1-1.3c0-0.2-0.1-0.3-0.2-0.5c-0.3-0.3-0.9-0.2-1.3,0.1
			c-1.2,0.9-1.6,2.6-1.6,4.1c-0.1-0.5,0-1.1,0-1.7c0-0.6-0.2-1.2-0.6-1.5c-0.3-0.2-0.6-0.2-1-0.2c-0.6,0-1.2,0-1.6,0.4
			c-0.5,0.5-0.4,1.4,0.1,1.9c0.4,0.6,1,0.9,1.6,1.3c0.5,0.3,0.9,0.7,1.2,1.1c0,0.1,0.1,0.1,0.1,0.2h3.5
			C221.2,152.4,222,151.9,222.6,151.3z"/>
	</g>
</g>
</svg>
