<?xml version="1.0" encoding="utf-8"?>
<!-- Generator: Adobe Illustrator 23.0.5, SVG Export Plug-In . SVG Version: 6.00 Build 0)  -->
<svg version="1.1" id="Capa_1" xmlns="http://www.w3.org/2000/svg" xmlns:xlink="http://www.w3.org/1999/xlink" x="0px" y="0px"
	 viewBox="0 0 32 32" style="enable-background:new 0 0 32 32;" xml:space="preserve">
<style type="text/css">
	.st0{fill:#3F3D56;}
	.st1{opacity:0.1;enable-background:new    ;}
	.st2{fill:#FF6347;}
</style>
<path class="st0" d="M22,15.4c0,0-0.5,1.3-1.2,3.2c-0.2,0.6-0.5,1.3-0.8,2c-0.4,1-0.8,2-1.3,3.1c-0.3,0.7-0.6,1.3-0.8,1.9
	c-1.5,3.4-3.2,6.3-4.2,6.4c-2.4,0.1-7.5-14.8-8.1-16.5c0-0.1,0-0.1,0-0.1L22,15.4z"/>
<path class="st1" d="M20.8,18.6c-0.2,0.6-0.5,1.3-0.8,2l-6.4-5.2h3.2L20.8,18.6z"/>
<path class="st1" d="M18.8,23.7c-0.3,0.7-0.6,1.3-0.8,1.9L5.6,15.6c0-0.1,0-0.1,0-0.1h3.1L18.8,23.7z"/>
<path class="st2" d="M14.1,2.2c-0.8,0.6-1.9,0.3-2.7,0.9c-0.5,0.4-0.6,1.1-0.5,1.7C11,5.4,11.4,6,11.8,6.5c0.2,0.4,0.5,0.7,0.9,1
	c0.5,0.4,1.1,0.5,1.7,0.7c1.3,0.3,2.7,0.5,4.1,0.6c0.6,0,1.3,0,1.7-0.4c0.2-0.2,0.3-0.6,0.4-0.9c0.1-0.5,0.2-1.1-0.1-1.5
	c-0.2-0.4-0.5-0.7-0.9-0.9c-1.1-0.8-2.5-1.5-3.2-2.7c-0.3-0.5-0.4-1-0.9-1.4c-0.5-0.5-1.8-0.7-2.4-0.3C13.2,0.7,14.5,1.9,14.1,2.2z"
	/>
<path class="st2" d="M7.7,7.7C7.5,8.4,7.3,9.2,7.5,9.9c0.2,1,1.2,1.7,2.1,2s2.1,0.4,3.1,0.4l5.5,0.2c0.7,0,1.4,0.1,2.1,0.3
	c0.5,0.2,1.2,0.5,1.6,0.2c0.2-0.2,0.3-0.4,0.4-0.6c0.2-0.8,0.4-1.6,0.1-2.3c-0.4-0.8-1.3-1.4-2.2-1.7c-0.9-0.3-1.9-0.3-2.9-0.4
	c-1-0.1-2-0.3-2.9-0.5c-0.8-0.2-1.6-0.5-2.2-1c-0.3-0.3-0.6-0.6-0.9-1C9.7,3.7,8.2,6.4,7.7,7.7z"/>
<path class="st2" d="M6.5,11c-1.7,0.7-2.5,2.6-1.7,4.2c0.2,0.5,0.6,0.9,1,1.2c0.8,0.6,2,0.8,3,0.9c1,0.1,2.1,0,3.1,0l9.3-0.4
	c0.5,0,1.2-0.1,1.5-0.5c0.2-0.3,0.3-0.7,0.2-1.1c-0.2-1.3-1.3-2.5-2.7-2.9c-0.5-0.2-1.1-0.2-1.6-0.2l-4-0.3c-0.5,0-1.1-0.1-1.6-0.2
	c-1.6-0.4-3-1.6-4.6-1.4c-1.1,0.1-2,0.8-2.8,1.5"/>
<path class="st1" d="M11.7,5.2c0,0,1.3,2.2,7.9,3.1"/>
<path class="st1" d="M8,10.9c0,0,2.4,2.3,12.4,2.3"/>
<ellipse class="st0" cx="13.6" cy="3.9" rx="0.6" ry="0.2"/>
<ellipse class="st0" cx="15.7" cy="5.2" rx="0.6" ry="0.2"/>
<ellipse class="st0" cx="18.2" cy="6.6" rx="0.6" ry="0.2"/>
<ellipse class="st0" cx="9.7" cy="7.2" rx="0.6" ry="0.2"/>
<ellipse class="st0" cx="15.1" cy="9" rx="0.6" ry="0.2"/>
<ellipse class="st0" cx="7.5" cy="12.9" rx="0.6" ry="0.2"/>
<ellipse class="st0" cx="11.5" cy="9.2" rx="0.6" ry="0.2"/>
<ellipse class="st0" cx="9.1" cy="14.4" rx="0.6" ry="0.2"/>
<ellipse class="st0" cx="13.2" cy="13.5" rx="0.6" ry="0.2"/>
<ellipse class="st2" cx="15.7" cy="17.1" rx="0.7" ry="1.3"/>
<ellipse class="st2" cx="16.5" cy="17.6" rx="0.7" ry="1.3"/>
<path class="st0" d="M15.1,30.4c0,0,0.1-0.7,0.9-1.6c0.7-0.8,2-2.1,4.6-3.3c4.8-2.2,5.9-6.5,5.9-6.5l0.1,0c0,0-0.3,1.1-1.1,2.4
	c-1.1,1.8-2.8,3.2-4.8,4.2c-4.8,2.2-5.4,4.7-5.4,4.8L15.1,30.4z"/>
<ellipse class="st2" cx="26.7" cy="17.8" rx="0.9" ry="0.8"/>
<ellipse class="st0" cx="26.5" cy="21.6" rx="0.9" ry="0.8"/>
<ellipse class="st2" cx="23.7" cy="21.9" rx="0.9" ry="0.8"/>
<ellipse class="st2" cx="24.2" cy="24.5" rx="0.9" ry="0.8"/>
<ellipse class="st0" cx="20.2" cy="24.5" rx="0.9" ry="0.8"/>
</svg>
