<?xml version="1.0" encoding="utf-8"?>
<!-- Generator: Adobe Illustrator 23.0.5, SVG Export Plug-In . SVG Version: 6.00 Build 0)  -->
<svg version="1.1" id="Capa_1" xmlns="http://www.w3.org/2000/svg" xmlns:xlink="http://www.w3.org/1999/xlink" x="0px" y="0px"
	 viewBox="0 0 32 32" style="enable-background:new 0 0 32 32;" xml:space="preserve">
<style type="text/css">
	.st0{fill:#3F3D56;fill-opacity:0.4;}
	.st1{fill:#FFB8B8;}
	.st2{fill:#5877AB;}
	.st3{fill:#3F3D56;}
	.st4{fill:#FFC1C8;}
	.st5{opacity:0.3;fill:#FFFFFF;enable-background:new    ;}
	.st6{fill:#474463;}
	.st7{fill:#FFC107;}
	.st8{opacity:0.1;enable-background:new    ;}
	.st9{fill:#575988;}
	.st10{fill:#DCE6F2;}
	.st11{fill:#794F6A;}
</style>
<path class="st0" d="M31.6,26.8H0.4v0.1L31.6,26.8L31.6,26.8z"/>
<path class="st1" d="M24,5.5c0.1,0,0.1-0.1,0.1-0.2c0-0.1-0.1-0.2-0.1-0.2c-0.1,0-0.1,0.1-0.1,0.2C23.9,5.4,24,5.5,24,5.5z"/>
<path class="st2" d="M6.2,13.8H1.9v-1.2h2.3L6.2,13.8z"/>
<path class="st3" d="M1.9,13.6v3.5h14v-3.5H1.9z M7.3,16.6H2.8v-0.5h4.5V16.6z M15,15.6H2.8v-0.5h12.2L15,15.6L15,15.6z M15,14.7
	H2.8v-0.5h12.2L15,14.7L15,14.7z"/>
<path class="st2" d="M6.2,8.1H1.9V6.9h2.3L6.2,8.1z"/>
<path class="st3" d="M1.9,8v3.5h14V8H1.9z M7.3,10.9H2.8v-0.5h4.5V10.9z M10,10H2.8V9.5H10V10z M15,9.1H2.8V8.6h12.2L15,9.1L15,9.1z
	"/>
<path class="st2" d="M6.2,19.4H1.9v-1.2h2.3L6.2,19.4z"/>
<path class="st3" d="M1.9,19.2v3.5h14v-3.5H1.9z M10,22.1H2.8v-0.5H10V22.1z M10,21.2H2.8v-0.5H10V21.2z M15,20.2H2.8v-0.5h12.2
	L15,20.2L15,20.2z"/>
<path class="st3" d="M19.8,10.7h-2v-2h1.3v0.1h-1.3v1.9L19.8,10.7l-0.1-1h0.1V10.7z"/>
<path class="st2" d="M18.8,10.2c0-0.1-0.6-0.6-0.3-0.7l0.3,0.4l1.3-1.3l0.1,0.1L18.8,10.2z"/>
<path class="st3" d="M19.8,16.4h-2v-2h1.3v0.1h-1.3v1.9L19.8,16.4l-0.1-1h0.1V16.4z"/>
<path class="st2" d="M18.8,15.9c0-0.1-0.6-0.6-0.3-0.7l0.3,0.4l1.3-1.3l0.1,0.1L18.8,15.9z"/>
<path class="st3" d="M19.8,22h-2v-2h1.3v0.1h-1.3V22L19.8,22l-0.1-1h0.1V22z"/>
<path class="st2" d="M18.8,21.5c0-0.1-0.6-0.6-0.3-0.7l0.3,0.4l1.3-1.3l0.1,0.1L18.8,21.5z"/>
<path class="st4" d="M26.5,10c0,0-1.5,1.9-1.5,1.4c0-0.3-0.2-0.7-0.3-1c-0.1-0.1-0.2-0.3-0.2-0.3s0.9-1.7,1-1.5
	c0,0.1,0.1,0.2,0.3,0.4C26.1,9.4,26.5,10,26.5,10z"/>
<path class="st5" d="M29.3,25.8V26c0,0-1.4-0.5-2.2-1c-0.3-0.2-0.4-0.4-0.4-0.6c0.4,0.2,1.2,0.6,1.5,0.8
	C28.4,25.3,29,25.6,29.3,25.8z"/>
<path class="st6" d="M29,26.5c0.2,0,0.4-0.2,0.4-0.4c0-0.2-0.2-0.4-0.4-0.4s-0.4,0.2-0.4,0.4C28.6,26.3,28.8,26.5,29,26.5z"/>
<path class="st6" d="M24.5,25.9c0.2,0,0.4-0.2,0.4-0.4S24.8,25,24.5,25s-0.4,0.2-0.4,0.4S24.3,25.9,24.5,25.9z"/>
<path class="st7" d="M31,25.6C31,25.6,31,25.7,31,25.6L30.7,26l-3.6-0.1l-1,0c0,0-2.1-0.4-2.5-0.6c-0.4-0.2-2-0.5-2-0.5
	s-1-0.2-1.1-0.6c-0.1-0.2,0-0.3,0-0.4c0.1-0.2,0.3-0.2,0.3-0.2c0.4-0.1,0.9-0.1,1.3,0.1l6.1,1.6l0.1,0c0,0,2.2,0,2.2,0
	C31,25.3,31,25.5,31,25.6z"/>
<path class="st5" d="M31,25.6c-0.4-0.1-1-0.1-1.2-0.1c0,0-1.2-0.1-2.8,0.4l-1,0c0,0-2.1-0.4-2.5-0.6c-0.4-0.2-2-0.5-2-0.5
	s-1-0.2-1.1-0.6c-0.1-0.2,0-0.3,0-0.4c0.1,0.2,0.2,0.5,0.4,0.5c0.3,0.1,1.6,0.4,1.6,0.4l2.6,0.6c0,0,1.5,0.3,2,0.1
	c0.2-0.1,0.7-0.2,1.1-0.2l0.1,0c0,0,2.2,0,2.2,0C31,25.3,31,25.5,31,25.6z"/>
<path class="st6" d="M27.5,25.1c0,0.1,0,0.1,0,0.2c0,0-1.4,0.1-2.2-0.1c-0.2,0-0.3-0.1-0.4-0.2c0,0,0-0.1,0-0.1c0,0,0-0.1,0-0.1
	c0,0,0-0.1,0-0.1c0.1-0.1,0.1-0.2,0.2-0.2c0.1,0,0.4-0.2,0.4-0.2c0-0.2,0.2-0.2,0.3-0.2c0,0,0,0,0,0c0,0,0,0,0,0c0,0,0,0,0,0
	c0,0,0,0,0,0c0,0,0-0.1,0-0.1c0-0.1,0-0.3,0-0.3l1.5,0.1l0.1,0.3c0.1,0.2,0.1,0.6,0.2,0.7C27.5,24.9,27.5,25,27.5,25.1z"/>
<path class="st8" d="M27.5,25.1c0,0.1,0,0.1,0,0.2c0,0-1.4,0.1-2.2-0.1c-0.2,0-0.3-0.1-0.4-0.2c0.2,0,0.4,0,0.6,0
	C25.7,25.1,27,25.1,27.5,25.1z"/>
<path class="st6" d="M24.9,24.7C24.9,24.7,24.9,24.7,24.9,24.7C24.9,24.8,24.9,24.8,24.9,24.7c-0.2,0.2-1.1,0.1-1.1,0.1
	s-1.8-0.1-2.1-0.3c0,0,0,0-0.1-0.1c-0.1-0.2,0.3-0.5,0.3-0.5c0,0,0.5-0.1,0.6-0.1c0.2,0,0.4-0.2,0.5-0.1c0,0,0.2-0.1,0.3-0.1
	c0,0,0.1-0.1,0.1-0.1c0-0.1,0-0.2,0-0.2l1.4,0.4l0,0.2L24.9,24.7L24.9,24.7C24.9,24.7,24.9,24.7,24.9,24.7z"/>
<path class="st8" d="M23.8,24.8c0,0-1.8-0.1-2.1-0.3c0,0,0,0-0.1-0.1c0.4,0,1,0.1,1.1,0.1c0.2,0,1,0.1,1,0.1h1.1v0.1
	C24.9,25,23.8,24.8,23.8,24.8z"/>
<path class="st6" d="M22.4,25.9c0.2,0,0.4-0.2,0.4-0.4S22.6,25,22.4,25s-0.4,0.2-0.4,0.4S22.1,25.9,22.4,25.9z"/>
<path class="st6" d="M27.1,26.8c0.2,0,0.4-0.2,0.4-0.4c0-0.2-0.2-0.4-0.4-0.4s-0.4,0.2-0.4,0.4C26.7,26.6,26.9,26.8,27.1,26.8z"/>
<path class="st4" d="M24.2,11.5c0,0-1.1,0.1-1.3,0.2c-0.2,0.1-1.1,0-1.2,0c-0.1,0-1.6,0.3-0.9,0.7c0.7,0.4,1.2,0,1.2,0
	s0.9-0.1,1.2,0.1c0.2,0.1,1.1,0.1,1.1,0.1L24.2,11.5z"/>
<path class="st8" d="M25.8,9c0,0.1-0.1,0.1-0.1,0.1c-0.1,0.5-0.5,1-1,1.2c-0.1-0.1-0.2-0.3-0.2-0.3s0.9-1.7,1-1.5
	C25.5,8.7,25.6,8.8,25.8,9z"/>
<path class="st4" d="M25.8,8.7c0,0.3-0.1,0.7-0.3,1c-0.2,0.3-0.5,0.5-0.8,0.6c-0.3,0.1-0.7,0.2-1,0.1c-0.3-0.1-0.6-0.2-0.9-0.5
	c-0.2-0.2-0.4-0.6-0.5-0.9c-0.1-0.3,0-0.7,0.1-1c0.1-0.3,0.4-0.6,0.6-0.8c0.3-0.2,0.6-0.3,1-0.3c0.2,0,0.5,0,0.7,0.1
	c0.2,0.1,0.4,0.2,0.6,0.4s0.3,0.4,0.4,0.6C25.7,8.2,25.8,8.5,25.8,8.7z"/>
<path class="st8" d="M24.8,23.6l0,0.2c-0.1,0-0.4,0.1-0.6,0c-0.2-0.1-0.5-0.2-0.8-0.4c0-0.1,0-0.2,0-0.2L24.8,23.6z"/>
<path class="st8" d="M27.3,24.1C27.3,24.2,27.3,24.2,27.3,24.1c0,0.1-1.2,0-1.5-0.2c0-0.1,0-0.3,0-0.3l1.4,0.2L27.3,24.1z"/>
<path class="st9" d="M27.1,18.9c-0.1,0.2-0.1,0.3,0,0.4c0.1,0.1,0,0.7-0.1,0.7c-0.1,0.1-0.6,0.4-0.6,0.4s0.3,0.3,0.3,0.5
	c0,0.1,0,0.2,0.1,0.3c0,0,0.4,0.9,0.5,1.1c0.1,0.3,0.1,0.7,0.1,0.7s-0.1,0.4,0,0.6c0.1,0.2,0,0.6,0,0.6s-1.4-0.1-1.6-0.3
	c-0.2-0.2-0.1-0.6-0.1-0.6c0-0.2-0.1-0.4-0.2-0.5c-0.2-0.3,0-0.5,0-0.5c0,0-0.2-0.2-0.3-0.4c-0.1-0.2-0.2-0.1-0.2-0.1s0.1,1.3,0,1.4
	c-0.1,0.1-0.2,0.1-0.1,0.2c0,0.1,0.1,0.3,0.1,0.5c0,0-0.5,0.1-0.7,0s-0.6-0.2-0.9-0.4c-0.3-0.2,0.1-0.6,0.2-0.7c0.1-0.1,0-0.8,0-0.8
	l-0.1-0.8c0,0,0.4,0.1,0.2-0.2c-0.1-0.3-0.3-1.3-0.3-1.4c-0.1-0.2,0.2-0.4,0.2-0.5s0.2-0.7,0.2-0.7s0-0.5,0.1-0.6
	c0.1,0,0.1-0.1,0.1-0.3c0-0.1,0-0.3,0-0.4c0,0,3-0.2,3.5,0.1c0.2,0.1,0.2,0.4,0.1,0.6c-0.1,0.3-0.3,0.6-0.4,0.7
	C27.1,18.6,27.1,18.7,27.1,18.9z"/>
<path class="st8" d="M27.6,17.7c-0.4,0.1-0.9,0.3-0.9,0.4c-0.1,0.1-0.6-0.8-0.6-0.8s0,0.7-0.6,0.4c-0.5-0.3-1.3-0.2-1.5-0.2
	c0-0.1,0-0.3,0-0.4c0,0,3-0.2,3.5,0.1C27.7,17.2,27.7,17.4,27.6,17.7z"/>
<path class="st10" d="M26.1,9.7c0,0,0.3-0.3,0.3-0.2c0.1,0.1,0.4,0.4,0.4,0.4s0.1,0.3,0.2,0.3c0.2,0,1.3,1.6,1.3,1.6l-0.4,0.8
	l-0.3,2.1c0,0,0,0.3-0.1,0.4c-0.1,0.1-0.4,0.1-0.3,0.2c0.2,0.1,0.4,0.3,0.5,0.9c0.1,0.7,0.3,1,0.3,1s-1.2,0.3-1.4,0.5
	C26.5,18,26,17,26,17s0,0.7-0.6,0.4c-0.6-0.3-1.6-0.2-1.6-0.2v-0.8c0,0,0.2-0.3,0.1-0.5c-0.1-0.2,0.1-0.6,0.1-0.6s-0.1-0.4-0.2-0.6
	s-0.1-1.3-0.1-1.3s-0.1-0.7,0-1.1c0.1-0.3,0.2-0.6,0.3-0.9c0.1-0.3,0.2-0.5,0.2-0.6c0-0.1,0.4-0.3,0.4-0.3l0.2,0.4l0.1,0.2
	C24.9,10.9,26.1,10.1,26.1,9.7z"/>
<path class="st4" d="M27.9,11.5c0,0,0.7,0.7,0.8,0.8c0.1,0.1,0.3,0.7,0,0.9c-0.3,0.2-1.7,0.5-1.8,0.4c-0.1-0.1-0.9,0.1-0.9,0.1
	s-1.3,0.3-1.1-0.2c0.3-0.5,1-0.4,1-0.4s1.1,0,1.2-0.1c0.1-0.1,1-0.4,0.8-0.8C27.8,11.7,27.9,11.5,27.9,11.5z"/>
<path class="st8" d="M25.8,14.8c0,0-1.7,1.5-1.5,1.5C24.4,16.3,25.8,14.8,25.8,14.8z"/>
<path class="st8" d="M26.9,15.4c0,0-0.5,0.1-0.4,0.2C26.6,15.7,26.9,15.4,26.9,15.4z"/>
<path class="st8" d="M25,11.8c0,0,0.7,0.1,0.6,0.3C25.4,12.3,25,11.8,25,11.8z"/>
<path class="st8" d="M24.6,18.2c0,0-0.1,0.3,0,0.4c0.1,0.1,0,0.5,0,0.5v1.2c0,0,0,0.9,0.3,1.2L24.6,18.2z"/>
<path class="st8" d="M23.7,21.9c0,0,0.2,0.3,0.2,0.4S23.7,21.9,23.7,21.9z"/>
<path class="st8" d="M23.7,21.3c0,0,0.4-0.1,0.5,0C24.3,21.4,23.7,21.3,23.7,21.3z"/>
<path class="st8" d="M23.6,23c0,0-0.1,0,0.1,0.1c0.2,0.1,0.7,0.3,0.7,0.3C24.5,23.3,23.6,23,23.6,23z"/>
<path class="st8" d="M25.4,21.6c0,0,0.6,0,0.6,0.1C26,21.8,25.4,21.6,25.4,21.6z"/>
<path class="st8" d="M26.2,20.9c0,0,0.1-0.2,0.2-0.1C26.4,20.8,26.2,20.9,26.2,20.9z"/>
<path class="st8" d="M25.8,8.7c0,0.2,0,0.3-0.1,0.5c-0.1,0.1-0.2,0.1-0.3,0c-0.1-0.1-0.2-0.2-0.2-0.3c-0.1-0.1-0.1-0.2-0.3-0.2
	c-0.1-0.1-0.3,0-0.4,0.1c-0.1,0.1-0.2,0.2-0.3,0.3s-0.3,0.2-0.4,0.1c-0.1,0-0.2-0.1-0.3-0.1c-0.1-0.1-0.2-0.2-0.4-0.2
	c-0.1-0.1-0.2,0-0.3,0c-0.1,0-0.2,0.1-0.2,0.2c0,0,0,0.1,0.1,0.1c0,0.1,0.1,0.2,0,0.2c0,0.1,0,0.2-0.1,0.2c-0.1-0.2-0.3-0.5-0.3-0.8
	c0-0.3,0-0.5,0.1-0.8c0.1-0.3,0.2-0.5,0.4-0.7c0.2-0.2,0.4-0.3,0.7-0.4c0.3-0.1,0.5-0.1,0.8-0.1c0.3,0,0.5,0.1,0.7,0.3
	c0.2,0.2,0.4,0.4,0.5,0.6C25.7,8.1,25.8,8.4,25.8,8.7L25.8,8.7z"/>
<path class="st11" d="M22.8,8.8c-0.1,0-0.2,0.1-0.2,0.2c0,0,0,0.1,0.1,0.1c0.1,0.2,0,0.5-0.2,0.6c0,0-0.1,0-0.1,0c0,0-0.1,0-0.1,0
	c-0.1-0.1-0.2-0.2-0.2-0.4c0-0.1,0-0.3,0-0.5c0-0.1-0.1-0.3-0.1-0.5c0-0.1,0-0.1,0-0.2c0-0.1,0.1-0.1,0.1-0.1
	c0.1-0.1,0.2-0.2,0.3-0.4c0.1-0.2,0-0.5,0.2-0.7c0.1-0.1,0.2-0.1,0.3-0.2c0.1-0.1,0.2-0.1,0.3-0.2c0.3-0.2,0.7-0.4,1.1-0.3
	c0.2,0,0.3,0.1,0.5,0.2c0.3,0.1,0.5,0.3,0.7,0.5c0.1,0.1,0.2,0.2,0.3,0.3c0.1,0.1,0.1,0.2,0.1,0.3c0.1,0.2,0.1,0.4,0,0.7
	c0,0.2-0.1,0.4-0.1,0.6c0,0.1,0,0.2,0,0.2c-0.1,0.1-0.2,0.1-0.3,0.1c-0.1-0.1-0.2-0.2-0.2-0.3c-0.1-0.1-0.1-0.2-0.3-0.2
	c-0.1-0.1-0.3,0-0.4,0.1c-0.1,0.1-0.2,0.2-0.3,0.3s-0.3,0.2-0.4,0.1c-0.1,0-0.2-0.1-0.3-0.1c-0.1-0.1-0.2-0.2-0.4-0.2
	C23.1,8.7,22.9,8.8,22.8,8.8z"/>
</svg>
